{"glyphs":{"0":{"ha":694,"x_min":0,"x_max":0,"o":"m 331 -28 b 646 524 618 -28 646 308 b 369 957 646 781 569 957 b 40 444 82 957 40 669 b 331 -28 40 114 139 -19 z m 344 908 b 529 435 500 908 529 700 b 349 21 529 233 511 21 b 157 483 194 21 157 214 b 335 908 157 696 172 908 z "},"1":{"ha":694,"x_min":0,"x_max":0,"o":"m 93 771 l 107 771 l 286 851 b 290 853 288 853 289 853 b 301 807 301 853 301 828 l 301 133 b 283 61 301 101 299 74 b 211 42 265 46 240 43 l 133 38 l 133 -4 b 360 0 243 -3 301 0 b 581 -4 418 0 476 -3 l 581 38 l 508 42 b 436 61 479 43 454 46 b 418 133 421 74 418 101 l 418 957 l 399 964 b 83 831 310 917 196 869 z "},"2":{"ha":694,"x_min":0,"x_max":0,"o":"m 22 32 l 22 -4 b 333 0 125 -3 228 0 b 650 -4 439 0 542 -3 b 647 58 649 17 647 38 b 650 121 647 79 649 100 b 169 107 490 115 329 107 l 422 375 b 599 697 542 501 599 582 b 314 957 599 833 517 957 b 78 860 224 957 139 929 b 54 671 69 797 64 733 l 94 671 l 113 735 b 288 850 139 828 194 850 b 474 654 404 850 474 767 b 258 283 474 568 436 472 z "},"3":{"ha":694,"x_min":0,"x_max":0,"o":"m 60 692 l 103 692 l 128 769 b 299 864 143 815 228 864 b 467 703 390 864 467 796 b 282 511 467 610 397 511 b 221 515 261 511 242 514 l 204 442 l 214 433 b 328 464 244 447 281 464 b 513 261 454 464 513 383 b 308 29 513 139 438 29 b 58 226 169 29 99 96 l 21 213 b 69 8 47 138 64 67 b 247 -28 124 -11 201 -28 b 642 306 444 -28 642 135 b 428 519 642 435 564 500 b 581 746 511 581 581 658 b 325 957 581 875 481 957 b 100 864 236 957 160 931 z "},"4":{"ha":694,"x_min":0,"x_max":0,"o":"m 389 251 l 389 147 b 306 42 389 53 364 44 l 219 38 l 219 -4 b 436 0 290 -3 363 0 b 656 -4 510 0 582 -3 l 656 38 l 589 42 b 506 147 531 46 506 53 l 506 251 b 656 246 560 251 613 251 l 656 344 b 543 340 618 342 581 340 l 506 340 l 506 533 b 515 957 506 744 508 914 l 499 964 l 396 926 l 3 283 l 18 251 z m 389 340 l 90 340 l 386 825 l 389 825 z "},"5":{"ha":694,"x_min":0,"x_max":0,"o":"m 176 840 b 600 833 315 836 453 833 l 607 840 b 604 896 606 858 604 876 b 607 950 604 914 606 932 l 600 957 b 358 950 519 953 440 950 b 117 957 276 950 197 953 l 110 950 b 113 769 113 900 113 835 b 104 447 113 631 108 486 l 132 439 b 303 524 183 492 225 524 b 519 278 439 524 519 426 b 279 35 519 133 439 35 b 115 96 229 35 142 50 l 51 210 l 18 190 b 86 6 43 129 67 67 b 233 -28 119 -17 194 -28 b 638 350 433 -28 638 135 b 358 619 638 518 519 619 b 164 550 289 619 221 586 z "},"6":{"ha":694,"x_min":0,"x_max":0,"o":"m 336 -28 b 650 303 511 -28 650 111 b 406 568 650 458 561 568 b 182 460 304 568 257 517 b 578 922 208 711 336 853 l 578 933 l 526 957 b 44 342 246 883 44 650 b 336 -28 44 156 124 -28 z m 349 485 b 531 257 479 485 531 371 b 353 18 531 146 483 18 b 171 289 207 18 171 172 l 171 307 b 182 386 171 333 172 361 b 349 485 207 446 285 485 z "},"7":{"ha":694,"x_min":0,"x_max":0,"o":"m 78 14 l 90 -4 b 154 0 111 -3 133 0 b 218 -4 175 0 197 -3 b 436 458 274 143 350 303 l 690 915 l 690 957 b 382 950 589 953 486 950 b 75 957 279 950 176 953 l 61 950 b 65 807 63 901 65 854 b 61 663 65 758 63 710 l 103 663 l 113 740 b 197 838 122 822 131 838 l 568 838 b 417 558 517 731 468 642 z "},"8":{"ha":694,"x_min":0,"x_max":0,"o":"m 360 957 b 74 700 206 957 74 864 b 233 479 74 599 138 539 b 42 225 128 438 42 344 b 317 -28 42 65 165 -28 b 644 286 489 -28 644 110 b 435 529 644 424 547 479 b 606 754 514 582 606 650 b 360 957 606 894 486 957 z m 394 410 b 535 228 450 385 535 326 b 343 19 535 125 456 19 b 140 226 218 19 140 99 b 283 460 140 331 183 404 z m 310 588 b 178 750 247 618 178 672 b 346 910 178 853 244 910 b 511 739 449 910 511 839 b 386 550 511 653 457 593 z "},"9":{"ha":694,"x_min":0,"x_max":0,"o":"m 133 -28 b 635 585 486 67 635 306 b 340 957 635 808 525 957 b 28 635 157 957 28 814 b 285 356 28 481 119 356 b 403 392 319 356 375 369 l 500 472 b 86 7 492 231 319 61 l 86 -4 z m 336 440 b 147 676 206 440 147 563 b 335 911 147 792 190 908 l 339 911 b 514 647 475 911 514 760 b 336 440 514 539 447 440 z "}," ":{"ha":347,"x_min":0,"x_max":0,"o":""},"!":{"ha":386,"x_min":0,"x_max":0,"o":"m 192 -7 b 274 74 236 -7 274 32 b 192 154 274 115 235 154 b 113 74 150 154 113 115 b 192 -7 113 32 149 -7 z m 222 964 l 118 911 b 128 764 121 863 124 813 l 164 340 b 167 285 167 322 167 304 l 181 278 l 219 310 l 219 344 l 253 731 b 269 929 258 797 269 863 l 269 964 z "},"\"":{"ha":515,"x_min":0,"x_max":0,"o":"m 146 651 l 192 924 l 192 931 b 132 985 192 957 163 985 b 72 931 101 985 72 957 l 72 924 l 118 651 z m 397 651 l 443 924 l 443 931 b 383 985 443 957 414 985 b 324 931 353 985 324 957 l 324 924 l 369 651 z "},"#":{"ha":694,"x_min":0,"x_max":0,"o":"m 653 389 l 514 389 l 542 582 l 688 582 l 688 660 l 553 660 l 594 950 l 514 950 l 472 660 l 288 660 l 331 950 l 250 950 l 207 660 l 43 660 l 43 582 l 196 582 l 167 389 l 6 389 l 6 311 l 154 311 l 108 0 l 189 0 l 235 311 l 421 311 l 378 0 l 458 0 l 501 311 l 653 311 z m 461 582 l 433 389 l 247 389 l 276 582 z "},"$":{"ha":694,"x_min":0,"x_max":0,"o":"m 310 25 b 107 114 236 29 132 64 b 103 150 103 122 103 138 l 103 239 l 58 239 b 42 33 56 172 53 97 b 310 -25 142 -8 247 -25 b 304 -161 308 -76 307 -128 l 367 -161 b 361 -22 365 -121 363 -69 b 654 289 511 0 654 101 b 361 518 654 476 515 503 l 361 879 b 525 803 415 876 513 853 b 529 753 529 786 529 769 l 529 694 l 574 694 b 592 869 574 758 578 819 b 361 929 521 913 439 924 b 367 1015 363 963 364 988 l 304 1015 b 310 925 306 989 308 961 b 42 636 150 904 42 800 b 310 413 42 458 158 429 z m 361 406 b 544 238 468 392 544 358 b 361 25 544 125 458 36 z m 310 526 b 146 685 208 536 146 576 b 310 875 146 789 200 867 z "},"%":{"ha":1167,"x_min":0,"x_max":0,"o":"m 281 957 b 54 722 144 957 54 854 b 267 511 54 600 146 511 b 493 746 403 511 493 614 b 281 957 493 868 401 957 z m 276 925 b 393 735 375 925 393 810 b 269 543 393 660 365 543 b 154 733 171 543 154 658 b 276 925 154 808 181 925 z m 901 446 b 675 211 765 446 675 343 b 888 0 675 89 767 0 b 1114 235 1024 0 1114 103 b 901 446 1114 357 1022 446 z m 897 414 b 1014 224 996 414 1014 299 b 890 32 1014 149 986 32 b 775 222 792 32 775 147 b 897 414 775 297 801 414 z m 347 -28 l 856 985 l 800 985 l 292 -28 z "},"&":{"ha":1081,"x_min":0,"x_max":0,"o":"m 761 538 l 736 538 b 626 540 699 538 663 539 l 581 478 b 707 463 635 474 688 469 b 739 346 725 456 739 400 b 672 196 739 300 713 247 b 389 551 565 304 468 421 b 589 829 478 613 589 711 b 457 957 589 913 538 957 b 361 925 406 957 379 942 l 267 842 b 233 718 243 821 233 775 b 275 538 233 663 250 597 b 60 240 160 475 60 379 b 350 -28 60 89 172 -28 b 626 79 451 -28 549 15 b 869 -28 679 32 811 -28 l 883 -28 b 925 -19 899 -28 915 -26 l 1046 68 l 1038 103 b 949 76 1008 89 985 76 b 714 164 869 76 793 118 b 826 400 774 228 826 310 b 819 464 826 419 826 442 b 1014 447 881 461 950 458 b 1031 547 1014 481 1019 511 z m 296 489 b 583 114 372 350 478 232 b 413 50 536 79 472 50 b 181 288 286 50 181 163 b 296 489 181 379 225 436 z m 421 883 b 496 786 471 883 496 829 b 367 599 496 719 421 633 b 331 761 351 642 331 717 b 421 883 331 822 339 883 z "},"’":{"ha":386,"x_min":0,"x_max":0,"o":"m 144 653 b 324 967 219 747 281 854 l 306 985 b 171 943 261 971 217 954 b 63 633 164 835 124 728 l 83 619 z "},"(":{"ha":463,"x_min":0,"x_max":0,"o":"m 418 -269 b 203 371 257 -92 203 138 b 418 972 203 601 257 800 l 392 1008 b 83 371 188 840 83 621 b 392 -299 83 110 185 -122 z "},")":{"ha":463,"x_min":0,"x_max":0,"o":"m 71 -299 b 379 371 278 -122 379 110 b 71 1008 379 621 275 840 l 44 972 b 260 371 206 800 260 601 b 44 -269 260 138 206 -92 z "},"*":{"ha":540,"x_min":0,"x_max":0,"o":"m 233 714 l 51 639 l 44 626 l 94 556 l 108 556 l 256 678 l 281 481 l 294 475 l 389 511 l 389 525 l 294 694 l 486 667 l 499 678 l 499 764 l 490 769 l 297 736 l 393 910 l 389 931 l 303 957 l 290 951 l 254 753 l 122 889 l 108 889 l 47 817 l 51 803 z "},"+":{"ha":842,"x_min":0,"x_max":0,"o":"m 382 401 l 71 401 l 71 324 l 382 324 l 382 10 l 460 10 l 460 324 l 771 324 l 771 401 l 460 401 l 460 711 l 382 711 z "},",":{"ha":347,"x_min":0,"x_max":0,"o":"m 283 171 b 147 129 238 156 194 140 b 22 -200 138 10 83 -100 l 42 -215 l 99 -189 b 303 151 179 -85 258 26 z "},"-":{"ha":463,"x_min":0,"x_max":0,"o":"m 392 299 l 433 392 l 426 399 l 61 399 l 24 306 l 31 299 z "},".":{"ha":347,"x_min":0,"x_max":0,"o":"m 172 -7 b 254 74 217 -7 254 32 b 172 154 254 115 215 154 b 93 74 131 154 93 115 b 172 -7 93 32 129 -7 z "},"/":{"ha":842,"x_min":0,"x_max":0,"o":"m 721 1008 l 638 1008 l 121 -165 l 204 -165 z "},":":{"ha":347,"x_min":0,"x_max":0,"o":"m 171 -7 b 253 74 215 -7 253 32 b 171 154 253 115 214 154 b 92 74 129 154 92 115 b 171 -7 92 32 128 -7 z m 171 472 b 253 553 215 472 253 511 b 171 633 253 594 214 633 b 92 553 129 633 92 594 b 171 472 92 511 128 472 z "},";":{"ha":347,"x_min":0,"x_max":0,"o":"m 283 174 b 147 132 238 158 194 143 b 22 -197 138 13 83 -97 l 42 -212 l 99 -186 b 303 154 179 -82 258 29 z m 208 472 b 290 553 253 472 290 511 b 208 633 290 594 251 633 b 129 553 167 633 129 594 b 208 472 129 511 165 472 z "},"<":{"ha":842,"x_min":0,"x_max":0,"o":"m 775 83 l 175 360 l 775 642 l 775 725 l 79 400 l 79 325 l 775 0 z "},"=":{"ha":842,"x_min":0,"x_max":0,"o":"m 771 536 l 71 536 l 71 458 l 771 458 z m 771 267 l 71 267 l 71 189 l 771 189 z "},">":{"ha":842,"x_min":0,"x_max":0,"o":"m 67 83 l 67 0 l 763 325 l 763 400 l 67 725 l 67 642 l 667 360 z "},"?":{"ha":617,"x_min":0,"x_max":0,"o":"m 60 758 l 100 747 l 128 814 b 254 872 146 857 194 872 b 419 719 350 872 419 806 b 313 531 419 650 367 590 b 206 353 260 472 206 415 b 267 251 206 311 231 272 l 296 271 b 265 339 282 288 265 308 b 407 519 265 400 336 456 b 549 747 478 583 549 654 b 286 964 549 890 422 964 b 113 915 226 964 164 942 z m 275 -7 b 357 74 319 -7 357 32 b 275 154 357 115 318 154 b 196 74 233 154 196 115 b 275 -7 196 32 232 -7 z "},"@":{"ha":1038,"x_min":0,"x_max":0,"o":"m 914 238 b 563 42 835 119 711 42 b 110 467 308 42 110 214 b 554 894 110 718 301 894 b 932 565 782 894 932 739 b 717 226 932 372 797 226 b 679 268 688 226 679 246 b 685 306 679 281 682 294 l 792 693 l 669 693 l 646 601 l 643 601 b 521 707 632 665 590 707 b 221 394 361 707 221 546 b 407 193 221 281 299 193 b 576 303 486 193 526 240 b 682 186 579 244 613 186 b 1006 568 826 186 1006 358 b 544 964 1006 811 779 964 b 33 457 253 964 33 740 b 556 -28 33 172 271 -28 b 999 238 740 -28 914 78 z m 429 231 b 344 353 364 231 344 300 b 544 669 344 450 422 669 b 618 567 599 669 618 608 b 429 231 618 474 553 231 z "},"A":{"ha":1081,"x_min":0,"x_max":0,"o":"m 567 972 l 522 972 b 394 672 485 872 438 769 l 147 110 b 72 42 132 74 106 44 l 21 38 l 21 -4 b 181 0 74 -3 126 0 b 340 -4 221 0 274 -3 l 340 38 l 289 42 b 222 81 246 46 222 51 b 271 225 222 103 258 196 l 310 318 l 710 318 l 774 158 b 803 69 788 125 803 89 b 746 42 803 53 775 43 l 681 38 l 681 -4 b 865 0 756 -3 817 0 b 1050 -4 928 0 989 -3 l 1050 38 l 1003 42 b 947 89 978 44 963 63 b 903 183 931 118 915 156 z m 333 374 l 510 788 l 685 374 z "},"B":{"ha":849,"x_min":0,"x_max":0,"o":"m 157 132 b 126 42 157 94 151 51 l 90 28 l 90 -4 b 242 0 140 -3 190 0 b 393 -4 292 0 342 -3 l 413 -4 b 800 315 701 -4 800 182 b 521 540 800 478 663 536 l 521 543 b 753 769 635 561 753 643 b 515 961 753 913 640 961 l 504 961 b 236 957 394 960 317 957 b 36 961 192 957 113 960 l 36 919 l 86 915 b 144 894 119 913 136 908 b 157 790 154 879 157 843 z m 289 503 b 382 506 314 504 343 506 b 657 292 560 506 657 444 b 406 54 657 143 560 54 b 289 65 368 54 328 56 z m 289 894 b 406 906 328 904 368 906 b 615 742 522 906 615 875 b 388 554 615 604 508 554 b 289 557 346 554 314 556 z "},"C":{"ha":985,"x_min":0,"x_max":0,"o":"m 931 117 l 918 131 b 636 47 854 83 736 47 b 179 500 361 47 179 225 b 578 926 179 736 317 926 b 733 903 629 926 689 918 b 853 817 797 879 853 856 l 853 717 l 896 717 b 922 928 896 789 908 863 b 601 985 856 951 731 985 b 200 851 446 985 304 938 b 31 478 93 764 31 638 b 589 -28 31 163 256 -28 b 892 47 674 -28 811 -1 z "},"D":{"ha":1075,"x_min":0,"x_max":0,"o":"m 157 132 b 122 50 157 94 146 63 l 79 28 l 79 -4 b 268 0 144 -3 206 0 b 447 -4 331 0 392 -3 l 474 -4 b 744 44 583 -4 665 13 b 1043 538 913 114 1043 310 b 564 961 1043 801 839 961 l 546 961 b 304 957 485 960 396 957 b 31 961 213 957 124 960 l 31 919 l 86 915 b 144 894 119 913 136 908 b 157 790 154 879 157 843 z m 289 894 b 447 906 328 904 400 906 b 894 499 697 906 894 843 b 674 97 894 311 826 168 b 447 57 597 61 517 57 b 289 68 400 57 328 58 z "},"E":{"ha":849,"x_min":0,"x_max":0,"o":"m 168 167 b 156 63 168 114 165 78 b 97 42 147 49 131 44 l 47 38 l 47 -4 b 196 0 97 -3 143 0 b 499 -4 282 0 392 -3 l 542 -4 b 772 0 631 -4 719 -1 b 794 228 772 75 781 161 l 746 228 b 697 72 736 144 718 83 b 417 54 672 58 531 54 b 300 65 379 54 339 56 l 300 454 b 461 458 343 458 394 458 b 608 442 546 458 593 453 b 619 407 615 438 618 425 l 626 325 l 668 325 b 664 479 667 375 664 428 b 668 640 664 531 667 583 l 626 640 l 619 568 b 608 532 618 550 615 538 b 461 517 593 522 546 517 b 300 521 394 517 344 518 l 300 892 b 417 903 339 901 379 903 b 689 874 506 903 615 901 b 701 836 700 869 701 854 l 701 746 l 750 746 b 772 957 750 817 757 896 b 593 961 718 960 656 961 b 265 957 514 961 386 957 b 147 958 226 957 186 958 b 31 961 108 960 69 961 l 31 919 l 97 915 b 156 894 131 914 147 908 b 168 790 165 879 168 843 z "},"F":{"ha":772,"x_min":0,"x_max":0,"o":"m 300 454 b 461 458 343 458 394 458 b 608 442 546 458 593 453 b 619 407 615 438 618 425 l 626 325 l 668 325 b 664 479 667 375 664 428 b 668 640 664 531 667 583 l 626 640 l 619 568 b 608 532 618 550 615 538 b 461 517 593 522 546 517 b 300 521 394 517 344 518 l 300 892 b 417 903 339 901 379 903 b 661 874 478 903 588 901 b 674 836 672 869 674 854 l 674 746 l 722 746 b 744 957 722 817 729 896 b 565 961 690 960 628 961 b 265 957 486 961 358 957 b 147 958 226 957 186 958 b 31 961 108 960 69 961 l 31 919 l 97 915 b 156 894 131 914 147 908 b 168 790 165 879 168 843 l 168 167 b 156 63 168 114 165 78 b 97 42 147 49 131 43 l 31 38 l 31 -4 b 236 0 103 -1 168 0 b 438 -4 300 0 365 -1 l 438 38 l 371 42 b 313 63 338 43 321 49 b 300 167 303 78 300 114 z "},"G":{"ha":1060,"x_min":0,"x_max":0,"o":"m 828 136 b 821 79 828 101 826 94 b 626 31 813 54 733 31 b 179 506 340 31 179 229 b 581 926 179 753 317 926 b 775 901 671 926 731 917 b 890 790 840 878 890 856 l 890 717 l 933 717 b 961 928 933 789 944 863 b 617 985 897 946 789 985 b 31 482 282 985 31 788 b 590 -28 31 133 281 -28 b 956 43 686 -28 836 8 l 956 276 b 971 328 956 317 956 322 l 1011 342 l 1006 376 b 835 374 949 375 892 374 b 665 376 779 374 722 375 l 665 335 l 781 325 b 828 276 817 322 828 308 z "},"H":{"ha":1156,"x_min":0,"x_max":0,"o":"m 988 790 b 1000 894 988 843 990 879 b 1058 915 1008 908 1025 914 l 1125 919 l 1125 961 b 924 957 1053 958 988 957 b 718 961 856 957 790 958 l 718 919 l 785 915 b 843 894 818 914 835 908 b 856 790 853 879 856 843 l 856 543 b 740 540 839 542 801 540 l 415 540 b 300 543 354 540 317 542 l 300 790 b 313 894 300 843 303 879 b 371 915 321 908 338 914 l 438 919 l 438 961 b 236 957 365 958 300 957 b 31 961 168 957 103 958 l 31 919 l 97 915 b 156 894 131 914 147 908 b 168 790 165 879 168 843 l 168 167 b 156 63 168 114 165 78 b 97 42 147 49 131 43 l 31 38 l 31 -4 b 236 0 103 -1 168 0 b 438 -4 300 0 365 -1 l 438 38 l 371 42 b 313 63 338 43 321 49 b 300 167 303 78 300 114 l 300 476 b 415 479 317 478 354 479 l 740 479 b 856 476 801 479 839 478 l 856 167 b 843 63 856 114 853 78 b 785 42 835 49 818 43 l 718 38 l 718 -4 b 924 0 790 -1 856 0 b 1125 -4 988 0 1053 -1 l 1125 38 l 1058 42 b 1000 63 1025 43 1008 49 b 988 167 990 78 988 114 z "},"I":{"ha":468,"x_min":0,"x_max":0,"o":"m 300 790 b 313 894 300 843 303 879 b 371 915 321 908 338 914 l 438 919 l 438 961 b 236 957 365 958 300 957 b 31 961 168 957 103 958 l 31 919 l 97 915 b 156 894 131 914 147 908 b 168 790 165 879 168 843 l 168 167 b 156 63 168 114 165 78 b 97 42 147 49 131 43 l 31 38 l 31 -4 b 236 0 103 -1 168 0 b 438 -4 300 0 365 -1 l 438 38 l 371 42 b 313 63 338 43 321 49 b 300 167 303 78 300 114 z "},"J":{"ha":463,"x_min":0,"x_max":0,"o":"m 294 790 b 307 894 294 843 297 879 b 365 915 315 908 332 914 l 432 919 l 432 961 b 231 957 360 958 294 957 b 25 961 163 957 97 958 l 25 919 l 92 915 b 150 894 125 914 142 908 b 163 790 160 879 163 843 l 163 -24 b 151 -133 163 -60 158 -110 b 92 -179 140 -165 119 -179 b -6 -153 57 -179 28 -174 l -21 -161 l -14 -267 b 10 -269 -8 -268 0 -269 b 208 -158 90 -269 160 -218 b 294 126 289 -60 294 42 z "},"K":{"ha":1008,"x_min":0,"x_max":0,"o":"m 300 451 l 314 461 l 797 -4 b 907 0 840 -3 874 0 b 999 -4 939 0 972 -3 l 999 38 l 969 40 b 883 97 944 43 918 65 l 425 531 l 794 864 b 903 917 829 896 867 915 l 961 919 l 961 961 b 850 957 928 960 889 957 b 726 961 810 957 771 960 l 726 924 b 686 869 726 914 707 890 l 300 493 l 300 790 b 313 894 300 843 303 879 b 371 915 321 908 338 914 l 438 919 l 438 961 b 236 957 365 958 300 957 b 31 961 168 957 103 958 l 31 919 l 97 915 b 156 894 131 914 147 908 b 168 790 165 879 168 843 l 168 167 b 156 63 168 114 165 78 b 97 42 147 49 131 43 l 31 38 l 31 -4 b 236 0 103 -1 168 0 b 438 -4 300 0 365 -1 l 438 38 l 371 42 b 313 63 338 43 321 49 b 300 167 303 78 300 114 z "},"L":{"ha":849,"x_min":0,"x_max":0,"o":"m 300 790 b 313 894 300 843 303 879 b 371 915 321 908 338 914 l 438 919 l 438 961 b 236 957 365 958 300 957 b 31 961 168 957 103 958 l 31 919 l 97 915 b 156 894 131 914 147 908 b 168 790 165 879 168 843 l 168 132 b 133 50 168 94 157 63 l 90 28 l 90 -4 b 208 0 126 -3 161 0 b 511 -4 294 0 386 -3 l 554 -4 b 785 0 643 -4 732 -1 b 814 239 796 69 806 163 l 769 239 l 753 169 b 724 81 746 140 738 93 b 417 54 700 58 531 54 b 300 65 379 54 339 56 z "},"M":{"ha":1314,"x_min":0,"x_max":0,"o":"m 1149 790 b 1161 894 1149 843 1151 879 b 1219 915 1169 908 1186 913 l 1278 919 l 1278 961 b 1149 957 1238 960 1193 957 b 1017 961 1104 957 1061 960 l 653 189 l 286 961 b 154 957 243 960 199 957 b 22 961 110 957 65 960 l 22 919 l 83 915 b 142 894 117 913 133 908 b 154 790 151 879 154 843 l 154 167 b 142 63 154 114 151 78 b 83 42 133 49 117 44 l 22 38 l 22 -4 b 183 0 78 -3 133 0 b 350 -4 239 0 289 -3 l 350 38 l 289 42 b 231 63 256 44 239 49 b 218 167 221 78 218 114 l 218 797 l 221 797 l 606 -18 l 633 -18 b 708 158 658 40 682 101 l 956 683 b 1014 797 974 721 993 760 l 1017 797 l 1017 167 b 1004 63 1017 114 1014 78 b 946 42 996 49 979 44 l 899 38 l 899 -4 b 1085 0 951 -1 1017 0 b 1286 -4 1149 0 1214 -1 l 1286 38 l 1219 42 b 1161 63 1186 43 1169 49 b 1149 167 1151 78 1149 114 z "},"N":{"ha":1154,"x_min":0,"x_max":0,"o":"m 156 167 b 143 63 156 114 153 78 b 85 42 135 49 118 44 l 24 38 l 24 -4 b 185 0 79 -3 135 0 b 351 -4 240 0 290 -3 l 351 38 l 290 42 b 232 63 257 44 240 49 b 219 167 222 78 219 114 l 219 807 l 222 807 l 876 -6 l 1001 -28 b 997 24 1000 -11 997 7 l 997 790 b 1010 894 997 843 1000 879 b 1068 915 1018 908 1035 913 l 1129 919 l 1129 961 b 963 957 1068 960 1018 957 b 801 961 913 957 857 960 l 801 919 l 863 915 b 921 894 896 913 913 908 b 933 790 931 879 933 843 l 933 142 l 929 142 l 265 961 b 190 957 240 960 215 957 b 24 961 140 957 85 960 l 24 919 l 85 915 b 143 894 118 913 135 908 b 156 790 153 879 156 843 z "},"O":{"ha":1092,"x_min":0,"x_max":0,"o":"m 524 -28 b 1061 510 828 -28 1061 211 b 553 985 1061 818 850 985 b 31 478 231 985 31 764 b 524 -28 31 167 242 -28 z m 531 926 b 913 467 789 926 913 742 b 568 31 913 211 800 31 b 179 529 293 31 179 286 b 531 926 179 757 289 926 z "},"P":{"ha":839,"x_min":0,"x_max":0,"o":"m 300 892 b 442 908 339 901 379 908 b 667 701 579 908 667 846 b 467 494 667 583 579 494 b 375 508 436 494 406 499 l 389 458 b 472 450 417 453 444 450 b 806 749 656 450 806 575 b 528 961 806 901 660 961 l 518 961 b 282 957 443 960 363 957 b 32 961 203 957 124 960 l 32 919 l 94 915 b 154 892 129 913 144 906 b 168 790 164 878 168 839 l 168 167 b 156 63 168 114 165 78 b 97 42 147 49 131 43 l 31 38 l 31 -4 b 236 0 103 -1 168 0 b 438 -4 300 0 365 -1 l 438 38 l 371 42 b 313 63 338 43 321 49 b 300 167 303 78 300 114 z "},"Q":{"ha":1092,"x_min":0,"x_max":0,"o":"m 553 985 b 31 483 231 985 31 767 b 524 -26 31 164 231 -26 l 532 -26 l 532 -29 l 517 -35 b 365 -135 490 -43 432 -83 l 363 -179 l 444 -135 b 481 -124 454 -129 465 -124 b 592 -144 513 -124 546 -131 l 797 -208 b 944 -244 856 -226 900 -236 l 1061 -167 l 1061 -137 b 983 -146 1035 -143 1008 -146 b 772 -97 915 -146 850 -128 b 567 -28 706 -71 642 -36 l 567 -25 b 1061 510 836 -15 1061 222 b 553 985 1061 818 850 985 z m 531 926 b 913 467 789 926 913 742 b 568 32 913 211 810 32 b 179 529 293 32 179 286 b 531 926 179 757 289 926 z "},"R":{"ha":928,"x_min":0,"x_max":0,"o":"m 300 892 b 442 908 339 901 379 908 b 661 717 550 908 661 867 b 481 522 661 614 578 539 b 396 515 451 518 424 515 b 358 517 382 515 371 515 l 350 500 b 422 414 374 471 400 444 l 678 71 b 735 -4 696 46 717 22 b 829 0 767 -3 797 0 b 929 -4 861 0 893 -3 l 929 38 b 844 74 896 40 865 46 l 529 485 b 800 753 664 511 800 601 b 532 961 800 851 744 961 l 519 961 b 276 957 439 960 358 957 b 40 961 194 957 114 960 l 40 919 l 97 915 b 156 894 131 913 147 908 b 168 790 165 879 168 843 l 168 167 b 156 63 168 114 165 78 b 97 42 147 49 131 43 l 31 38 l 31 -4 b 236 0 103 -1 168 0 b 438 -4 300 0 365 -1 l 438 38 l 371 42 b 313 63 338 43 321 49 b 300 167 303 78 300 114 z "},"S":{"ha":729,"x_min":0,"x_max":0,"o":"m 621 731 b 640 926 621 796 626 856 b 389 985 583 949 500 985 b 33 671 222 985 33 886 b 338 433 33 526 119 458 b 582 247 479 417 582 379 b 333 33 582 110 458 33 b 107 144 224 33 114 86 l 96 238 l 51 238 l 51 185 b 42 25 51 133 50 78 b 279 -28 88 3 182 -28 b 699 324 486 -28 699 86 b 379 551 699 482 575 531 b 150 724 206 571 150 629 b 356 926 150 861 258 926 b 507 893 410 926 468 917 b 568 810 558 861 564 847 l 576 731 z "},"T":{"ha":851,"x_min":0,"x_max":0,"o":"m 360 167 b 347 63 360 114 357 78 b 289 42 339 49 322 43 l 222 38 l 222 -4 b 428 0 294 -1 360 0 b 629 -4 492 0 557 -1 l 629 38 l 563 42 b 504 63 529 43 513 49 b 492 167 494 78 492 114 l 492 754 b 497 893 492 807 493 851 l 713 893 b 768 847 754 893 765 881 l 774 738 l 817 738 b 826 961 817 813 819 889 b 676 960 776 961 726 960 b 526 957 626 958 576 957 l 325 957 b 25 961 225 957 125 961 b 35 738 32 889 35 813 l 78 738 l 83 847 b 139 893 86 881 97 893 l 354 893 b 360 754 358 851 360 807 z "},"U":{"ha":1081,"x_min":0,"x_max":0,"o":"m 154 297 b 529 -28 154 43 293 -28 b 922 389 810 -28 922 92 l 922 790 b 935 894 922 843 925 879 b 993 915 943 908 960 913 l 1054 919 l 1054 961 b 888 957 993 960 943 957 b 726 961 838 957 782 960 l 726 919 l 788 915 b 846 894 821 913 838 908 b 858 790 856 879 858 843 l 858 346 b 572 58 858 115 722 58 b 286 313 389 58 286 115 l 286 790 b 299 894 286 843 289 879 b 357 915 307 908 324 914 l 424 919 l 424 961 b 222 957 351 958 286 957 b 17 961 154 957 89 958 l 17 919 l 83 915 b 142 894 117 914 133 908 b 154 790 151 879 154 843 z "},"V":{"ha":1003,"x_min":0,"x_max":0,"o":"m 261 872 b 258 888 258 878 258 883 b 303 915 258 908 281 914 l 381 919 l 381 961 b 196 957 319 960 258 957 b 11 961 133 957 72 960 l 11 919 l 61 915 b 122 858 85 914 104 903 l 383 217 b 464 -12 411 149 442 69 l 533 -12 b 622 231 558 72 589 151 l 864 815 b 939 915 892 882 910 913 l 981 919 l 981 961 b 831 957 931 960 882 957 b 681 961 779 957 731 960 l 681 919 l 753 915 b 801 875 779 914 801 907 b 789 825 801 863 797 846 l 535 168 z "},"W":{"ha":1389,"x_min":0,"x_max":0,"o":"m 851 274 b 950 -12 886 178 919 97 l 1019 -12 b 1057 128 1031 44 1046 88 l 1269 875 b 1322 915 1276 899 1292 913 l 1367 919 l 1367 961 b 1221 957 1318 960 1271 957 b 1075 961 1171 957 1124 960 l 1075 919 l 1131 915 b 1196 883 1175 911 1196 906 b 1194 869 1196 879 1196 875 l 1013 194 l 1010 194 l 794 797 b 738 972 775 853 750 917 l 693 972 b 568 638 656 858 611 747 l 397 204 l 394 204 l 257 824 b 251 867 253 842 251 856 b 303 915 251 908 275 913 l 361 919 l 361 961 b 186 957 303 960 246 957 b 11 961 126 957 69 960 l 11 919 l 50 915 b 119 846 79 913 106 906 l 285 131 b 317 -12 296 82 307 39 l 386 -12 b 436 131 400 36 418 83 l 678 744 z "},"X":{"ha":926,"x_min":0,"x_max":0,"o":"m 676 29 l 699 -4 b 800 0 732 -3 765 0 b 900 -4 833 0 867 -3 l 900 38 l 858 42 b 767 139 825 44 793 97 l 522 528 l 736 817 b 831 911 764 854 803 910 l 888 915 l 888 957 l 747 957 l 490 582 l 313 882 b 233 972 293 914 267 956 l 38 935 l 40 899 l 103 894 b 231 769 136 892 185 846 l 408 474 l 146 119 b 56 42 122 88 99 47 l 19 38 l 19 -4 b 92 0 43 -3 67 0 b 163 -4 115 0 139 -3 l 381 332 b 443 421 400 363 422 392 z "},"Y":{"ha":926,"x_min":0,"x_max":0,"o":"m 306 836 b 244 926 288 869 268 897 b 179 979 222 953 204 979 b 172 978 176 979 175 978 l 13 944 l 13 904 l 53 900 b 231 719 88 896 158 844 l 403 419 b 415 364 411 406 415 386 l 415 167 b 403 63 415 114 413 78 b 344 42 394 49 378 43 l 278 38 l 278 -4 b 483 0 350 -1 415 0 b 685 -4 547 0 613 -1 l 685 38 l 618 42 b 560 63 585 43 568 49 b 547 167 550 78 547 114 l 547 346 b 567 450 547 379 550 414 b 908 943 624 574 792 808 l 908 964 l 797 964 b 647 700 751 875 703 788 l 504 474 z "},"Z":{"ha":926,"x_min":0,"x_max":0,"o":"m 885 921 l 879 961 b 663 957 807 960 735 957 b 111 961 479 957 294 960 b 115 849 114 924 115 886 b 111 736 115 811 114 774 l 158 736 l 167 835 b 378 900 171 881 186 900 l 694 900 b 575 736 664 847 617 789 l 156 197 b 21 35 113 142 65 89 l 21 -4 b 454 0 165 -3 310 0 b 878 -4 597 0 742 -3 b 886 240 878 75 879 164 l 839 240 l 831 161 b 589 61 821 67 796 61 l 210 61 z "},"[":{"ha":463,"x_min":0,"x_max":0,"o":"m 122 19 b 110 -237 119 -64 122 -190 l 122 -256 b 257 -253 168 -254 213 -253 b 392 -256 303 -253 347 -254 l 400 -247 l 400 -211 l 394 -204 l 342 -204 b 244 -156 289 -204 247 -189 b 239 19 240 -104 239 -29 l 239 733 b 244 908 239 782 240 857 b 342 957 247 942 289 957 l 394 957 l 400 964 l 400 1000 l 392 1008 b 257 1006 347 1007 303 1006 b 122 1008 213 1006 168 1007 l 110 990 b 122 733 122 943 119 817 z "},"\\":{"ha":842,"x_min":0,"x_max":0,"o":"m 113 1008 l 629 0 l 711 0 l 194 1008 z "},"]":{"ha":463,"x_min":0,"x_max":0,"o":"m 340 733 b 353 990 343 817 340 943 l 340 1008 b 206 1006 294 1007 250 1006 b 71 1008 160 1006 115 1007 l 63 1000 l 63 964 l 68 957 l 121 957 b 218 908 174 957 215 942 b 224 733 222 857 224 782 l 224 19 b 218 -156 224 -29 222 -104 b 121 -204 215 -189 174 -204 l 68 -204 l 63 -211 l 63 -247 l 71 -256 b 206 -253 115 -254 160 -253 b 340 -256 250 -253 294 -254 l 353 -237 b 340 19 340 -190 343 -64 z "},"^":{"ha":842,"x_min":0,"x_max":0,"o":"m 165 393 l 421 863 l 675 393 l 769 393 l 467 957 l 375 957 l 71 393 z "},"_":{"ha":694,"x_min":0,"x_max":0,"o":"m 0 -104 l 0 -174 l 694 -174 l 694 -104 z "},"‘":{"ha":386,"x_min":0,"x_max":0,"o":"m 242 951 b 63 638 167 857 106 750 l 81 619 b 215 661 125 633 169 650 b 324 971 222 769 263 876 l 303 985 z "},"a":{"ha":694,"x_min":0,"x_max":0,"o":"m 313 375 b 44 151 185 351 44 311 b 214 -17 44 39 119 -17 b 278 -6 239 -17 267 -14 l 450 114 l 443 -4 b 550 0 479 -3 514 0 b 654 -4 585 0 619 -3 l 654 38 l 600 40 b 565 61 581 42 568 47 b 561 121 563 76 561 99 l 561 375 b 335 651 561 575 508 651 b 174 604 290 651 233 640 l 100 560 l 100 469 l 136 460 l 154 503 b 178 549 163 521 169 538 b 275 578 196 572 215 578 b 450 404 396 578 450 510 l 450 400 z m 450 172 b 406 126 444 164 428 143 b 272 63 360 92 315 63 b 164 176 217 63 164 106 b 247 307 164 228 199 288 b 450 356 318 335 381 346 z "},"b":{"ha":768,"x_min":0,"x_max":0,"o":"m 208 997 l 196 1008 b -21 957 126 981 53 968 l -21 918 l 57 918 b 92 861 88 918 92 893 l 92 213 l 86 51 b 81 -8 85 31 82 11 l 103 -17 l 158 33 b 331 -17 207 -1 269 -17 b 457 14 367 -17 415 -17 l 596 114 b 706 368 657 158 706 276 b 453 651 706 524 617 651 b 285 590 393 651 321 628 l 211 515 l 208 515 z m 208 428 b 392 561 208 472 285 561 b 585 324 528 561 585 444 b 378 54 585 142 490 54 b 208 129 310 54 208 100 z "},"c":{"ha":617,"x_min":0,"x_max":0,"o":"m 554 432 b 574 603 554 493 563 561 b 407 651 539 625 488 651 b 274 619 361 651 315 638 b 156 553 235 603 188 576 b 36 293 99 511 36 422 b 351 -28 36 86 186 -28 b 544 19 453 -28 535 6 l 574 64 l 560 85 b 418 44 519 61 464 44 b 158 353 283 44 158 133 b 361 579 158 535 265 579 b 506 517 410 579 492 547 l 515 432 z "},"d":{"ha":849,"x_min":0,"x_max":0,"o":"m 572 607 b 404 651 513 633 467 651 b 301 625 381 651 343 647 l 179 561 b 49 304 110 525 49 431 b 335 -17 49 122 140 -17 b 424 -6 371 -17 411 -15 l 578 124 l 571 -4 b 678 0 607 -3 642 0 b 804 -4 713 0 747 -3 l 804 38 l 740 42 b 696 61 717 43 701 49 b 689 142 690 76 689 104 l 689 997 l 676 1008 b 460 957 607 981 533 968 l 460 918 l 538 918 b 572 861 568 918 572 893 z m 572 307 l 572 276 b 538 150 572 229 569 190 b 386 63 500 103 444 63 b 169 332 242 63 169 203 b 376 586 169 501 235 582 l 381 586 b 572 486 464 586 572 514 z "},"e":{"ha":665,"x_min":0,"x_max":0,"o":"m 351 606 b 499 371 451 606 499 500 b 344 367 450 368 399 367 b 168 375 288 367 228 368 l 168 393 b 351 606 168 532 249 606 z m 358 651 b 222 614 311 651 271 636 b 136 558 192 600 163 579 b 36 293 72 508 36 428 b 357 -28 36 106 147 -28 b 579 50 451 -28 569 33 l 607 97 l 589 111 b 417 46 536 79 483 46 b 165 319 246 46 165 157 l 368 319 b 619 339 451 319 536 325 b 622 397 622 358 622 378 b 358 651 622 554 510 651 z "},"f":{"ha":463,"x_min":0,"x_max":0,"o":"m 474 996 b 411 1011 454 1004 432 1011 b 286 953 372 1011 322 994 l 206 861 b 147 661 165 815 147 753 l 147 603 l 51 560 l 51 529 l 147 535 l 147 142 b 140 61 147 104 146 76 b 96 42 135 49 119 43 l 32 38 l 32 -4 b 206 0 82 -3 138 0 b 379 -4 274 0 329 -3 l 379 38 l 315 42 b 271 61 292 43 276 49 b 264 142 265 76 264 104 l 264 535 l 436 535 l 446 608 l 264 603 l 264 721 b 365 919 264 879 279 919 b 457 881 400 919 432 904 l 474 889 z "},"g":{"ha":772,"x_min":0,"x_max":0,"o":"m 721 525 l 756 582 l 750 599 l 553 593 b 383 651 508 633 444 651 b 182 592 331 651 246 633 b 76 403 119 551 76 492 b 240 217 76 258 196 218 l 240 214 l 133 132 b 113 74 121 115 113 94 b 204 -8 113 33 143 8 l 83 -74 b 44 -185 54 -100 44 -144 b 343 -393 44 -308 175 -393 b 719 -94 578 -393 719 -242 b 556 78 719 -25 681 78 l 333 78 b 228 133 292 78 228 81 b 292 211 228 164 272 192 b 321 208 301 210 311 208 b 515 275 385 208 454 232 b 608 447 571 313 608 372 b 593 525 608 474 604 500 z m 492 403 b 350 256 492 318 432 256 b 193 440 261 256 193 318 b 332 604 193 532 239 604 b 492 403 447 604 492 504 z m 353 -350 b 150 -171 242 -350 150 -290 b 267 -25 150 -83 228 -29 b 414 -19 329 -19 378 -19 b 610 -144 571 -19 610 -62 b 353 -350 610 -256 506 -350 z "},"h":{"ha":808,"x_min":0,"x_max":0,"o":"m 122 142 b 115 61 122 104 121 76 b 71 42 110 49 94 43 l 8 38 l 8 -4 b 181 0 57 -3 113 0 b 353 -4 249 0 304 -3 l 353 38 l 290 42 b 246 61 267 43 251 49 b 239 142 240 76 239 104 l 239 436 b 410 567 239 493 325 567 b 569 390 504 567 569 506 l 569 -4 b 681 0 601 -3 642 0 b 794 -4 719 0 760 -3 l 794 38 l 738 42 b 693 61 714 43 699 49 b 686 142 688 76 686 104 l 686 410 b 457 651 686 561 619 651 b 344 617 401 651 375 643 l 242 528 l 239 528 l 239 997 l 226 1008 b 10 957 157 981 83 968 l 10 918 l 88 918 b 122 861 118 918 122 893 z "},"i":{"ha":404,"x_min":0,"x_max":0,"o":"m 261 646 l 249 651 b 32 594 197 629 114 603 l 32 556 l 83 556 b 135 540 113 556 126 551 b 144 454 142 529 144 499 l 144 142 b 138 61 144 104 143 76 b 93 42 132 49 117 43 l 29 38 l 29 -4 b 203 0 79 -3 135 0 b 376 -4 271 0 326 -3 l 376 38 l 313 42 b 268 61 289 43 274 49 b 261 142 263 76 261 104 z m 196 954 b 119 876 156 954 119 917 b 196 800 119 836 156 800 b 274 876 236 800 274 836 b 196 954 274 917 236 954 z "},"j":{"ha":325,"x_min":0,"x_max":0,"o":"m 221 646 l 208 651 b -8 594 157 629 74 603 l -8 556 l 43 556 b 94 540 72 556 86 551 b 104 454 101 529 104 499 l 104 -10 b 68 -285 104 -149 89 -246 b -8 -344 47 -325 14 -344 b -56 -340 -28 -344 -42 -343 l -39 -393 b 147 -289 46 -393 103 -344 b 221 -26 193 -231 221 -139 z m 156 801 b 232 879 196 801 232 839 b 156 956 232 919 196 956 b 78 879 115 956 78 919 b 156 801 78 839 115 801 z "},"k":{"ha":772,"x_min":0,"x_max":0,"o":"m 144 142 b 138 61 144 104 143 76 b 93 42 132 49 117 43 l 29 38 l 29 -4 b 203 0 79 -3 135 0 b 374 -4 271 0 326 -3 l 374 38 l 313 42 b 268 61 289 43 274 49 b 261 142 263 76 261 104 l 261 333 l 629 -17 l 763 24 l 763 56 b 644 122 721 56 674 93 l 469 296 b 381 390 439 326 408 357 l 560 531 b 703 596 601 563 649 596 l 710 596 l 710 638 l 571 638 b 363 444 514 581 436 504 l 261 363 l 261 997 l 249 1008 b 32 957 179 981 106 968 l 32 918 l 110 918 b 144 861 140 918 144 893 z "},"l":{"ha":404,"x_min":0,"x_max":0,"o":"m 144 142 b 138 61 144 104 143 76 b 93 42 132 49 117 43 l 29 38 l 29 -4 b 203 0 79 -3 135 0 b 376 -4 271 0 326 -3 l 376 38 l 313 42 b 268 61 289 43 274 49 b 261 142 263 76 261 104 l 261 997 l 249 1008 b 32 957 179 981 106 968 l 32 918 l 110 918 b 144 861 140 918 144 893 z "},"m":{"ha":1226,"x_min":0,"x_max":0,"o":"m 138 142 b 131 61 138 104 136 76 b 86 42 125 49 110 43 l 22 38 l 22 -4 b 196 0 72 -3 128 0 b 364 -4 264 0 319 -3 l 364 38 l 306 42 b 261 61 282 43 267 49 b 254 142 256 76 254 104 l 254 436 b 425 567 254 493 340 567 b 556 390 515 567 556 483 l 556 142 b 549 61 556 104 554 76 b 504 42 543 49 528 43 l 440 38 l 440 -4 b 614 0 490 -3 546 0 b 788 -4 682 0 738 -3 l 788 38 l 724 42 b 679 61 700 43 685 49 b 672 142 674 76 672 104 l 672 436 b 843 567 672 493 758 567 b 974 390 933 567 974 483 l 974 -4 b 1085 0 1006 -3 1046 0 b 1207 -4 1124 0 1164 -3 l 1207 38 l 1142 42 b 1097 61 1118 43 1103 49 b 1090 142 1092 76 1090 104 l 1090 428 b 890 651 1090 572 1000 651 b 768 617 835 651 799 643 l 663 522 b 472 651 624 614 553 651 b 350 617 417 651 379 643 l 254 528 l 254 646 l 242 651 b 25 594 190 629 107 603 l 25 556 l 76 556 b 128 540 106 556 119 551 b 138 454 135 529 138 499 z "},"n":{"ha":808,"x_min":0,"x_max":0,"o":"m 239 436 b 410 567 239 493 325 567 b 569 390 504 567 569 506 l 569 -4 b 681 0 601 -3 642 0 b 794 -4 719 0 760 -3 l 794 38 l 738 42 b 693 61 714 43 699 49 b 686 142 688 76 686 104 l 686 410 b 457 651 686 561 619 651 b 344 617 401 651 375 643 l 242 528 l 239 528 l 239 646 l 226 651 b 10 594 175 629 92 603 l 10 556 l 61 556 b 113 540 90 556 104 551 b 122 454 119 529 122 499 l 122 142 b 115 61 122 104 121 76 b 71 42 110 49 94 43 l 8 38 l 8 -4 b 181 0 57 -3 113 0 b 353 -4 249 0 304 -3 l 353 38 l 290 42 b 246 61 267 43 251 49 b 239 142 240 76 239 104 z "},"o":{"ha":758,"x_min":0,"x_max":0,"o":"m 350 -28 b 714 335 563 -28 714 122 b 399 651 714 513 576 651 b 44 297 175 651 44 506 b 340 -28 44 110 169 -28 z m 367 606 b 585 274 500 606 585 453 b 404 18 585 144 531 18 b 174 357 226 18 174 211 b 367 606 174 486 219 606 z "},"p":{"ha":835,"x_min":0,"x_max":0,"o":"m 126 -244 b 119 -325 126 -282 125 -310 b 75 -344 114 -337 99 -343 l 11 -349 l 11 -390 b 185 -386 61 -389 117 -386 b 358 -390 253 -386 308 -389 l 358 -349 l 294 -344 b 250 -325 271 -343 256 -337 b 243 -244 244 -310 243 -282 l 243 18 b 394 -17 288 -11 351 -17 b 490 6 431 -17 467 -10 l 649 108 b 769 368 694 138 769 276 b 488 651 769 539 635 651 b 357 617 428 651 381 638 l 246 515 l 243 515 l 243 646 l 231 651 b 14 594 179 629 96 603 l 14 556 l 65 556 b 117 540 94 556 108 551 b 126 454 124 529 126 499 z m 243 418 b 250 456 243 431 243 443 b 432 561 274 499 329 561 b 649 326 578 561 649 457 b 440 54 649 169 553 54 b 243 136 361 54 296 75 z "},"q":{"ha":778,"x_min":0,"x_max":0,"o":"m 546 -244 b 539 -325 546 -282 544 -310 b 494 -344 533 -337 518 -343 l 414 -349 l 414 -390 b 604 -386 481 -389 536 -386 b 778 -390 672 -386 728 -389 l 778 -349 l 714 -344 b 669 -325 690 -343 675 -337 b 663 -244 664 -310 663 -282 l 663 442 b 694 633 663 499 668 581 l 668 649 l 600 606 b 404 651 539 635 472 651 b 300 628 364 651 322 640 l 183 553 b 49 281 107 504 49 421 b 324 -17 49 143 115 -6 l 333 -17 b 401 0 357 -17 383 -12 l 546 92 z m 546 167 b 385 63 546 133 458 63 b 169 351 222 63 169 213 b 369 586 169 525 281 586 b 546 529 431 586 497 575 z "},"r":{"ha":549,"x_min":0,"x_max":0,"o":"m 144 142 b 138 61 144 104 143 76 b 93 42 132 49 117 43 l 29 38 l 29 -4 b 203 0 79 -3 135 0 b 399 -4 271 0 326 -3 l 399 38 l 326 42 b 268 61 294 43 274 49 b 261 142 263 76 261 104 l 261 381 b 383 533 261 469 322 533 b 478 469 433 533 463 503 l 507 469 l 519 636 b 456 651 508 644 479 651 b 339 594 419 651 372 635 l 264 506 l 261 506 l 261 646 l 249 651 b 32 594 197 629 114 603 l 32 556 l 83 556 b 135 540 113 556 126 551 b 144 454 142 529 144 499 z "},"s":{"ha":589,"x_min":0,"x_max":0,"o":"m 57 199 b 42 6 57 133 56 67 b 236 -28 110 -18 169 -28 b 543 206 390 -28 543 53 b 300 383 543 314 465 356 b 149 493 194 401 149 433 b 285 606 149 540 167 606 b 446 492 364 606 446 564 l 446 460 l 485 460 b 492 617 486 515 488 567 b 313 651 438 636 378 651 b 51 449 182 651 51 599 b 169 297 51 364 103 322 b 374 242 236 272 313 257 b 440 150 417 231 440 194 b 278 24 440 75 365 24 b 99 142 197 24 99 56 l 99 199 z "},"t":{"ha":453,"x_min":0,"x_max":0,"o":"m 136 531 l 136 131 b 272 -17 136 18 199 -17 b 363 0 301 -17 350 -14 l 429 74 l 411 97 b 329 71 392 86 365 71 b 253 167 271 71 253 103 l 253 531 l 431 531 l 443 606 l 253 597 l 253 650 b 268 847 253 708 260 786 l 251 863 b 133 810 228 847 183 825 b 139 700 138 772 139 736 l 139 603 l 31 554 l 31 525 z "},"u":{"ha":838,"x_min":0,"x_max":0,"o":"m 699 646 l 686 651 b 469 594 635 629 551 603 l 469 556 l 521 556 b 572 540 550 556 564 551 b 582 454 579 529 582 499 l 582 228 b 406 68 582 161 496 68 b 254 236 278 68 254 126 l 254 646 l 242 651 b 25 594 190 629 107 603 l 25 556 l 76 556 b 128 540 106 556 119 551 b 138 454 135 529 138 499 l 138 221 b 333 -17 138 108 138 -17 b 489 38 400 -17 450 3 l 582 124 b 576 -4 582 72 579 35 b 693 0 613 -3 653 0 b 807 -4 732 0 772 -3 l 807 38 l 750 42 b 706 61 726 43 711 49 b 699 142 700 76 699 104 z "},"v":{"ha":785,"x_min":0,"x_max":0,"o":"m 628 503 b 706 596 647 544 671 593 l 749 599 l 749 638 b 618 633 706 636 661 633 b 488 638 575 633 531 636 l 488 599 l 544 596 b 578 558 567 594 578 583 b 551 458 578 536 569 503 l 493 311 b 407 117 467 246 436 181 l 242 517 b 229 567 233 538 229 554 b 264 596 229 588 242 594 l 332 599 l 332 638 b 171 633 278 636 225 633 b 8 638 117 633 63 636 l 8 599 l 56 596 b 99 550 82 594 90 569 l 338 -10 l 407 -10 b 464 142 426 38 440 90 z "},"w":{"ha":1158,"x_min":0,"x_max":0,"o":"m 403 257 b 353 144 386 219 371 182 l 236 528 b 231 558 232 540 231 550 b 283 596 231 585 247 593 l 339 599 l 339 638 b 174 633 283 636 229 633 b 8 638 118 633 64 636 l 8 599 l 47 596 b 139 457 82 593 103 574 l 281 -10 l 346 -10 l 482 310 b 554 465 504 361 531 414 l 743 -10 l 807 -10 b 903 258 839 79 865 172 l 997 475 b 1086 596 1032 556 1054 593 l 1122 599 l 1122 638 b 986 633 1076 636 1032 633 b 850 638 940 633 896 636 l 850 599 l 897 596 b 951 549 933 594 951 579 b 942 503 951 536 949 521 l 872 308 b 806 136 851 250 828 193 l 646 539 b 606 651 632 575 618 611 l 574 651 z "},"x":{"ha":717,"x_min":0,"x_max":0,"o":"m 400 353 l 597 583 b 644 599 608 596 625 599 l 664 599 l 664 638 l 550 638 l 378 394 l 272 556 b 189 651 250 590 219 621 l 28 624 l 35 588 l 64 585 b 133 544 92 582 119 564 l 300 303 l 93 58 b 51 38 82 46 65 38 l 28 38 l 28 0 l 147 0 b 231 131 175 43 200 90 l 333 267 l 482 42 b 518 -4 493 25 504 7 b 604 0 546 -3 575 0 b 689 -4 632 0 661 -3 l 689 38 l 654 42 b 606 75 633 44 617 60 z "},"y":{"ha":772,"x_min":0,"x_max":0,"o":"m 413 119 l 253 506 b 240 560 243 529 240 546 b 286 596 240 588 260 594 l 339 599 l 339 638 b 178 633 285 636 232 633 b 17 638 124 633 71 636 l 17 599 l 42 596 b 114 528 72 593 92 581 l 343 -33 l 311 -118 b 160 -300 285 -182 240 -294 l 157 -300 b 89 -268 138 -300 106 -285 l 71 -268 l 38 -372 b 107 -393 53 -382 83 -393 b 318 -222 224 -393 274 -324 l 600 428 b 717 596 653 550 683 593 l 756 599 l 756 638 b 624 633 711 636 668 633 b 492 638 579 633 536 636 l 492 599 l 528 596 b 586 558 565 593 586 583 b 578 525 586 549 583 539 z "},"z":{"ha":694,"x_min":0,"x_max":0,"o":"m 632 600 l 632 642 b 485 638 583 640 533 638 b 96 642 356 638 214 640 b 83 458 96 578 83 486 l 125 458 l 142 553 b 275 589 147 583 175 589 l 474 589 b 383 464 447 547 415 504 l 147 169 b 22 24 107 119 65 72 l 31 -4 b 196 0 86 -3 140 0 b 626 -4 339 0 483 -3 b 647 193 626 61 640 128 l 606 193 l 581 83 b 383 49 574 53 483 49 l 196 49 z "},"{":{"ha":463,"x_min":0,"x_max":0,"o":"m 286 178 b 174 378 286 288 274 351 l 174 381 b 286 568 269 406 286 465 l 286 826 b 401 1008 286 926 311 982 b 186 803 263 1008 186 976 l 186 544 b 81 379 186 454 167 406 b 186 210 172 353 186 310 l 186 -24 b 401 -243 186 -207 244 -243 b 286 -62 314 -224 286 -162 z "},"|":{"ha":842,"x_min":0,"x_max":0,"o":"m 382 1042 l 382 -347 l 460 -347 l 460 1042 z "},"}":{"ha":463,"x_min":0,"x_max":0,"o":"m 176 -62 b 61 -243 176 -162 149 -224 b 276 -24 218 -243 276 -207 l 276 210 b 382 379 276 310 290 353 b 276 544 296 406 276 454 l 276 803 b 61 1008 276 976 200 1008 b 176 826 151 982 176 926 l 176 568 b 289 381 176 465 193 406 l 289 378 b 176 178 189 351 176 288 z "},"~":{"ha":842,"x_min":0,"x_max":0,"o":"m 722 482 b 576 363 696 429 640 363 b 431 413 540 363 486 389 b 268 461 375 436 317 461 b 71 300 169 461 114 376 l 119 244 b 267 372 153 301 192 372 b 388 336 308 372 350 351 b 575 275 435 317 525 275 b 771 426 665 275 732 353 z "},"¡":{"ha":386,"x_min":0,"x_max":0,"o":"m 160 -312 l 264 -260 b 254 -112 261 -211 258 -161 l 218 311 b 215 367 215 329 215 347 l 201 374 l 163 342 l 163 307 l 129 -79 b 113 -278 124 -146 113 -211 l 113 -312 z m 192 490 b 274 571 236 490 274 529 b 192 651 274 613 235 651 b 113 571 150 651 113 613 b 192 490 113 529 149 490 z "},"¢":{"ha":694,"x_min":0,"x_max":0,"o":"m 482 571 b 551 528 508 561 533 549 l 564 436 l 603 436 l 603 454 b 618 617 603 508 608 560 b 507 653 588 636 543 653 l 544 781 l 489 781 l 451 653 b 338 633 425 653 375 651 l 226 578 b 85 296 121 525 85 429 b 256 4 85 172 139 58 l 211 -140 l 268 -140 l 307 -12 b 403 -19 339 -18 371 -19 b 594 28 467 -19 539 -1 l 622 74 l 610 89 b 451 50 558 67 508 50 b 335 81 419 50 375 57 z m 289 117 b 208 351 229 169 208 264 b 376 589 208 514 278 589 b 429 582 393 589 411 586 z "},"£":{"ha":694,"x_min":0,"x_max":0,"o":"m 519 500 b 267 492 436 497 350 494 l 267 615 b 458 899 267 738 301 899 b 519 893 482 899 497 899 b 606 739 592 875 606 831 l 651 739 b 650 782 650 753 650 767 b 664 928 650 833 656 888 b 524 964 622 956 572 964 b 358 918 465 964 408 947 b 175 747 254 857 200 808 b 150 640 163 717 150 682 l 150 493 b 28 497 108 494 69 497 l 17 435 b 150 439 61 436 106 439 l 150 397 b 83 94 150 208 103 104 b 17 50 61 83 36 69 l 17 -18 l 47 -18 l 110 44 b 335 13 179 40 258 31 b 597 -14 414 -7 503 -14 b 653 14 615 -14 633 -3 l 653 219 l 617 219 l 607 147 b 565 96 603 115 597 96 l 561 96 b 275 106 465 100 371 106 b 132 96 226 106 179 103 b 263 440 204 197 258 314 b 514 433 347 439 431 436 z "},"⁄":{"ha":232,"x_min":0,"x_max":0,"o":"m -158 0 l 468 957 l 396 957 l -231 0 z "},"¥":{"ha":694,"x_min":0,"x_max":0,"o":"m 464 531 l 508 625 b 689 943 560 735 628 858 l 689 964 l 592 964 b 485 700 558 875 524 789 l 388 474 l 243 836 b 208 926 231 869 218 910 b 149 974 197 951 176 974 b 135 972 144 974 139 974 l 7 943 l 7 903 b 18 904 11 903 14 904 b 149 753 85 904 122 811 l 253 531 l 99 531 l 99 476 l 278 476 l 307 407 b 315 364 314 394 315 375 l 315 342 l 99 342 l 99 288 l 315 288 l 315 167 b 304 63 315 114 313 78 b 254 42 297 49 283 43 l 197 38 l 197 -4 b 361 0 244 -1 301 0 b 535 -4 417 0 472 -1 l 535 38 l 478 42 b 428 63 449 43 435 49 b 417 167 419 78 417 114 l 417 288 l 633 288 l 633 342 l 417 342 l 417 386 b 440 476 417 419 429 451 l 633 476 l 633 531 z "},"ƒ":{"ha":694,"x_min":0,"x_max":0,"o":"m 432 506 b 578 497 486 504 538 501 b 590 572 581 515 585 546 b 444 567 543 569 493 569 l 482 775 b 557 875 493 838 506 875 b 624 842 594 875 610 850 l 638 853 b 657 981 640 897 646 942 b 429 842 556 978 482 921 b 325 567 376 763 346 661 b 176 572 276 569 226 569 b 163 499 172 544 165 522 b 313 506 213 500 263 503 l 201 -72 b 99 -258 171 -228 149 -258 b 36 -231 74 -258 51 -247 l 21 -240 b 0 -364 17 -283 8 -328 b 332 22 211 -364 297 -149 z "},"§":{"ha":694,"x_min":0,"x_max":0,"o":"m 560 724 b 578 935 561 797 569 879 b 386 985 515 974 450 985 b 71 674 214 985 71 835 b 151 531 71 617 104 563 b 36 340 88 489 36 414 b 285 125 36 207 161 165 b 533 -64 410 85 533 50 b 331 -232 533 -178 435 -232 b 129 -150 236 -232 181 -210 l 122 -25 l 78 -25 b 61 -243 75 -97 69 -167 b 283 -304 119 -279 206 -304 b 621 6 456 -304 621 -143 b 538 154 621 71 599 125 b 646 351 599 203 646 269 b 399 569 646 483 522 531 b 151 742 275 610 151 640 b 339 913 151 851 238 913 b 510 844 407 913 458 892 l 517 724 z m 188 513 b 425 435 260 482 351 464 b 554 294 499 406 554 368 b 507 171 554 254 535 213 b 281 249 457 194 363 218 b 128 388 199 281 128 325 b 188 513 128 442 147 478 z "},"¤":{"ha":694,"x_min":0,"x_max":0,"o":"m 107 738 l 42 672 l 110 604 b 51 433 69 564 51 499 b 110 264 51 368 71 308 l 42 196 l 104 133 l 171 200 b 347 142 214 161 278 142 b 524 200 417 142 481 161 l 590 133 l 653 196 l 585 264 b 643 433 624 308 643 368 b 585 604 643 499 625 564 l 653 672 l 588 738 l 521 671 b 347 728 481 706 413 728 b 174 671 282 728 214 706 z m 347 646 b 561 433 464 646 561 551 b 347 224 561 318 464 224 b 133 433 231 224 133 318 b 347 646 133 551 231 646 z "},"'":{"ha":289,"x_min":0,"x_max":0,"o":"m 158 651 l 204 924 l 204 931 b 144 985 204 957 175 985 b 85 931 114 985 85 957 l 85 924 l 131 651 z "},"“":{"ha":694,"x_min":0,"x_max":0,"o":"m 250 951 b 71 638 175 857 114 750 l 89 619 b 224 661 133 633 178 650 b 332 971 231 769 271 876 l 311 985 z m 542 951 b 363 638 467 857 406 750 l 381 619 b 515 661 425 633 469 650 b 624 971 522 769 563 876 l 603 985 z "},"«":{"ha":694,"x_min":0,"x_max":0,"o":"m 460 344 l 583 521 b 625 576 596 539 610 558 l 593 594 l 486 486 b 349 353 440 440 394 397 l 349 336 l 501 189 b 593 99 533 157 565 128 l 625 119 z m 181 344 l 304 521 b 346 576 317 539 331 558 l 314 594 l 207 486 b 69 353 161 440 115 397 l 69 336 l 222 189 b 314 99 254 157 286 128 l 346 119 z "},"‹":{"ha":460,"x_min":0,"x_max":0,"o":"m 203 344 l 326 521 b 368 576 339 539 353 558 l 336 594 l 229 486 b 92 353 183 440 138 397 l 92 336 l 244 189 b 336 99 276 157 308 128 l 368 119 z "},"›":{"ha":460,"x_min":0,"x_max":0,"o":"m 92 119 l 124 99 b 215 189 151 128 183 157 l 368 336 l 368 353 b 231 486 322 397 276 440 l 124 594 l 92 576 b 133 521 107 558 121 539 l 257 344 z "},"–":{"ha":694,"x_min":0,"x_max":0,"o":"m 694 304 l 694 385 l 0 385 l 0 304 z "},"†":{"ha":694,"x_min":0,"x_max":0,"o":"m 214 639 b 81 647 169 639 125 644 l 54 649 l 47 642 b 51 594 50 626 51 611 b 47 549 51 579 50 564 l 54 542 l 81 543 b 214 551 125 546 169 551 l 296 551 l 296 443 b 286 36 296 307 296 171 l 283 0 l 290 -7 b 347 -1 310 -4 331 -1 b 404 -7 364 -1 385 -4 l 411 0 l 408 36 b 399 443 399 171 399 307 l 399 551 l 481 551 b 614 543 525 551 569 546 l 640 542 l 647 549 b 643 594 644 564 643 579 b 647 642 643 611 644 626 l 640 649 l 614 647 b 481 639 569 644 525 639 l 399 639 l 399 711 b 414 926 399 783 407 854 l 417 957 l 410 964 b 347 960 388 963 367 960 b 285 964 328 960 307 963 l 278 957 l 281 926 b 296 711 288 854 296 783 l 296 639 z "},"‡":{"ha":694,"x_min":0,"x_max":0,"o":"m 192 671 b 54 681 146 671 100 678 l 47 674 b 51 629 50 660 51 644 b 47 581 51 613 50 597 l 54 574 b 192 583 100 576 146 583 l 296 583 b 285 310 296 492 292 401 b 296 35 292 218 296 126 l 192 35 b 54 44 146 35 100 42 l 47 38 b 51 -7 50 24 51 8 b 47 -56 51 -24 50 -39 l 54 -62 b 192 -53 100 -60 146 -53 l 296 -53 l 296 -118 b 281 -312 296 -182 288 -247 l 278 -339 l 285 -346 b 347 -342 307 -344 328 -342 b 410 -346 367 -342 388 -344 l 417 -339 l 414 -312 b 399 -118 407 -247 399 -182 l 399 -53 l 503 -53 b 640 -62 549 -53 594 -60 l 647 -56 b 643 -7 644 -39 643 -24 b 647 38 643 8 644 24 l 640 44 b 503 35 594 42 549 35 l 399 35 b 410 310 399 126 403 218 b 399 583 403 401 399 492 l 503 583 b 640 574 549 583 594 576 l 647 581 b 643 629 644 597 643 613 b 647 674 643 644 644 660 l 640 681 b 503 671 594 678 549 671 l 399 671 l 399 736 b 414 931 399 800 407 865 l 417 957 l 410 964 b 347 960 388 963 367 960 b 285 964 328 960 307 963 l 278 957 l 281 931 b 296 736 288 865 296 800 l 296 671 z "},"·":{"ha":347,"x_min":0,"x_max":0,"o":"m 172 282 b 254 363 217 282 254 321 b 172 443 254 404 215 443 b 93 363 131 443 93 404 b 172 282 93 321 129 282 z "},"¶":{"ha":872,"x_min":0,"x_max":0,"o":"m 389 531 b 208 725 292 547 208 622 b 369 911 208 863 301 911 b 389 910 376 911 383 911 z m 818 964 b 578 957 740 960 660 957 b 335 964 496 957 415 960 l 310 964 b 54 753 136 964 54 864 b 389 479 54 572 254 479 l 389 -37 b 375 -139 389 -86 385 -125 b 315 -162 365 -153 350 -160 l 257 -167 l 257 -208 b 538 -204 319 -207 413 -204 b 818 -208 658 -204 751 -207 l 818 -167 l 760 -162 b 700 -139 725 -160 710 -153 b 686 -37 690 -125 686 -86 l 686 797 b 774 918 686 897 707 911 l 818 922 z m 585 910 l 585 -167 l 490 -167 l 490 910 z "},"•":{"ha":842,"x_min":0,"x_max":0,"o":"m 182 478 b 421 239 182 347 290 239 b 660 478 551 239 660 347 b 421 717 660 608 551 717 b 182 478 290 717 182 608 z "},"‚":{"ha":386,"x_min":0,"x_max":0,"o":"m 274 153 b 139 111 229 139 185 122 b 31 -199 132 3 92 -104 l 51 -212 l 113 -179 b 292 135 188 -85 249 22 z "},"„":{"ha":694,"x_min":0,"x_max":0,"o":"m 314 153 b 179 111 269 139 225 122 b 71 -199 172 3 132 -104 l 92 -212 l 153 -179 b 332 135 228 -85 289 22 z m 606 153 b 471 111 561 139 517 122 b 363 -199 464 3 424 -104 l 383 -212 l 444 -179 b 624 135 519 -85 581 22 z "},"”":{"ha":694,"x_min":0,"x_max":0,"o":"m 153 653 b 332 967 228 747 289 854 l 314 985 b 179 943 269 971 225 954 b 71 633 172 835 132 728 l 92 619 z m 444 653 b 624 967 519 747 581 854 l 606 985 b 471 943 561 971 517 954 b 363 633 464 835 424 728 l 383 619 z "},"»":{"ha":694,"x_min":0,"x_max":0,"o":"m 349 119 l 381 99 b 472 189 408 128 440 157 l 625 336 l 625 353 b 488 486 579 397 533 440 l 381 594 l 349 576 b 390 521 364 558 378 539 l 514 344 z m 69 119 l 101 99 b 193 189 129 128 161 157 l 346 336 l 346 353 b 208 486 300 397 254 440 l 101 594 l 69 576 b 111 521 85 558 99 539 l 235 344 z "},"…":{"ha":1389,"x_min":0,"x_max":0,"o":"m 693 -7 b 775 74 738 -7 775 32 b 693 154 775 115 736 154 b 614 74 651 154 614 115 b 693 -7 614 32 650 -7 z m 231 -7 b 313 74 275 -7 313 32 b 231 154 313 115 274 154 b 151 74 189 154 151 115 b 231 -7 151 32 188 -7 z m 1156 -7 b 1238 74 1200 -7 1238 32 b 1156 154 1238 115 1199 154 b 1076 74 1114 154 1076 115 b 1156 -7 1076 32 1113 -7 z "},"‰":{"ha":1589,"x_min":0,"x_max":0,"o":"m 368 957 b 171 733 250 957 171 858 b 356 528 171 613 250 528 b 556 754 475 528 556 628 b 368 957 556 869 474 957 z m 365 925 b 467 742 451 925 467 815 b 358 560 467 669 443 560 b 260 740 272 560 260 668 b 365 925 260 814 279 925 z m 782 429 b 585 206 664 429 585 331 b 769 0 585 85 664 0 b 969 226 889 0 969 100 b 782 429 969 342 888 429 z m 779 397 b 881 214 865 397 881 288 b 772 32 881 142 857 32 b 674 213 686 32 674 140 b 779 397 674 286 693 397 z m 1231 429 b 1033 206 1113 429 1033 331 b 1218 0 1033 85 1113 0 b 1418 226 1338 0 1418 100 b 1231 429 1418 342 1336 429 z m 1228 397 b 1329 214 1314 397 1329 288 b 1221 32 1329 142 1306 32 b 1122 213 1135 32 1122 140 b 1228 397 1122 286 1142 397 z m 331 -28 l 874 985 l 818 985 l 275 -28 z "},"¿":{"ha":617,"x_min":0,"x_max":0,"o":"m 549 -115 l 508 -104 l 481 -171 b 354 -229 463 -214 414 -229 b 189 -76 258 -229 189 -162 b 296 113 189 -7 242 53 b 403 290 349 171 403 228 b 342 392 403 332 378 371 l 313 372 b 343 304 326 356 343 335 b 201 124 343 243 272 188 b 60 -104 131 60 60 -11 b 322 -321 60 -247 186 -321 b 496 -272 382 -321 444 -299 z m 335 490 b 417 571 379 490 417 529 b 335 651 417 613 378 651 b 256 571 293 651 256 613 b 335 490 256 529 292 490 z "},"`":{"ha":463,"x_min":0,"x_max":0,"o":"m 299 703 l 354 703 l 163 894 b 89 940 142 915 111 940 b 43 892 60 940 43 919 b 99 828 43 860 75 842 z "},"´":{"ha":463,"x_min":0,"x_max":0,"o":"m 108 703 l 164 703 l 364 828 b 419 892 388 842 419 860 b 374 940 419 919 403 940 b 300 894 351 940 321 915 z "},"ˆ":{"ha":463,"x_min":0,"x_max":0,"o":"m 189 940 l 15 708 l 64 708 l 232 851 l 400 708 l 449 708 l 275 940 z "},"˜":{"ha":463,"x_min":0,"x_max":0,"o":"m 421 889 b 343 819 404 847 390 825 l 338 819 b 260 847 313 819 282 838 b 154 882 228 863 192 882 b 3 743 69 882 17 824 l 43 743 b 117 806 56 776 79 806 b 185 785 139 806 167 793 b 314 743 235 763 257 743 b 425 800 365 743 401 769 b 461 889 450 832 461 868 z "},"¯":{"ha":463,"x_min":0,"x_max":0,"o":"m 449 747 l 449 821 l 15 821 l 15 747 z "},"˘":{"ha":463,"x_min":0,"x_max":0,"o":"m 36 922 b 232 703 36 804 104 703 b 428 922 360 703 428 804 l 386 922 b 232 786 386 838 304 786 b 78 922 160 786 78 838 z "},"˙":{"ha":347,"x_min":0,"x_max":0,"o":"m 174 954 b 97 876 133 954 97 917 b 174 800 97 836 133 800 b 251 876 214 800 251 836 b 174 954 251 917 214 954 z "},"¨":{"ha":463,"x_min":0,"x_max":0,"o":"m 93 954 b 17 876 53 954 17 917 b 93 800 17 836 53 800 b 171 876 133 800 171 836 b 93 954 171 917 133 954 z m 369 954 b 293 876 329 954 293 917 b 369 800 293 836 329 800 b 447 876 410 800 447 836 b 369 954 447 917 410 954 z "},"˚":{"ha":463,"x_min":0,"x_max":0,"o":"m 232 917 b 318 828 283 917 318 882 b 232 739 318 774 283 739 b 146 828 181 739 146 774 b 232 917 146 882 181 917 z m 232 967 b 93 831 157 967 93 906 l 93 825 b 232 689 93 750 157 689 b 371 825 307 689 371 750 l 371 831 b 232 967 371 906 307 967 z "},"¸":{"ha":463,"x_min":0,"x_max":0,"o":"m 196 -150 l 206 -158 b 263 -149 225 -153 242 -149 b 318 -199 289 -149 318 -167 b 238 -262 318 -251 285 -262 b 153 -247 211 -262 178 -254 l 133 -290 b 253 -312 183 -306 203 -312 b 422 -196 326 -312 422 -286 b 307 -99 422 -131 368 -99 b 267 -104 293 -99 279 -100 l 301 -14 l 250 -15 z "},"˝":{"ha":528,"x_min":0,"x_max":0,"o":"m 4 703 l 60 703 l 247 839 b 301 906 269 856 301 878 b 256 954 301 933 285 954 b 182 908 233 954 201 931 z m 226 703 l 282 703 l 469 839 b 524 906 492 856 524 878 b 478 954 524 933 507 954 b 404 908 456 954 424 931 z "},"˛":{"ha":435,"x_min":0,"x_max":0,"o":"m 374 -161 b 254 -232 344 -196 296 -232 b 174 -151 183 -232 174 -196 b 253 -28 174 -104 224 -56 l 193 -28 b 69 -185 131 -53 69 -124 b 215 -312 69 -258 114 -312 b 400 -203 286 -312 346 -261 z "},"ˇ":{"ha":463,"x_min":0,"x_max":0,"o":"m 232 797 l 64 940 l 15 940 l 189 708 l 275 708 l 449 940 l 401 940 z "},"—":{"ha":1389,"x_min":0,"x_max":0,"o":"m 1389 304 l 1389 385 l 0 385 l 0 304 z "},"Æ":{"ha":1311,"x_min":0,"x_max":0,"o":"m 625 910 l 642 910 l 642 393 l 336 393 z m 106 121 b 33 44 89 92 60 49 l -14 38 l -14 -4 b 160 0 54 -3 106 0 b 299 -4 213 0 264 -3 l 299 38 l 249 42 b 175 81 208 44 175 58 b 214 178 175 111 189 133 l 303 336 b 472 340 360 338 415 340 b 642 336 529 340 585 338 l 642 167 b 606 50 642 103 636 68 l 567 28 l 567 -4 b 663 0 599 -3 631 0 b 806 -1 706 0 754 0 b 965 -4 858 -3 913 -3 l 1008 -4 b 1239 0 1097 -4 1186 -1 b 1261 228 1239 75 1247 161 l 1213 228 b 1164 72 1203 144 1185 83 b 883 54 1139 58 997 54 b 767 65 846 54 806 56 l 767 454 b 928 458 810 458 861 458 b 1075 442 1013 458 1060 453 b 1086 407 1082 438 1085 425 l 1093 325 l 1135 325 b 1131 479 1133 375 1131 428 b 1135 640 1131 531 1133 583 l 1093 640 l 1086 568 b 1075 532 1085 550 1082 538 b 928 517 1060 522 1013 517 b 767 521 861 517 811 518 l 767 892 b 883 903 806 901 846 903 b 1156 874 972 903 1082 901 b 1168 836 1167 869 1168 854 l 1168 746 l 1217 746 b 1239 957 1217 817 1224 896 b 1060 961 1185 960 1122 961 b 732 957 981 961 853 957 b 613 958 701 957 664 958 b 397 961 560 960 492 961 l 397 919 l 458 915 b 533 900 497 913 533 908 b 507 832 533 879 518 853 z "},"ª":{"ha":463,"x_min":0,"x_max":0,"o":"m 208 819 b 33 685 125 804 33 781 b 143 586 33 617 82 586 b 185 590 160 586 178 586 l 297 663 l 293 592 b 363 594 317 592 339 594 b 431 592 385 594 407 592 l 431 615 l 403 617 b 374 629 388 618 378 621 b 369 678 369 638 369 660 l 369 819 b 372 853 371 832 372 843 b 222 985 372 939 322 985 b 118 957 193 985 157 979 l 69 929 l 69 875 l 93 869 l 106 896 b 121 924 111 907 115 917 b 183 940 132 938 144 940 b 297 838 261 940 297 900 l 297 833 z m 297 697 b 268 669 293 692 283 679 b 182 633 238 650 210 633 b 111 700 146 633 111 657 b 165 778 111 731 133 767 b 297 807 211 794 251 801 z "},"Ł":{"ha":849,"x_min":0,"x_max":0,"o":"m 168 458 l 8 361 l 31 317 l 168 400 l 168 132 b 133 50 168 94 157 63 l 90 28 l 90 -4 b 208 0 126 -3 161 0 b 511 -4 294 0 386 -3 l 554 -4 b 785 0 643 -4 732 -1 b 814 239 796 69 806 163 l 769 239 l 753 169 b 724 81 746 140 738 93 b 417 54 700 58 531 54 b 300 65 379 54 339 56 l 300 481 l 514 611 l 492 656 l 300 539 l 300 790 b 313 894 300 843 303 879 b 371 915 321 908 338 914 l 438 919 l 438 961 b 236 957 365 958 300 957 b 31 961 168 957 103 958 l 31 919 l 97 915 b 156 894 131 914 147 908 b 168 790 165 879 168 843 z "},"Ø":{"ha":1157,"x_min":0,"x_max":0,"o":"m 214 93 b 556 -28 313 1 436 -28 b 1093 510 860 -28 1093 211 b 985 828 1093 642 1054 749 l 1107 943 l 1063 985 l 943 869 b 585 985 853 946 729 985 b 63 483 263 985 63 767 b 172 138 63 343 99 224 l 42 15 l 88 -25 z m 890 738 b 944 467 933 656 944 556 b 600 31 944 211 832 31 b 304 182 465 31 368 90 z m 272 232 b 211 529 226 318 211 424 b 563 926 211 757 321 926 b 856 792 672 926 788 881 z "},"Œ":{"ha":1386,"x_min":0,"x_max":0,"o":"m 31 474 b 539 -28 31 161 250 -28 b 678 -19 585 -28 633 -25 b 965 -3 757 -10 849 -3 b 1040 -4 989 -3 1014 -4 l 1083 -4 b 1314 0 1172 -4 1261 -1 b 1336 228 1314 75 1322 161 l 1288 228 b 1239 72 1278 144 1260 83 b 969 54 1214 58 1072 54 b 853 65 932 54 892 56 l 853 454 b 1003 458 896 458 947 458 b 1150 442 1088 458 1135 453 b 1161 407 1157 438 1160 425 l 1168 325 l 1210 325 b 1206 479 1208 375 1206 428 b 1210 640 1206 531 1208 583 l 1168 640 l 1161 568 b 1150 532 1160 550 1157 538 b 1003 517 1135 522 1088 517 b 853 521 947 517 897 518 l 853 892 b 969 903 892 901 932 903 b 1231 874 1047 903 1157 901 b 1243 836 1242 869 1243 854 l 1243 746 l 1292 746 b 1314 957 1292 817 1299 896 b 1135 961 1260 960 1197 961 b 807 957 1056 961 928 957 b 714 969 775 957 747 967 b 547 985 658 975 603 985 b 31 474 246 985 31 779 z m 721 193 b 714 78 721 144 719 113 b 544 33 690 57 593 33 b 169 518 297 33 169 256 b 533 924 169 778 308 924 b 714 863 592 924 671 907 b 721 747 719 828 721 796 z "},"º":{"ha":463,"x_min":0,"x_max":0,"o":"m 244 985 b 14 772 99 985 14 897 b 213 578 14 657 99 578 b 449 794 350 578 449 667 b 244 985 449 901 360 985 z m 224 957 b 365 758 310 957 365 865 b 242 606 365 681 322 606 b 97 808 132 606 97 721 b 224 957 97 886 128 957 z "},"æ":{"ha":1053,"x_min":0,"x_max":0,"o":"m 96 554 l 96 468 l 132 460 b 163 535 140 490 153 518 b 285 578 178 561 256 578 b 450 368 413 578 449 481 l 372 360 b 193 325 292 351 226 335 b 42 140 99 297 42 267 b 225 -28 42 31 133 -28 b 307 -10 253 -28 290 -24 l 478 124 b 753 -28 533 19 633 -28 b 978 50 850 -28 968 33 l 1006 97 l 986 111 b 811 46 929 75 878 46 b 560 319 640 46 560 157 l 763 319 b 1014 339 846 319 931 325 b 1017 397 1017 358 1017 378 b 753 651 1017 554 904 651 b 533 553 664 651 599 608 b 333 651 486 621 415 651 b 232 628 275 651 250 638 z m 450 163 b 285 63 403 103 347 63 b 161 171 200 63 161 103 b 196 263 161 200 174 242 b 450 324 274 306 364 314 z m 760 606 b 901 389 833 606 901 510 l 901 371 b 740 367 850 368 796 367 b 563 375 682 367 622 368 b 760 606 563 526 635 606 z "},"ı":{"ha":399,"x_min":0,"x_max":0,"o":"m 261 646 l 249 651 b 32 594 197 629 114 603 l 32 556 l 83 556 b 135 540 113 556 126 551 b 144 454 142 529 144 499 l 144 142 b 138 61 144 104 143 76 b 93 42 132 49 117 43 l 29 38 l 29 -4 b 203 0 79 -3 135 0 b 376 -4 271 0 326 -3 l 376 38 l 313 42 b 268 61 289 43 274 49 b 261 142 263 76 261 104 z "},"ł":{"ha":404,"x_min":0,"x_max":0,"o":"m 144 542 l -19 442 l 3 397 l 144 483 l 144 142 b 138 61 144 104 143 76 b 93 42 132 49 117 43 l 29 38 l 29 -4 b 203 0 79 -3 135 0 b 376 -4 271 0 326 -3 l 376 38 l 313 42 b 268 61 289 43 274 49 b 261 142 263 76 261 104 l 261 556 l 425 656 l 404 700 l 261 613 l 261 997 l 249 1008 b 32 957 179 981 106 968 l 32 918 l 110 918 b 144 861 140 918 144 893 z "},"ø":{"ha":772,"x_min":0,"x_max":0,"o":"m 22 0 l 61 -32 l 147 51 b 357 -28 208 -6 278 -28 b 721 335 569 -28 721 122 b 649 539 721 413 694 482 l 736 624 l 699 658 l 613 575 b 406 651 557 624 485 651 b 51 297 189 651 51 503 b 115 89 51 224 72 149 z m 561 454 b 592 274 581 399 592 332 b 411 18 592 142 531 18 b 231 132 324 18 267 67 z m 208 181 b 181 357 189 238 181 300 b 374 606 181 486 226 606 b 539 503 442 606 506 561 z "},"œ":{"ha":1149,"x_min":0,"x_max":0,"o":"m 857 319 b 1108 339 940 319 1025 325 b 1111 397 1111 358 1111 378 b 847 651 1111 554 999 651 b 618 546 765 651 700 622 b 376 651 550 618 475 651 b 44 326 197 651 44 531 b 363 -28 44 100 186 -28 b 604 93 451 -28 533 13 b 847 -28 672 14 744 -28 b 1072 50 944 -28 1063 33 l 1100 97 l 1081 111 b 906 46 1024 75 972 46 b 654 319 735 46 654 157 z m 349 606 b 560 281 519 606 560 417 b 385 18 560 139 514 18 b 174 371 253 18 174 169 b 349 606 174 511 228 606 z m 854 606 b 996 389 928 606 996 510 l 996 371 b 835 367 944 368 890 367 b 657 375 776 367 717 368 b 854 606 657 526 729 606 z "},"ß":{"ha":772,"x_min":0,"x_max":0,"o":"m 250 647 b 431 953 250 900 319 953 b 611 751 553 953 611 864 b 596 640 611 714 603 676 b 453 592 558 640 492 633 l 399 532 b 372 451 378 510 372 479 b 501 308 372 374 438 342 b 631 147 567 275 631 238 b 525 47 631 92 578 47 b 419 92 478 47 454 60 l 419 156 l 382 156 l 353 38 l 314 38 b 250 149 272 38 250 58 z m 133 142 b 126 61 133 104 132 76 b 82 42 121 49 106 43 l 32 38 l 32 -4 b 190 0 85 -3 136 0 b 349 -4 244 0 296 -3 l 350 15 b 485 -12 397 -7 442 -12 b 589 25 517 -12 553 -1 l 669 86 b 721 224 707 115 721 189 b 608 385 721 306 667 350 b 456 517 561 413 456 450 b 524 575 456 544 479 575 b 628 543 567 575 590 565 b 689 803 661 624 689 732 b 471 1015 689 938 608 1015 b 297 956 424 1015 343 988 b 197 858 261 931 225 900 b 133 694 172 821 133 772 l 133 603 l 38 554 l 38 535 l 133 535 z "},"¬":{"ha":842,"x_min":0,"x_max":0,"o":"m 688 167 l 765 167 l 765 536 l 71 536 l 71 458 l 688 458 z "},"µ":{"ha":797,"x_min":0,"x_max":0,"o":"m 781 35 l 781 74 b 728 71 756 72 739 71 b 676 93 699 71 682 78 b 669 258 671 111 669 167 l 669 364 b 674 644 669 417 671 511 l 657 653 b 449 594 592 624 519 604 l 449 556 l 464 556 b 553 467 547 556 553 543 l 553 229 b 389 65 553 140 478 65 b 250 242 296 65 250 119 l 250 411 l 254 644 l 240 653 b 26 594 176 622 99 604 l 26 556 l 42 556 b 133 453 126 556 133 546 l 133 243 b 83 -203 133 101 119 -62 b 71 -257 81 -214 71 -247 l 71 -260 b 121 -300 71 -271 74 -300 b 188 -217 168 -300 188 -261 b 182 74 188 -172 183 -54 b 332 -19 199 18 257 -19 b 468 31 388 -19 425 -7 l 553 104 l 551 -17 l 568 -21 b 781 35 640 6 711 24 z "},"™":{"ha":1360,"x_min":0,"x_max":0,"o":"m 525 957 l 56 957 l 56 824 l 88 824 b 194 924 88 906 114 924 l 251 924 l 251 472 b 236 432 251 457 250 439 b 164 424 219 424 188 424 l 164 396 l 417 396 l 417 424 b 344 432 393 424 361 424 b 329 472 331 439 329 457 l 329 924 l 386 924 b 493 824 467 924 493 906 l 525 824 z m 782 957 l 631 957 l 631 932 l 650 932 b 686 881 672 932 686 928 l 686 469 b 619 424 686 433 669 428 l 619 396 l 788 396 l 788 424 b 721 469 738 428 721 433 l 721 901 l 722 901 l 933 396 l 944 396 l 1153 901 l 1156 901 l 1156 488 b 1100 424 1156 442 1151 424 l 1085 424 l 1085 396 l 1304 396 l 1304 424 l 1289 424 b 1233 488 1238 424 1233 442 l 1233 904 b 1271 932 1233 928 1251 932 l 1300 932 l 1300 957 l 1144 957 l 961 529 z "},"Ð":{"ha":1075,"x_min":0,"x_max":0,"o":"m 157 132 b 122 50 157 94 146 63 l 79 28 l 79 -4 b 268 0 144 -3 206 0 b 472 -4 331 0 392 -3 l 490 -4 b 744 44 621 -4 690 25 b 1043 538 919 108 1043 325 b 564 961 1043 801 839 961 l 546 961 b 304 957 485 960 396 957 b 31 961 213 957 124 960 l 31 919 l 86 915 b 144 894 119 913 136 908 b 157 790 154 879 157 843 l 157 531 l 19 531 l 19 481 l 157 481 z m 289 894 b 447 906 328 904 400 906 b 894 499 697 906 894 843 b 663 92 894 311 826 168 b 447 57 597 61 517 57 b 289 68 400 57 328 58 l 289 481 l 544 481 l 544 531 l 289 531 z "},"½":{"ha":1042,"x_min":0,"x_max":0,"o":"m 242 0 l 868 957 l 796 957 l 169 0 z m 158 526 b 99 415 158 432 149 415 l 49 415 l 49 379 b 196 383 119 381 158 383 b 351 379 233 383 272 381 l 351 415 l 306 415 b 247 526 256 415 247 432 l 247 674 b 258 957 247 797 256 918 l 244 961 b 21 881 164 933 89 904 l 26 836 l 36 836 l 149 883 l 151 883 b 158 857 158 883 158 869 z m 881 225 b 986 418 950 292 986 349 b 793 574 986 500 925 574 b 640 515 735 574 679 557 b 624 392 635 478 631 439 l 657 392 l 675 440 b 776 506 693 489 725 506 b 892 392 851 506 892 460 b 753 168 892 336 874 285 l 603 24 l 603 -4 b 806 0 671 -3 738 0 b 1021 -4 875 0 942 -3 b 1019 35 1019 8 1019 21 b 1021 81 1019 49 1019 64 b 890 74 986 76 936 74 l 721 74 z "},"±":{"ha":842,"x_min":0,"x_max":0,"o":"m 382 471 l 71 471 l 71 393 l 382 393 l 382 157 l 460 157 l 460 393 l 771 393 l 771 471 l 460 471 l 460 711 l 382 711 z m 771 0 l 771 78 l 71 78 l 71 0 z "},"Þ":{"ha":839,"x_min":0,"x_max":0,"o":"m 314 682 b 431 693 353 692 393 693 b 658 492 571 693 658 636 b 485 292 658 374 571 292 b 396 304 450 292 417 299 l 411 253 b 501 244 431 247 464 244 b 797 539 647 244 797 365 b 519 751 797 692 651 751 l 510 751 b 385 750 465 750 422 750 b 314 753 354 750 329 750 l 314 790 b 326 894 314 843 317 879 b 385 915 335 908 351 914 l 451 919 l 451 961 b 250 957 379 958 314 957 b 44 961 182 957 117 958 l 44 919 l 111 915 b 169 894 144 914 161 908 b 182 790 179 879 182 843 l 182 167 b 169 63 182 114 179 78 b 111 42 161 49 144 43 l 44 38 l 44 -4 b 250 0 117 -1 182 0 b 451 -4 314 0 379 -1 l 451 38 l 385 42 b 326 63 351 43 335 49 b 314 167 317 78 314 114 z "},"¼":{"ha":1042,"x_min":0,"x_max":0,"o":"m 826 149 l 826 99 b 744 31 826 42 799 31 l 715 31 l 715 -4 b 864 0 779 -1 821 0 b 1003 -4 907 0 949 -1 l 1003 31 l 974 31 b 913 99 943 31 913 42 l 913 149 b 1010 144 947 149 982 149 l 1010 215 b 938 213 985 214 961 213 l 910 213 l 910 319 b 917 574 910 447 915 549 l 904 578 l 836 556 l 617 239 b 579 169 603 217 592 193 l 586 149 z m 826 213 l 647 213 l 824 475 l 826 475 z m 289 0 l 915 957 l 843 957 l 217 0 z m 179 526 b 119 415 179 432 169 415 l 69 415 l 69 379 b 217 383 140 381 179 383 b 372 379 254 383 293 381 l 372 415 l 326 415 b 268 526 276 415 268 432 l 268 674 b 279 957 268 797 276 918 l 265 961 b 42 881 185 933 110 904 l 47 836 l 57 836 l 169 883 l 172 883 b 179 857 179 883 179 869 z "},"÷":{"ha":842,"x_min":0,"x_max":0,"o":"m 71 324 l 771 324 l 771 401 l 71 401 z m 421 550 b 503 631 465 550 503 586 b 421 711 503 674 464 711 b 342 631 379 711 342 672 b 421 550 342 589 378 550 z m 421 14 b 503 94 465 14 503 50 b 421 175 503 138 464 175 b 342 94 379 175 342 136 b 421 14 342 53 378 14 z "},"¦":{"ha":842,"x_min":0,"x_max":0,"o":"m 382 938 l 382 451 l 460 451 l 460 938 z m 382 243 l 382 -243 l 460 -243 l 460 243 z "},"°":{"ha":556,"x_min":0,"x_max":0,"o":"m 486 749 b 278 957 486 863 392 957 b 69 751 164 957 69 864 l 69 749 b 278 540 69 633 163 540 b 486 749 392 540 486 633 z m 431 749 b 278 596 431 664 361 596 b 125 749 193 596 125 664 l 125 751 b 276 901 125 833 194 901 b 431 749 361 901 431 832 z "},"þ":{"ha":835,"x_min":0,"x_max":0,"o":"m 229 418 b 236 456 229 431 229 443 b 418 561 260 499 315 561 b 635 326 564 561 635 457 b 426 54 635 144 539 54 b 229 136 347 54 282 75 z m 113 -244 b 106 -325 113 -282 111 -310 b 61 -344 100 -337 85 -343 l -3 -349 l -3 -390 b 171 -386 47 -389 103 -386 b 344 -390 239 -386 294 -389 l 344 -349 l 281 -344 b 236 -325 257 -343 242 -337 b 229 -244 231 -310 229 -282 l 229 18 b 381 -17 276 -3 338 -17 b 507 14 417 -17 465 -17 l 646 114 b 756 368 707 158 756 276 b 474 651 756 539 621 651 b 306 590 414 651 342 628 l 232 515 l 229 515 l 229 997 l 217 1008 b 0 957 147 981 74 968 l 0 918 l 78 918 b 113 861 108 918 113 893 z "},"¾":{"ha":1042,"x_min":0,"x_max":0,"o":"m 57 803 l 92 803 b 213 893 101 854 147 893 b 313 806 269 893 313 853 b 201 700 313 756 267 700 b 157 701 188 700 175 701 l 143 642 l 157 636 b 231 654 176 650 200 654 b 343 542 303 654 343 614 b 218 414 343 469 292 414 b 64 533 142 414 90 443 l 21 522 b 57 392 38 468 54 426 b 179 369 99 379 149 369 b 435 568 314 369 435 453 b 296 696 435 646 385 685 b 396 831 350 732 396 779 b 229 957 396 908 331 957 b 83 901 171 957 122 942 z m 301 0 l 928 957 l 856 957 l 229 0 z m 838 213 l 658 213 l 835 475 l 838 475 z m 838 149 l 838 99 b 756 31 838 42 810 31 l 726 31 l 726 -4 b 875 0 790 -1 832 0 b 1014 -4 918 0 960 -1 l 1014 31 l 985 31 b 924 99 954 31 924 42 l 924 149 b 1021 144 958 149 993 149 l 1021 215 b 949 213 996 214 972 213 l 921 213 l 921 319 b 928 574 921 447 926 549 l 915 578 l 847 556 l 628 239 b 590 169 614 217 603 193 l 597 149 z "},"®":{"ha":1038,"x_min":0,"x_max":0,"o":"m 515 981 b 15 476 240 981 15 753 b 517 -25 15 201 242 -25 b 1022 478 794 -25 1022 200 b 515 981 1022 757 794 981 z m 515 919 b 961 478 760 919 961 724 b 517 36 961 233 760 36 b 76 476 275 36 76 235 b 515 919 76 719 274 919 z m 285 769 l 285 746 l 308 744 b 353 704 333 743 353 740 l 353 283 b 308 240 353 246 343 240 l 286 240 l 286 218 l 497 218 l 497 240 l 468 242 b 429 293 432 243 429 258 l 429 472 l 478 472 b 543 453 501 472 525 471 b 600 340 567 429 588 371 b 658 235 611 313 633 254 b 725 218 678 219 703 218 l 782 218 l 782 240 b 728 258 757 240 742 244 b 683 342 711 275 693 318 b 563 485 663 393 625 478 l 563 488 b 717 632 642 497 717 543 b 501 769 717 757 597 769 z m 429 683 l 429 694 b 468 743 429 722 432 743 l 508 743 b 639 625 586 743 639 706 b 467 500 639 519 554 500 l 429 500 z "},"−":{"ha":842,"x_min":0,"x_max":0,"o":"m 771 324 l 771 401 l 71 401 l 71 324 z "},"ð":{"ha":758,"x_min":0,"x_max":0,"o":"m 382 18 b 174 354 226 18 174 208 b 367 606 174 483 219 606 b 578 350 453 606 578 542 b 382 18 578 144 500 18 z m 172 764 l 197 722 l 392 817 b 528 619 442 772 492 700 l 525 617 b 385 651 497 633 433 651 b 44 297 175 651 44 506 b 344 -28 44 110 169 -28 l 356 -28 b 700 367 589 -21 700 158 b 465 853 700 575 588 736 l 647 942 l 622 983 l 424 886 b 239 1011 379 925 324 961 l 192 967 b 361 856 247 939 314 900 z "},"×":{"ha":842,"x_min":0,"x_max":0,"o":"m 365 354 l 115 104 l 172 50 l 421 299 l 669 50 l 726 104 l 475 354 l 726 604 l 669 658 l 421 410 l 172 658 l 115 604 z "},"©":{"ha":1038,"x_min":0,"x_max":0,"o":"m 515 981 b 15 476 240 981 15 753 b 517 -25 15 201 242 -25 b 1022 478 794 -25 1022 200 b 515 981 1022 757 794 981 z m 515 919 b 961 478 760 919 961 724 b 517 36 961 233 760 36 b 76 476 275 36 76 235 b 515 919 76 719 274 919 z m 732 725 b 536 761 671 746 601 761 b 247 472 361 761 247 644 b 519 188 247 310 354 188 b 746 325 613 188 711 236 l 717 338 b 546 231 685 269 622 231 b 342 485 411 231 342 365 b 546 725 342 611 408 725 b 696 576 643 725 694 669 l 732 576 z "},"Á":{"ha":1081,"x_min":0,"x_max":0,"o":"m 567 972 l 522 972 b 394 672 485 872 438 769 l 147 110 b 72 42 132 74 106 44 l 21 38 l 21 -4 b 181 0 74 -3 126 0 b 340 -4 221 0 274 -3 l 340 38 l 289 42 b 222 81 246 46 222 51 b 271 225 222 103 258 196 l 310 318 l 710 318 l 774 158 b 803 69 788 125 803 89 b 746 42 803 53 775 43 l 681 38 l 681 -4 b 865 0 756 -3 817 0 b 1050 -4 928 0 989 -3 l 1050 38 l 1003 42 b 947 89 978 44 963 63 b 903 183 931 118 915 156 z m 333 374 l 510 788 l 685 374 z m 426 1024 l 482 1024 l 682 1149 b 738 1213 706 1163 738 1181 b 692 1261 738 1240 721 1261 b 618 1215 669 1261 639 1236 z "},"Â":{"ha":1081,"x_min":0,"x_max":0,"o":"m 567 972 l 522 972 b 394 672 485 872 438 769 l 147 110 b 72 42 132 74 106 44 l 21 38 l 21 -4 b 181 0 74 -3 126 0 b 340 -4 221 0 274 -3 l 340 38 l 289 42 b 222 81 246 46 222 51 b 271 225 222 103 258 196 l 310 318 l 710 318 l 774 158 b 803 69 788 125 803 89 b 746 42 803 53 775 43 l 681 38 l 681 -4 b 865 0 756 -3 817 0 b 1050 -4 928 0 989 -3 l 1050 38 l 1003 42 b 947 89 978 44 963 63 b 903 183 931 118 915 156 z m 333 374 l 510 788 l 685 374 z m 499 1261 l 325 1029 l 374 1029 l 542 1172 l 710 1029 l 758 1029 l 585 1261 z "},"Ä":{"ha":1081,"x_min":0,"x_max":0,"o":"m 567 972 l 522 972 b 394 672 485 872 438 769 l 147 110 b 72 42 132 74 106 44 l 21 38 l 21 -4 b 181 0 74 -3 126 0 b 340 -4 221 0 274 -3 l 340 38 l 289 42 b 222 81 246 46 222 51 b 271 225 222 103 258 196 l 310 318 l 710 318 l 774 158 b 803 69 788 125 803 89 b 746 42 803 53 775 43 l 681 38 l 681 -4 b 865 0 756 -3 817 0 b 1050 -4 928 0 989 -3 l 1050 38 l 1003 42 b 947 89 978 44 963 63 b 903 183 931 118 915 156 z m 333 374 l 510 788 l 685 374 z m 403 1206 b 326 1128 363 1206 326 1168 b 403 1051 326 1088 363 1051 b 481 1128 443 1051 481 1088 b 403 1206 481 1168 443 1206 z m 679 1206 b 603 1128 639 1206 603 1168 b 679 1051 603 1088 639 1051 b 757 1128 719 1051 757 1088 b 679 1206 757 1168 719 1206 z "},"À":{"ha":1081,"x_min":0,"x_max":0,"o":"m 567 972 l 522 972 b 394 672 485 872 438 769 l 147 110 b 72 42 132 74 106 44 l 21 38 l 21 -4 b 181 0 74 -3 126 0 b 340 -4 221 0 274 -3 l 340 38 l 289 42 b 222 81 246 46 222 51 b 271 225 222 103 258 196 l 310 318 l 710 318 l 774 158 b 803 69 788 125 803 89 b 746 42 803 53 775 43 l 681 38 l 681 -4 b 865 0 756 -3 817 0 b 1050 -4 928 0 989 -3 l 1050 38 l 1003 42 b 947 89 978 44 963 63 b 903 183 931 118 915 156 z m 333 374 l 510 788 l 685 374 z m 597 1024 l 653 1024 l 461 1215 b 388 1261 440 1236 410 1261 b 342 1213 358 1261 342 1240 b 397 1149 342 1181 374 1163 z "},"Å":{"ha":1081,"x_min":0,"x_max":0,"o":"m 567 972 l 522 972 b 394 672 485 872 438 769 l 147 110 b 72 42 132 74 106 44 l 21 38 l 21 -4 b 181 0 74 -3 126 0 b 340 -4 221 0 274 -3 l 340 38 l 289 42 b 222 81 246 46 222 51 b 271 225 222 103 258 196 l 310 318 l 710 318 l 774 158 b 803 69 788 125 803 89 b 746 42 803 53 775 43 l 681 38 l 681 -4 b 865 0 756 -3 817 0 b 1050 -4 928 0 989 -3 l 1050 38 l 1003 42 b 947 89 978 44 963 63 b 903 183 931 118 915 156 z m 333 374 l 510 788 l 685 374 z m 542 1238 b 628 1149 593 1238 628 1203 b 542 1060 628 1094 593 1060 b 456 1149 490 1060 456 1094 b 542 1238 456 1203 490 1238 z m 542 1288 b 403 1151 467 1288 403 1226 l 403 1146 b 542 1010 403 1071 467 1010 b 681 1146 617 1010 681 1071 l 681 1151 b 542 1288 681 1226 617 1288 z "},"Ã":{"ha":1081,"x_min":0,"x_max":0,"o":"m 567 972 l 522 972 b 394 672 485 872 438 769 l 147 110 b 72 42 132 74 106 44 l 21 38 l 21 -4 b 181 0 74 -3 126 0 b 340 -4 221 0 274 -3 l 340 38 l 289 42 b 222 81 246 46 222 51 b 271 225 222 103 258 196 l 310 318 l 710 318 l 774 158 b 803 69 788 125 803 89 b 746 42 803 53 775 43 l 681 38 l 681 -4 b 865 0 756 -3 817 0 b 1050 -4 928 0 989 -3 l 1050 38 l 1003 42 b 947 89 978 44 963 63 b 903 183 931 118 915 156 z m 333 374 l 510 788 l 685 374 z m 731 1210 b 653 1140 714 1168 700 1146 l 647 1140 b 569 1168 622 1140 592 1158 b 464 1203 538 1183 501 1203 b 313 1064 379 1203 326 1144 l 353 1064 b 426 1126 365 1097 389 1126 b 494 1106 449 1126 476 1114 b 624 1064 544 1083 567 1064 b 735 1121 675 1064 711 1090 b 771 1210 760 1153 771 1189 z "},"Ç":{"ha":985,"x_min":0,"x_max":0,"o":"m 601 985 b 200 851 446 985 304 938 b 31 478 93 764 31 638 b 560 -26 31 172 242 -15 l 507 -150 l 517 -158 b 574 -149 536 -153 553 -149 b 629 -199 600 -149 629 -167 b 549 -262 629 -251 596 -262 b 464 -247 522 -262 489 -254 l 444 -290 b 564 -312 494 -306 514 -312 b 733 -196 638 -312 733 -286 b 618 -99 733 -131 679 -99 b 578 -104 604 -99 590 -100 l 608 -26 b 892 47 692 -24 817 1 l 931 117 l 918 131 b 636 47 854 83 736 47 b 179 500 361 47 179 225 b 578 926 179 736 317 926 b 733 903 629 926 689 918 b 853 817 797 879 853 856 l 853 717 l 896 717 b 922 928 896 789 908 863 b 601 985 856 951 731 985 z "},"É":{"ha":849,"x_min":0,"x_max":0,"o":"m 168 167 b 156 63 168 114 165 78 b 97 42 147 49 131 44 l 47 38 l 47 -4 b 196 0 97 -3 143 0 b 499 -4 282 0 392 -3 l 542 -4 b 772 0 631 -4 719 -1 b 794 228 772 75 781 161 l 746 228 b 697 72 736 144 718 83 b 417 54 672 58 531 54 b 300 65 379 54 339 56 l 300 454 b 461 458 343 458 394 458 b 608 442 546 458 593 453 b 619 407 615 438 618 425 l 626 325 l 668 325 b 664 479 667 375 664 428 b 668 640 664 531 667 583 l 626 640 l 619 568 b 608 532 618 550 615 538 b 461 517 593 522 546 517 b 300 521 394 517 344 518 l 300 892 b 417 903 339 901 379 903 b 689 874 506 903 615 901 b 701 836 700 869 701 854 l 701 746 l 750 746 b 772 957 750 817 757 896 b 593 961 718 960 656 961 b 265 957 514 961 386 957 b 147 958 226 957 186 958 b 31 961 108 960 69 961 l 31 919 l 97 915 b 156 894 131 914 147 908 b 168 790 165 879 168 843 z m 301 1024 l 357 1024 l 557 1149 b 613 1213 581 1163 613 1181 b 567 1261 613 1240 596 1261 b 493 1215 544 1261 514 1236 z "},"Ê":{"ha":849,"x_min":0,"x_max":0,"o":"m 168 167 b 156 63 168 114 165 78 b 97 42 147 49 131 44 l 47 38 l 47 -4 b 196 0 97 -3 143 0 b 499 -4 282 0 392 -3 l 542 -4 b 772 0 631 -4 719 -1 b 794 228 772 75 781 161 l 746 228 b 697 72 736 144 718 83 b 417 54 672 58 531 54 b 300 65 379 54 339 56 l 300 454 b 461 458 343 458 394 458 b 608 442 546 458 593 453 b 619 407 615 438 618 425 l 626 325 l 668 325 b 664 479 667 375 664 428 b 668 640 664 531 667 583 l 626 640 l 619 568 b 608 532 618 550 615 538 b 461 517 593 522 546 517 b 300 521 394 517 344 518 l 300 892 b 417 903 339 901 379 903 b 689 874 506 903 615 901 b 701 836 700 869 701 854 l 701 746 l 750 746 b 772 957 750 817 757 896 b 593 961 718 960 656 961 b 265 957 514 961 386 957 b 147 958 226 957 186 958 b 31 961 108 960 69 961 l 31 919 l 97 915 b 156 894 131 914 147 908 b 168 790 165 879 168 843 z m 382 1261 l 208 1029 l 257 1029 l 425 1172 l 593 1029 l 642 1029 l 468 1261 z "},"Ë":{"ha":849,"x_min":0,"x_max":0,"o":"m 168 167 b 156 63 168 114 165 78 b 97 42 147 49 131 44 l 47 38 l 47 -4 b 196 0 97 -3 143 0 b 499 -4 282 0 392 -3 l 542 -4 b 772 0 631 -4 719 -1 b 794 228 772 75 781 161 l 746 228 b 697 72 736 144 718 83 b 417 54 672 58 531 54 b 300 65 379 54 339 56 l 300 454 b 461 458 343 458 394 458 b 608 442 546 458 593 453 b 619 407 615 438 618 425 l 626 325 l 668 325 b 664 479 667 375 664 428 b 668 640 664 531 667 583 l 626 640 l 619 568 b 608 532 618 550 615 538 b 461 517 593 522 546 517 b 300 521 394 517 344 518 l 300 892 b 417 903 339 901 379 903 b 689 874 506 903 615 901 b 701 836 700 869 701 854 l 701 746 l 750 746 b 772 957 750 817 757 896 b 593 961 718 960 656 961 b 265 957 514 961 386 957 b 147 958 226 957 186 958 b 31 961 108 960 69 961 l 31 919 l 97 915 b 156 894 131 914 147 908 b 168 790 165 879 168 843 z m 286 1206 b 210 1128 246 1206 210 1168 b 286 1051 210 1088 246 1051 b 364 1128 326 1051 364 1088 b 286 1206 364 1168 326 1206 z m 563 1206 b 486 1128 522 1206 486 1168 b 563 1051 486 1088 522 1051 b 640 1128 603 1051 640 1088 b 563 1206 640 1168 603 1206 z "},"È":{"ha":849,"x_min":0,"x_max":0,"o":"m 168 167 b 156 63 168 114 165 78 b 97 42 147 49 131 44 l 47 38 l 47 -4 b 196 0 97 -3 143 0 b 499 -4 282 0 392 -3 l 542 -4 b 772 0 631 -4 719 -1 b 794 228 772 75 781 161 l 746 228 b 697 72 736 144 718 83 b 417 54 672 58 531 54 b 300 65 379 54 339 56 l 300 454 b 461 458 343 458 394 458 b 608 442 546 458 593 453 b 619 407 615 438 618 425 l 626 325 l 668 325 b 664 479 667 375 664 428 b 668 640 664 531 667 583 l 626 640 l 619 568 b 608 532 618 550 615 538 b 461 517 593 522 546 517 b 300 521 394 517 344 518 l 300 892 b 417 903 339 901 379 903 b 689 874 506 903 615 901 b 701 836 700 869 701 854 l 701 746 l 750 746 b 772 957 750 817 757 896 b 593 961 718 960 656 961 b 265 957 514 961 386 957 b 147 958 226 957 186 958 b 31 961 108 960 69 961 l 31 919 l 97 915 b 156 894 131 914 147 908 b 168 790 165 879 168 843 z m 492 1024 l 547 1024 l 356 1215 b 282 1261 335 1236 304 1261 b 236 1213 253 1261 236 1240 b 292 1149 236 1181 268 1163 z "},"Í":{"ha":468,"x_min":0,"x_max":0,"o":"m 300 790 b 313 894 300 843 303 879 b 371 915 321 908 338 914 l 438 919 l 438 961 b 236 957 365 958 300 957 b 31 961 168 957 103 958 l 31 919 l 97 915 b 156 894 131 914 147 908 b 168 790 165 879 168 843 l 168 167 b 156 63 168 114 165 78 b 97 42 147 49 131 43 l 31 38 l 31 -4 b 236 0 103 -1 168 0 b 438 -4 300 0 365 -1 l 438 38 l 371 42 b 313 63 338 43 321 49 b 300 167 303 78 300 114 z m 111 1024 l 167 1024 l 367 1149 b 422 1213 390 1163 422 1181 b 376 1261 422 1240 406 1261 b 303 1215 354 1261 324 1236 z "},"Î":{"ha":468,"x_min":0,"x_max":0,"o":"m 300 790 b 313 894 300 843 303 879 b 371 915 321 908 338 914 l 438 919 l 438 961 b 236 957 365 958 300 957 b 31 961 168 957 103 958 l 31 919 l 97 915 b 156 894 131 914 147 908 b 168 790 165 879 168 843 l 168 167 b 156 63 168 114 165 78 b 97 42 147 49 131 43 l 31 38 l 31 -4 b 236 0 103 -1 168 0 b 438 -4 300 0 365 -1 l 438 38 l 371 42 b 313 63 338 43 321 49 b 300 167 303 78 300 114 z m 192 1261 l 18 1029 l 67 1029 l 235 1172 l 403 1029 l 451 1029 l 278 1261 z "},"Ï":{"ha":468,"x_min":0,"x_max":0,"o":"m 300 790 b 313 894 300 843 303 879 b 371 915 321 908 338 914 l 438 919 l 438 961 b 236 957 365 958 300 957 b 31 961 168 957 103 958 l 31 919 l 97 915 b 156 894 131 914 147 908 b 168 790 165 879 168 843 l 168 167 b 156 63 168 114 165 78 b 97 42 147 49 131 43 l 31 38 l 31 -4 b 236 0 103 -1 168 0 b 438 -4 300 0 365 -1 l 438 38 l 371 42 b 313 63 338 43 321 49 b 300 167 303 78 300 114 z m 96 1206 b 19 1128 56 1206 19 1168 b 96 1051 19 1088 56 1051 b 174 1128 136 1051 174 1088 b 96 1206 174 1168 136 1206 z m 372 1206 b 296 1128 332 1206 296 1168 b 372 1051 296 1088 332 1051 b 450 1128 413 1051 450 1088 b 372 1206 450 1168 413 1206 z "},"Ì":{"ha":468,"x_min":0,"x_max":0,"o":"m 300 790 b 313 894 300 843 303 879 b 371 915 321 908 338 914 l 438 919 l 438 961 b 236 957 365 958 300 957 b 31 961 168 957 103 958 l 31 919 l 97 915 b 156 894 131 914 147 908 b 168 790 165 879 168 843 l 168 167 b 156 63 168 114 165 78 b 97 42 147 49 131 43 l 31 38 l 31 -4 b 236 0 103 -1 168 0 b 438 -4 300 0 365 -1 l 438 38 l 371 42 b 313 63 338 43 321 49 b 300 167 303 78 300 114 z m 301 1024 l 357 1024 l 165 1215 b 92 1261 144 1236 114 1261 b 46 1213 63 1261 46 1240 b 101 1149 46 1181 78 1163 z "},"Ñ":{"ha":1154,"x_min":0,"x_max":0,"o":"m 156 167 b 143 63 156 114 153 78 b 85 42 135 49 118 44 l 24 38 l 24 -4 b 185 0 79 -3 135 0 b 351 -4 240 0 290 -3 l 351 38 l 290 42 b 232 63 257 44 240 49 b 219 167 222 78 219 114 l 219 807 l 222 807 l 876 -6 l 1001 -28 b 997 24 1000 -11 997 7 l 997 790 b 1010 894 997 843 1000 879 b 1068 915 1018 908 1035 913 l 1129 919 l 1129 961 b 963 957 1068 960 1018 957 b 801 961 913 957 857 960 l 801 919 l 863 915 b 921 894 896 913 913 908 b 933 790 931 879 933 843 l 933 142 l 929 142 l 265 961 b 190 957 240 960 215 957 b 24 961 140 957 85 960 l 24 919 l 85 915 b 143 894 118 913 135 908 b 156 790 153 879 156 843 z m 767 1210 b 689 1140 750 1168 736 1146 l 683 1140 b 606 1168 658 1140 628 1158 b 500 1203 574 1183 538 1203 b 349 1064 415 1203 363 1144 l 389 1064 b 463 1126 401 1097 425 1126 b 531 1106 485 1126 513 1114 b 660 1064 581 1083 603 1064 b 771 1121 711 1064 747 1090 b 807 1210 796 1153 807 1189 z "},"Ó":{"ha":1092,"x_min":0,"x_max":0,"o":"m 524 -28 b 1061 510 828 -28 1061 211 b 553 985 1061 818 850 985 b 31 478 231 985 31 764 b 524 -28 31 167 242 -28 z m 531 926 b 913 467 789 926 913 742 b 568 31 913 211 800 31 b 179 529 293 31 179 286 b 531 926 179 757 289 926 z m 424 1024 l 479 1024 l 679 1149 b 735 1213 703 1163 735 1181 b 689 1261 735 1240 718 1261 b 615 1215 667 1261 636 1236 z "},"Ô":{"ha":1092,"x_min":0,"x_max":0,"o":"m 524 -28 b 1061 510 828 -28 1061 211 b 553 985 1061 818 850 985 b 31 478 231 985 31 764 b 524 -28 31 167 242 -28 z m 531 926 b 913 467 789 926 913 742 b 568 31 913 211 800 31 b 179 529 293 31 179 286 b 531 926 179 757 289 926 z m 504 1261 l 331 1029 l 379 1029 l 547 1172 l 715 1029 l 764 1029 l 590 1261 z "},"Ö":{"ha":1092,"x_min":0,"x_max":0,"o":"m 524 -28 b 1061 510 828 -28 1061 211 b 553 985 1061 818 850 985 b 31 478 231 985 31 764 b 524 -28 31 167 242 -28 z m 531 926 b 913 467 789 926 913 742 b 568 31 913 211 800 31 b 179 529 293 31 179 286 b 531 926 179 757 289 926 z m 408 1206 b 332 1128 368 1206 332 1168 b 408 1051 332 1088 368 1051 b 486 1128 449 1051 486 1088 b 408 1206 486 1168 449 1206 z m 685 1206 b 608 1128 644 1206 608 1168 b 685 1051 608 1088 644 1051 b 763 1128 725 1051 763 1088 b 685 1206 763 1168 725 1206 z "},"Ò":{"ha":1092,"x_min":0,"x_max":0,"o":"m 524 -28 b 1061 510 828 -28 1061 211 b 553 985 1061 818 850 985 b 31 478 231 985 31 764 b 524 -28 31 167 242 -28 z m 531 926 b 913 467 789 926 913 742 b 568 31 913 211 800 31 b 179 529 293 31 179 286 b 531 926 179 757 289 926 z m 614 1024 l 669 1024 l 478 1215 b 404 1261 457 1236 426 1261 b 358 1213 375 1261 358 1240 b 414 1149 358 1181 390 1163 z "},"Õ":{"ha":1092,"x_min":0,"x_max":0,"o":"m 524 -28 b 1061 510 828 -28 1061 211 b 553 985 1061 818 850 985 b 31 478 231 985 31 764 b 524 -28 31 167 242 -28 z m 531 926 b 913 467 789 926 913 742 b 568 31 913 211 800 31 b 179 529 293 31 179 286 b 531 926 179 757 289 926 z m 736 1226 b 658 1157 719 1185 706 1163 l 653 1157 b 575 1185 628 1157 597 1175 b 469 1219 543 1200 507 1219 b 318 1081 385 1219 332 1161 l 358 1081 b 432 1143 371 1114 394 1143 b 500 1122 454 1143 482 1131 b 629 1081 550 1100 572 1081 b 740 1138 681 1081 717 1107 b 776 1226 765 1169 776 1206 z "},"Š":{"ha":729,"x_min":0,"x_max":0,"o":"m 621 731 b 640 926 621 796 626 856 b 389 985 583 949 500 985 b 33 671 222 985 33 886 b 338 433 33 526 119 458 b 582 247 479 417 582 379 b 333 33 582 110 458 33 b 107 144 224 33 114 86 l 96 238 l 51 238 l 51 185 b 42 25 51 133 50 78 b 279 -28 88 3 182 -28 b 699 324 486 -28 699 86 b 379 551 699 482 575 531 b 150 724 206 571 150 629 b 356 926 150 861 258 926 b 507 893 410 926 468 917 b 568 810 558 861 564 847 l 576 731 z m 365 1118 l 197 1261 l 149 1261 l 322 1029 l 408 1029 l 582 1261 l 535 1261 z "},"Ú":{"ha":1081,"x_min":0,"x_max":0,"o":"m 154 297 b 529 -28 154 43 293 -28 b 922 389 810 -28 922 92 l 922 790 b 935 894 922 843 925 879 b 993 915 943 908 960 913 l 1054 919 l 1054 961 b 888 957 993 960 943 957 b 726 961 838 957 782 960 l 726 919 l 788 915 b 846 894 821 913 838 908 b 858 790 856 879 858 843 l 858 346 b 572 58 858 115 722 58 b 286 313 389 58 286 115 l 286 790 b 299 894 286 843 289 879 b 357 915 307 908 324 914 l 424 919 l 424 961 b 222 957 351 958 286 957 b 17 961 154 957 89 958 l 17 919 l 83 915 b 142 894 117 914 133 908 b 154 790 151 879 154 843 z m 463 1024 l 518 1024 l 718 1149 b 774 1213 742 1163 774 1181 b 728 1261 774 1240 757 1261 b 654 1215 706 1261 675 1236 z "},"Û":{"ha":1081,"x_min":0,"x_max":0,"o":"m 154 297 b 529 -28 154 43 293 -28 b 922 389 810 -28 922 92 l 922 790 b 935 894 922 843 925 879 b 993 915 943 908 960 913 l 1054 919 l 1054 961 b 888 957 993 960 943 957 b 726 961 838 957 782 960 l 726 919 l 788 915 b 846 894 821 913 838 908 b 858 790 856 879 858 843 l 858 346 b 572 58 858 115 722 58 b 286 313 389 58 286 115 l 286 790 b 299 894 286 843 289 879 b 357 915 307 908 324 914 l 424 919 l 424 961 b 222 957 351 958 286 957 b 17 961 154 957 89 958 l 17 919 l 83 915 b 142 894 117 914 133 908 b 154 790 151 879 154 843 z m 532 1261 l 358 1029 l 407 1029 l 575 1172 l 743 1029 l 792 1029 l 618 1261 z "},"Ü":{"ha":1081,"x_min":0,"x_max":0,"o":"m 154 297 b 529 -28 154 43 293 -28 b 922 389 810 -28 922 92 l 922 790 b 935 894 922 843 925 879 b 993 915 943 908 960 913 l 1054 919 l 1054 961 b 888 957 993 960 943 957 b 726 961 838 957 782 960 l 726 919 l 788 915 b 846 894 821 913 838 908 b 858 790 856 879 858 843 l 858 346 b 572 58 858 115 722 58 b 286 313 389 58 286 115 l 286 790 b 299 894 286 843 289 879 b 357 915 307 908 324 914 l 424 919 l 424 961 b 222 957 351 958 286 957 b 17 961 154 957 89 958 l 17 919 l 83 915 b 142 894 117 914 133 908 b 154 790 151 879 154 843 z m 403 1206 b 326 1128 363 1206 326 1168 b 403 1051 326 1088 363 1051 b 481 1128 443 1051 481 1088 b 403 1206 481 1168 443 1206 z m 679 1206 b 603 1128 639 1206 603 1168 b 679 1051 603 1088 639 1051 b 757 1128 719 1051 757 1088 b 679 1206 757 1168 719 1206 z "},"Ù":{"ha":1081,"x_min":0,"x_max":0,"o":"m 154 297 b 529 -28 154 43 293 -28 b 922 389 810 -28 922 92 l 922 790 b 935 894 922 843 925 879 b 993 915 943 908 960 913 l 1054 919 l 1054 961 b 888 957 993 960 943 957 b 726 961 838 957 782 960 l 726 919 l 788 915 b 846 894 821 913 838 908 b 858 790 856 879 858 843 l 858 346 b 572 58 858 115 722 58 b 286 313 389 58 286 115 l 286 790 b 299 894 286 843 289 879 b 357 915 307 908 324 914 l 424 919 l 424 961 b 222 957 351 958 286 957 b 17 961 154 957 89 958 l 17 919 l 83 915 b 142 894 117 914 133 908 b 154 790 151 879 154 843 z m 608 1024 l 664 1024 l 472 1215 b 399 1261 451 1236 421 1261 b 353 1213 369 1261 353 1240 b 408 1149 353 1181 385 1163 z "},"Ý":{"ha":926,"x_min":0,"x_max":0,"o":"m 306 836 b 244 926 288 869 268 897 b 179 979 222 953 204 979 b 172 978 176 979 175 978 l 13 944 l 13 904 l 53 900 b 231 719 88 896 158 844 l 403 419 b 415 364 411 406 415 386 l 415 167 b 403 63 415 114 413 78 b 344 42 394 49 378 43 l 278 38 l 278 -4 b 483 0 350 -1 415 0 b 685 -4 547 0 613 -1 l 685 38 l 618 42 b 560 63 585 43 568 49 b 547 167 550 78 547 114 l 547 346 b 567 450 547 379 550 414 b 908 943 624 574 792 808 l 908 964 l 797 964 b 647 700 751 875 703 788 l 504 474 z m 438 1024 l 493 1024 l 693 1149 b 749 1213 717 1163 749 1181 b 703 1261 749 1240 732 1261 b 629 1215 681 1261 650 1236 z "},"Ÿ":{"ha":926,"x_min":0,"x_max":0,"o":"m 306 836 b 244 926 288 869 268 897 b 179 979 222 953 204 979 b 172 978 176 979 175 978 l 13 944 l 13 904 l 53 900 b 231 719 88 896 158 844 l 403 419 b 415 364 411 406 415 386 l 415 167 b 403 63 415 114 413 78 b 344 42 394 49 378 43 l 278 38 l 278 -4 b 483 0 350 -1 415 0 b 685 -4 547 0 613 -1 l 685 38 l 618 42 b 560 63 585 43 568 49 b 547 167 550 78 547 114 l 547 346 b 567 450 547 379 550 414 b 908 943 624 574 792 808 l 908 964 l 797 964 b 647 700 751 875 703 788 l 504 474 z m 358 1206 b 282 1128 318 1206 282 1168 b 358 1051 282 1088 318 1051 b 436 1128 399 1051 436 1088 b 358 1206 436 1168 399 1206 z m 635 1206 b 558 1128 594 1206 558 1168 b 635 1051 558 1088 594 1051 b 713 1128 675 1051 713 1088 b 635 1206 713 1168 675 1206 z "},"Ž":{"ha":926,"x_min":0,"x_max":0,"o":"m 885 921 l 879 961 b 663 957 807 960 735 957 b 111 961 479 957 294 960 b 115 849 114 924 115 886 b 111 736 115 811 114 774 l 158 736 l 167 835 b 378 900 171 881 186 900 l 694 900 b 575 736 664 847 617 789 l 156 197 b 21 35 113 142 65 89 l 21 -4 b 454 0 165 -3 310 0 b 878 -4 597 0 742 -3 b 886 240 878 75 879 164 l 839 240 l 831 161 b 589 61 821 67 796 61 l 210 61 z m 481 1118 l 313 1261 l 264 1261 l 438 1029 l 524 1029 l 697 1261 l 650 1261 z "},"á":{"ha":694,"x_min":0,"x_max":0,"o":"m 313 375 b 44 151 185 351 44 311 b 214 -17 44 39 119 -17 b 278 -6 239 -17 267 -14 l 450 114 l 443 -4 b 550 0 479 -3 514 0 b 654 -4 585 0 619 -3 l 654 38 l 600 40 b 565 61 581 42 568 47 b 561 121 563 76 561 99 l 561 375 b 335 651 561 575 508 651 b 174 604 290 651 233 640 l 100 560 l 100 469 l 136 460 l 154 503 b 178 549 163 521 169 538 b 275 578 196 572 215 578 b 450 404 396 578 450 510 l 450 400 z m 450 172 b 406 126 444 164 428 143 b 272 63 360 92 315 63 b 164 176 217 63 164 106 b 247 307 164 228 199 288 b 450 356 318 335 381 346 z m 225 731 l 281 731 l 481 856 b 536 919 504 869 536 888 b 490 968 536 947 519 968 b 417 922 468 968 438 943 z "},"â":{"ha":694,"x_min":0,"x_max":0,"o":"m 313 375 b 44 151 185 351 44 311 b 214 -17 44 39 119 -17 b 278 -6 239 -17 267 -14 l 450 114 l 443 -4 b 550 0 479 -3 514 0 b 654 -4 585 0 619 -3 l 654 38 l 600 40 b 565 61 581 42 568 47 b 561 121 563 76 561 99 l 561 375 b 335 651 561 575 508 651 b 174 604 290 651 233 640 l 100 560 l 100 469 l 136 460 l 154 503 b 178 549 163 521 169 538 b 275 578 196 572 215 578 b 450 404 396 578 450 510 l 450 400 z m 450 172 b 406 126 444 164 428 143 b 272 63 360 92 315 63 b 164 176 217 63 164 106 b 247 307 164 228 199 288 b 450 356 318 335 381 346 z m 289 968 l 115 736 l 164 736 l 332 879 l 500 736 l 549 736 l 375 968 z "},"ä":{"ha":694,"x_min":0,"x_max":0,"o":"m 313 375 b 44 151 185 351 44 311 b 214 -17 44 39 119 -17 b 278 -6 239 -17 267 -14 l 450 114 l 443 -4 b 550 0 479 -3 514 0 b 654 -4 585 0 619 -3 l 654 38 l 600 40 b 565 61 581 42 568 47 b 561 121 563 76 561 99 l 561 375 b 335 651 561 575 508 651 b 174 604 290 651 233 640 l 100 560 l 100 469 l 136 460 l 154 503 b 178 549 163 521 169 538 b 275 578 196 572 215 578 b 450 404 396 578 450 510 l 450 400 z m 450 172 b 406 126 444 164 428 143 b 272 63 360 92 315 63 b 164 176 217 63 164 106 b 247 307 164 228 199 288 b 450 356 318 335 381 346 z m 193 913 b 117 835 153 913 117 875 b 193 758 117 794 153 758 b 271 835 233 758 271 794 b 193 913 271 875 233 913 z m 469 913 b 393 835 429 913 393 875 b 469 758 393 794 429 758 b 547 835 510 758 547 794 b 469 913 547 875 510 913 z "},"à":{"ha":694,"x_min":0,"x_max":0,"o":"m 313 375 b 44 151 185 351 44 311 b 214 -17 44 39 119 -17 b 278 -6 239 -17 267 -14 l 450 114 l 443 -4 b 550 0 479 -3 514 0 b 654 -4 585 0 619 -3 l 654 38 l 600 40 b 565 61 581 42 568 47 b 561 121 563 76 561 99 l 561 375 b 335 651 561 575 508 651 b 174 604 290 651 233 640 l 100 560 l 100 469 l 136 460 l 154 503 b 178 549 163 521 169 538 b 275 578 196 572 215 578 b 450 404 396 578 450 510 l 450 400 z m 450 172 b 406 126 444 164 428 143 b 272 63 360 92 315 63 b 164 176 217 63 164 106 b 247 307 164 228 199 288 b 450 356 318 335 381 346 z m 382 731 l 438 731 l 246 922 b 172 968 225 943 194 968 b 126 919 143 968 126 947 b 182 856 126 888 158 869 z "},"å":{"ha":694,"x_min":0,"x_max":0,"o":"m 313 375 b 44 151 185 351 44 311 b 214 -17 44 39 119 -17 b 278 -6 239 -17 267 -14 l 450 114 l 443 -4 b 550 0 479 -3 514 0 b 654 -4 585 0 619 -3 l 654 38 l 600 40 b 565 61 581 42 568 47 b 561 121 563 76 561 99 l 561 375 b 335 651 561 575 508 651 b 174 604 290 651 233 640 l 100 560 l 100 469 l 136 460 l 154 503 b 178 549 163 521 169 538 b 275 578 196 572 215 578 b 450 404 396 578 450 510 l 450 400 z m 450 172 b 406 126 444 164 428 143 b 272 63 360 92 315 63 b 164 176 217 63 164 106 b 247 307 164 228 199 288 b 450 356 318 335 381 346 z m 332 944 b 418 856 383 944 418 910 b 332 767 418 801 383 767 b 246 856 281 767 246 801 b 332 944 246 910 281 944 z m 332 994 b 193 858 257 994 193 933 l 193 853 b 332 717 193 778 257 717 b 471 853 407 717 471 778 l 471 858 b 332 994 471 933 407 994 z "},"ã":{"ha":694,"x_min":0,"x_max":0,"o":"m 313 375 b 44 151 185 351 44 311 b 214 -17 44 39 119 -17 b 278 -6 239 -17 267 -14 l 450 114 l 443 -4 b 550 0 479 -3 514 0 b 654 -4 585 0 619 -3 l 654 38 l 600 40 b 565 61 581 42 568 47 b 561 121 563 76 561 99 l 561 375 b 335 651 561 575 508 651 b 174 604 290 651 233 640 l 100 560 l 100 469 l 136 460 l 154 503 b 178 549 163 521 169 538 b 275 578 196 572 215 578 b 450 404 396 578 450 510 l 450 400 z m 450 172 b 406 126 444 164 428 143 b 272 63 360 92 315 63 b 164 176 217 63 164 106 b 247 307 164 228 199 288 b 450 356 318 335 381 346 z m 521 933 b 443 864 504 892 490 869 l 438 864 b 360 892 413 864 382 882 b 254 926 328 907 292 926 b 103 788 169 926 117 868 l 143 788 b 217 850 156 821 179 850 b 285 829 239 850 267 838 b 414 788 335 807 357 788 b 525 844 465 788 501 814 b 561 933 550 876 561 913 z "},"ç":{"ha":617,"x_min":0,"x_max":0,"o":"m 275 -150 l 285 -158 b 342 -149 304 -153 321 -149 b 397 -199 368 -149 397 -167 b 317 -262 397 -251 364 -262 b 232 -247 290 -262 257 -254 l 213 -290 b 332 -312 263 -306 282 -312 b 501 -196 406 -312 501 -286 b 386 -99 501 -131 447 -99 b 346 -104 372 -99 358 -100 l 376 -26 b 544 19 467 -22 536 7 l 574 64 l 560 85 b 418 44 519 61 464 44 b 158 353 283 44 158 133 b 361 579 158 535 265 579 b 506 517 410 579 492 547 l 515 432 l 554 432 b 574 603 554 493 563 561 b 407 651 539 625 488 651 b 274 619 361 651 315 638 b 156 553 235 603 188 576 b 36 293 99 511 36 422 b 328 -25 36 96 172 -17 z "},"é":{"ha":665,"x_min":0,"x_max":0,"o":"m 351 606 b 499 371 451 606 499 500 b 344 367 450 368 399 367 b 168 375 288 367 228 368 l 168 393 b 351 606 168 532 249 606 z m 358 651 b 222 614 311 651 271 636 b 136 558 192 600 163 579 b 36 293 72 508 36 428 b 357 -28 36 106 147 -28 b 579 50 451 -28 569 33 l 607 97 l 589 111 b 417 46 536 79 483 46 b 165 319 246 46 165 157 l 368 319 b 619 339 451 319 536 325 b 622 397 622 358 622 378 b 358 651 622 554 510 651 z m 243 731 l 299 731 l 499 856 b 554 919 522 869 554 888 b 508 968 554 947 538 968 b 435 922 486 968 456 943 z "},"ê":{"ha":665,"x_min":0,"x_max":0,"o":"m 351 606 b 499 371 451 606 499 500 b 344 367 450 368 399 367 b 168 375 288 367 228 368 l 168 393 b 351 606 168 532 249 606 z m 358 651 b 222 614 311 651 271 636 b 136 558 192 600 163 579 b 36 293 72 508 36 428 b 357 -28 36 106 147 -28 b 579 50 451 -28 569 33 l 607 97 l 589 111 b 417 46 536 79 483 46 b 165 319 246 46 165 157 l 368 319 b 619 339 451 319 536 325 b 622 397 622 358 622 378 b 358 651 622 554 510 651 z m 307 968 l 133 736 l 182 736 l 350 879 l 518 736 l 567 736 l 393 968 z "},"ë":{"ha":665,"x_min":0,"x_max":0,"o":"m 351 606 b 499 371 451 606 499 500 b 344 367 450 368 399 367 b 168 375 288 367 228 368 l 168 393 b 351 606 168 532 249 606 z m 358 651 b 222 614 311 651 271 636 b 136 558 192 600 163 579 b 36 293 72 508 36 428 b 357 -28 36 106 147 -28 b 579 50 451 -28 569 33 l 607 97 l 589 111 b 417 46 536 79 483 46 b 165 319 246 46 165 157 l 368 319 b 619 339 451 319 536 325 b 622 397 622 358 622 378 b 358 651 622 554 510 651 z m 194 913 b 118 835 154 913 118 875 b 194 758 118 794 154 758 b 272 835 235 758 272 794 b 194 913 272 875 235 913 z m 471 913 b 394 835 431 913 394 875 b 471 758 394 794 431 758 b 549 835 511 758 549 794 b 471 913 549 875 511 913 z "},"è":{"ha":665,"x_min":0,"x_max":0,"o":"m 351 606 b 499 371 451 606 499 500 b 344 367 450 368 399 367 b 168 375 288 367 228 368 l 168 393 b 351 606 168 532 249 606 z m 358 651 b 222 614 311 651 271 636 b 136 558 192 600 163 579 b 36 293 72 508 36 428 b 357 -28 36 106 147 -28 b 579 50 451 -28 569 33 l 607 97 l 589 111 b 417 46 536 79 483 46 b 165 319 246 46 165 157 l 368 319 b 619 339 451 319 536 325 b 622 397 622 358 622 378 b 358 651 622 554 510 651 z m 400 731 l 456 731 l 264 922 b 190 968 243 943 213 968 b 144 919 161 968 144 947 b 200 856 144 888 176 869 z "},"í":{"ha":399,"x_min":0,"x_max":0,"o":"m 261 646 l 249 651 b 32 594 197 629 114 603 l 32 556 l 83 556 b 135 540 113 556 126 551 b 144 454 142 529 144 499 l 144 142 b 138 61 144 104 143 76 b 93 42 132 49 117 43 l 29 38 l 29 -4 b 203 0 79 -3 135 0 b 376 -4 271 0 326 -3 l 376 38 l 313 42 b 268 61 289 43 274 49 b 261 142 263 76 261 104 z m 76 731 l 132 731 l 332 856 b 388 919 356 869 388 888 b 342 968 388 947 371 968 b 268 922 319 968 289 943 z "},"î":{"ha":399,"x_min":0,"x_max":0,"o":"m 261 646 l 249 651 b 32 594 197 629 114 603 l 32 556 l 83 556 b 135 540 113 556 126 551 b 144 454 142 529 144 499 l 144 142 b 138 61 144 104 143 76 b 93 42 132 49 117 43 l 29 38 l 29 -4 b 203 0 79 -3 135 0 b 376 -4 271 0 326 -3 l 376 38 l 313 42 b 268 61 289 43 274 49 b 261 142 263 76 261 104 z m 157 968 l -17 736 l 32 736 l 200 879 l 368 736 l 417 736 l 243 968 z "},"ï":{"ha":399,"x_min":0,"x_max":0,"o":"m 261 646 l 249 651 b 32 594 197 629 114 603 l 32 556 l 83 556 b 135 540 113 556 126 551 b 144 454 142 529 144 499 l 144 142 b 138 61 144 104 143 76 b 93 42 132 49 117 43 l 29 38 l 29 -4 b 203 0 79 -3 135 0 b 376 -4 271 0 326 -3 l 376 38 l 313 42 b 268 61 289 43 274 49 b 261 142 263 76 261 104 z m 61 913 b -15 835 21 913 -15 875 b 61 758 -15 794 21 758 b 139 835 101 758 139 794 b 61 913 139 875 101 913 z m 338 913 b 261 835 297 913 261 875 b 338 758 261 794 297 758 b 415 835 378 758 415 794 b 338 913 415 875 378 913 z "},"ì":{"ha":399,"x_min":0,"x_max":0,"o":"m 261 646 l 249 651 b 32 594 197 629 114 603 l 32 556 l 83 556 b 135 540 113 556 126 551 b 144 454 142 529 144 499 l 144 142 b 138 61 144 104 143 76 b 93 42 132 49 117 43 l 29 38 l 29 -4 b 203 0 79 -3 135 0 b 376 -4 271 0 326 -3 l 376 38 l 313 42 b 268 61 289 43 274 49 b 261 142 263 76 261 104 z m 267 731 l 322 731 l 131 922 b 57 968 110 943 79 968 b 11 919 28 968 11 947 b 67 856 11 888 43 869 z "},"ñ":{"ha":808,"x_min":0,"x_max":0,"o":"m 239 436 b 410 567 239 493 325 567 b 569 390 504 567 569 506 l 569 -4 b 681 0 601 -3 642 0 b 794 -4 719 0 760 -3 l 794 38 l 738 42 b 693 61 714 43 699 49 b 686 142 688 76 686 104 l 686 410 b 457 651 686 561 619 651 b 344 617 401 651 375 643 l 242 528 l 239 528 l 239 646 l 226 651 b 10 594 175 629 92 603 l 10 556 l 61 556 b 113 540 90 556 104 551 b 122 454 119 529 122 499 l 122 142 b 115 61 122 104 121 76 b 71 42 110 49 94 43 l 8 38 l 8 -4 b 181 0 57 -3 113 0 b 353 -4 249 0 304 -3 l 353 38 l 290 42 b 246 61 267 43 251 49 b 239 142 240 76 239 104 z m 578 933 b 500 864 561 892 547 869 l 494 864 b 417 892 469 864 439 882 b 311 926 385 907 349 926 b 160 788 226 926 174 868 l 200 788 b 274 850 213 821 236 850 b 342 829 296 850 324 838 b 471 788 392 807 414 788 b 582 844 522 788 558 814 b 618 933 607 876 618 913 z "},"ó":{"ha":758,"x_min":0,"x_max":0,"o":"m 350 -28 b 714 335 563 -28 714 122 b 399 651 714 513 576 651 b 44 297 175 651 44 506 b 340 -28 44 110 169 -28 z m 367 606 b 585 274 500 606 585 453 b 404 18 585 144 531 18 b 174 357 226 18 174 211 b 367 606 174 486 219 606 z m 257 731 l 313 731 l 513 856 b 568 919 536 869 568 888 b 522 968 568 947 551 968 b 449 922 500 968 469 943 z "},"ô":{"ha":758,"x_min":0,"x_max":0,"o":"m 350 -28 b 714 335 563 -28 714 122 b 399 651 714 513 576 651 b 44 297 175 651 44 506 b 340 -28 44 110 169 -28 z m 367 606 b 585 274 500 606 585 453 b 404 18 585 144 531 18 b 174 357 226 18 174 211 b 367 606 174 486 219 606 z m 338 968 l 164 736 l 213 736 l 381 879 l 549 736 l 597 736 l 424 968 z "},"ö":{"ha":758,"x_min":0,"x_max":0,"o":"m 350 -28 b 714 335 563 -28 714 122 b 399 651 714 513 576 651 b 44 297 175 651 44 506 b 340 -28 44 110 169 -28 z m 367 606 b 585 274 500 606 585 453 b 404 18 585 144 531 18 b 174 357 226 18 174 211 b 367 606 174 486 219 606 z m 242 913 b 165 835 201 913 165 875 b 242 758 165 794 201 758 b 319 835 282 758 319 794 b 242 913 319 875 282 913 z m 518 913 b 442 835 478 913 442 875 b 518 758 442 794 478 758 b 596 835 558 758 596 794 b 518 913 596 875 558 913 z "},"ò":{"ha":758,"x_min":0,"x_max":0,"o":"m 350 -28 b 714 335 563 -28 714 122 b 399 651 714 513 576 651 b 44 297 175 651 44 506 b 340 -28 44 110 169 -28 z m 367 606 b 585 274 500 606 585 453 b 404 18 585 144 531 18 b 174 357 226 18 174 211 b 367 606 174 486 219 606 z m 431 731 l 486 731 l 294 922 b 221 968 274 943 243 968 b 175 919 192 968 175 947 b 231 856 175 888 207 869 z "},"õ":{"ha":758,"x_min":0,"x_max":0,"o":"m 350 -28 b 714 335 563 -28 714 122 b 399 651 714 513 576 651 b 44 297 175 651 44 506 b 340 -28 44 110 169 -28 z m 367 606 b 585 274 500 606 585 453 b 404 18 585 144 531 18 b 174 357 226 18 174 211 b 367 606 174 486 219 606 z m 569 933 b 492 864 553 892 539 869 l 486 864 b 408 892 461 864 431 882 b 303 926 376 907 340 926 b 151 788 218 926 165 868 l 192 788 b 265 850 204 821 228 850 b 333 829 288 850 315 838 b 463 788 383 807 406 788 b 574 844 514 788 550 814 b 610 933 599 876 610 913 z "},"š":{"ha":589,"x_min":0,"x_max":0,"o":"m 57 199 b 42 6 57 133 56 67 b 236 -28 110 -18 169 -28 b 543 206 390 -28 543 53 b 300 383 543 314 465 356 b 149 493 194 401 149 433 b 285 606 149 540 167 606 b 446 492 364 606 446 564 l 446 460 l 485 460 b 492 617 486 515 488 567 b 313 651 438 636 378 651 b 51 449 182 651 51 599 b 169 297 51 364 103 322 b 374 242 236 272 313 257 b 440 150 417 231 440 194 b 278 24 440 75 365 24 b 99 142 197 24 99 56 l 99 199 z m 296 825 l 128 968 l 79 968 l 253 736 l 339 736 l 513 968 l 465 968 z "},"ú":{"ha":838,"x_min":0,"x_max":0,"o":"m 699 646 l 686 651 b 469 594 635 629 551 603 l 469 556 l 521 556 b 572 540 550 556 564 551 b 582 454 579 529 582 499 l 582 228 b 406 68 582 161 496 68 b 254 236 278 68 254 126 l 254 646 l 242 651 b 25 594 190 629 107 603 l 25 556 l 76 556 b 128 540 106 556 119 551 b 138 454 135 529 138 499 l 138 221 b 333 -17 138 108 138 -17 b 489 38 400 -17 450 3 l 582 124 b 576 -4 582 72 579 35 b 693 0 613 -3 653 0 b 807 -4 732 0 772 -3 l 807 38 l 750 42 b 706 61 726 43 711 49 b 699 142 700 76 699 104 z m 329 731 l 385 731 l 585 856 b 640 919 608 869 640 888 b 594 968 640 947 624 968 b 521 922 572 968 542 943 z "},"û":{"ha":838,"x_min":0,"x_max":0,"o":"m 699 646 l 686 651 b 469 594 635 629 551 603 l 469 556 l 521 556 b 572 540 550 556 564 551 b 582 454 579 529 582 499 l 582 228 b 406 68 582 161 496 68 b 254 236 278 68 254 126 l 254 646 l 242 651 b 25 594 190 629 107 603 l 25 556 l 76 556 b 128 540 106 556 119 551 b 138 454 135 529 138 499 l 138 221 b 333 -17 138 108 138 -17 b 489 38 400 -17 450 3 l 582 124 b 576 -4 582 72 579 35 b 693 0 613 -3 653 0 b 807 -4 732 0 772 -3 l 807 38 l 750 42 b 706 61 726 43 711 49 b 699 142 700 76 699 104 z m 376 968 l 203 736 l 251 736 l 419 879 l 588 736 l 636 736 l 463 968 z "},"ü":{"ha":838,"x_min":0,"x_max":0,"o":"m 699 646 l 686 651 b 469 594 635 629 551 603 l 469 556 l 521 556 b 572 540 550 556 564 551 b 582 454 579 529 582 499 l 582 228 b 406 68 582 161 496 68 b 254 236 278 68 254 126 l 254 646 l 242 651 b 25 594 190 629 107 603 l 25 556 l 76 556 b 128 540 106 556 119 551 b 138 454 135 529 138 499 l 138 221 b 333 -17 138 108 138 -17 b 489 38 400 -17 450 3 l 582 124 b 576 -4 582 72 579 35 b 693 0 613 -3 653 0 b 807 -4 732 0 772 -3 l 807 38 l 750 42 b 706 61 726 43 711 49 b 699 142 700 76 699 104 z m 281 913 b 204 835 240 913 204 875 b 281 758 204 794 240 758 b 358 835 321 758 358 794 b 281 913 358 875 321 913 z m 557 913 b 481 835 517 913 481 875 b 557 758 481 794 517 758 b 635 835 597 758 635 794 b 557 913 635 875 597 913 z "},"ù":{"ha":838,"x_min":0,"x_max":0,"o":"m 699 646 l 686 651 b 469 594 635 629 551 603 l 469 556 l 521 556 b 572 540 550 556 564 551 b 582 454 579 529 582 499 l 582 228 b 406 68 582 161 496 68 b 254 236 278 68 254 126 l 254 646 l 242 651 b 25 594 190 629 107 603 l 25 556 l 76 556 b 128 540 106 556 119 551 b 138 454 135 529 138 499 l 138 221 b 333 -17 138 108 138 -17 b 489 38 400 -17 450 3 l 582 124 b 576 -4 582 72 579 35 b 693 0 613 -3 653 0 b 807 -4 732 0 772 -3 l 807 38 l 750 42 b 706 61 726 43 711 49 b 699 142 700 76 699 104 z m 453 731 l 508 731 l 317 922 b 243 968 296 943 265 968 b 197 919 214 968 197 947 b 253 856 197 888 229 869 z "},"ý":{"ha":772,"x_min":0,"x_max":0,"o":"m 413 119 l 253 506 b 240 560 243 529 240 546 b 286 596 240 588 260 594 l 339 599 l 339 638 b 178 633 285 636 232 633 b 17 638 124 633 71 636 l 17 599 l 42 596 b 114 528 72 593 92 581 l 343 -33 l 311 -118 b 160 -300 285 -182 240 -294 l 157 -300 b 89 -268 138 -300 106 -285 l 71 -268 l 38 -372 b 107 -393 53 -382 83 -393 b 318 -222 224 -393 274 -324 l 600 428 b 717 596 653 550 683 593 l 756 599 l 756 638 b 624 633 711 636 668 633 b 492 638 579 633 536 636 l 492 599 l 528 596 b 586 558 565 593 586 583 b 578 525 586 549 583 539 z m 308 731 l 364 731 l 564 856 b 619 919 588 869 619 888 b 574 968 619 947 603 968 b 500 922 551 968 521 943 z "},"ÿ":{"ha":772,"x_min":0,"x_max":0,"o":"m 413 119 l 253 506 b 240 560 243 529 240 546 b 286 596 240 588 260 594 l 339 599 l 339 638 b 178 633 285 636 232 633 b 17 638 124 633 71 636 l 17 599 l 42 596 b 114 528 72 593 92 581 l 343 -33 l 311 -118 b 160 -300 285 -182 240 -294 l 157 -300 b 89 -268 138 -300 106 -285 l 71 -268 l 38 -372 b 107 -393 53 -382 83 -393 b 318 -222 224 -393 274 -324 l 600 428 b 717 596 653 550 683 593 l 756 599 l 756 638 b 624 633 711 636 668 633 b 492 638 579 633 536 636 l 492 599 l 528 596 b 586 558 565 593 586 583 b 578 525 586 549 583 539 z m 249 913 b 172 835 208 913 172 875 b 249 758 172 794 208 758 b 326 835 289 758 326 794 b 249 913 326 875 289 913 z m 525 913 b 449 835 485 913 449 875 b 525 758 449 794 485 758 b 603 835 565 758 603 794 b 525 913 603 875 565 913 z "},"ž":{"ha":694,"x_min":0,"x_max":0,"o":"m 632 600 l 632 642 b 485 638 583 640 533 638 b 96 642 356 638 214 640 b 83 458 96 578 83 486 l 125 458 l 142 553 b 275 589 147 583 175 589 l 474 589 b 383 464 447 547 415 504 l 147 169 b 22 24 107 119 65 72 l 31 -4 b 196 0 86 -3 140 0 b 626 -4 339 0 483 -3 b 647 193 626 61 640 128 l 606 193 l 581 83 b 383 49 574 53 483 49 l 196 49 z m 349 825 l 181 968 l 132 968 l 306 736 l 392 736 l 565 968 l 518 968 z "},"":{"ha":386,"x_min":0,"x_max":0,"o":"m 192 -7 b 274 74 236 -7 274 32 b 192 154 274 115 235 154 b 113 74 150 154 113 115 b 192 -7 113 32 149 -7 z m 222 964 l 118 911 b 128 764 121 863 124 813 l 164 340 b 167 285 167 322 167 304 l 181 278 l 219 310 l 219 344 l 253 731 b 269 929 258 797 269 863 l 269 964 z "},"":{"ha":528,"x_min":0,"x_max":0,"o":"m 4 738 l 60 738 l 247 874 b 301 940 269 890 301 913 b 256 989 301 968 285 989 b 182 943 233 989 201 965 z m 226 738 l 282 738 l 469 874 b 524 940 492 890 524 913 b 478 989 524 968 507 989 b 404 943 456 989 424 965 z "},"":{"ha":1081,"x_min":0,"x_max":0,"o":"m 761 538 b 626 540 717 536 671 539 l 581 478 b 707 463 635 474 688 469 b 739 346 725 456 739 400 b 672 196 739 300 713 247 b 389 551 565 304 468 421 b 589 829 478 613 589 711 b 457 957 589 913 538 957 b 361 925 406 957 379 942 l 267 842 b 233 718 243 821 233 775 b 275 538 233 663 250 597 b 60 240 160 475 60 379 b 350 -28 60 89 172 -28 b 626 79 451 -28 549 15 b 869 -28 679 32 811 -28 b 925 -19 889 -28 913 -29 l 1046 68 l 1038 103 b 949 76 1008 89 985 76 b 714 164 869 76 793 118 b 826 400 774 228 826 310 b 819 464 826 419 826 442 b 1014 447 881 461 950 458 b 1031 547 1014 481 1019 511 z m 296 489 b 583 114 372 350 478 232 b 413 50 536 79 472 50 b 181 288 286 50 181 163 b 296 489 181 379 225 436 z m 421 883 b 496 786 471 883 496 829 b 367 599 496 719 421 633 b 331 761 351 642 331 717 b 421 883 331 822 339 883 z "},"":{"ha":463,"x_min":0,"x_max":0,"o":"m 108 738 l 164 738 l 364 863 b 419 926 388 876 419 894 b 374 975 419 954 403 975 b 300 929 351 975 321 950 z "},"":{"ha":617,"x_min":0,"x_max":0,"o":"m 60 758 l 100 747 l 128 814 b 254 872 146 857 194 872 b 419 719 350 872 419 806 b 313 531 419 650 367 590 b 206 353 260 472 206 415 b 267 251 206 311 231 272 l 296 271 b 265 339 282 288 265 308 b 407 519 265 400 336 456 b 549 747 478 583 549 654 b 286 964 549 890 422 964 b 113 915 226 964 164 942 z m 275 -7 b 357 74 319 -7 357 32 b 275 154 357 115 318 154 b 196 74 233 154 196 115 b 275 -7 196 32 232 -7 z "},"":{"ha":463,"x_min":0,"x_max":0,"o":"m 189 969 l 15 738 l 64 738 l 232 881 l 400 738 l 449 738 l 275 969 z "},"":{"ha":463,"x_min":0,"x_max":0,"o":"m 299 738 l 354 738 l 163 929 b 89 975 142 950 111 975 b 43 926 60 975 43 954 b 99 863 43 894 75 876 z "},"":{"ha":849,"x_min":0,"x_max":0,"o":"m 403 692 l 172 185 b 25 35 110 43 88 35 l 25 -4 b 161 0 88 -3 119 0 b 306 -4 211 0 260 -3 l 306 35 b 203 85 235 35 203 46 b 250 211 203 136 238 182 b 390 214 297 213 344 214 b 533 211 439 214 486 213 b 589 72 551 172 589 103 b 486 35 589 46 568 35 l 486 -4 b 657 0 547 -3 599 0 b 822 -4 717 0 800 -3 l 822 35 b 697 143 769 35 740 40 l 456 692 z m 396 542 l 513 269 b 386 267 467 268 431 267 b 274 269 346 267 310 268 z "},"":{"ha":694,"x_min":0,"x_max":0,"o":"m 275 347 b 325 353 290 350 307 353 b 508 206 449 353 508 300 b 338 47 508 138 469 47 b 275 53 308 47 294 50 z m 275 625 b 340 631 299 628 317 631 b 481 515 428 631 481 600 b 275 397 481 396 361 397 z m 150 149 b 81 25 150 64 142 47 l 81 -3 b 197 0 117 0 164 0 b 375 -3 253 0 317 -3 b 647 226 528 -3 647 72 b 447 383 647 311 569 382 l 447 386 b 611 540 550 394 611 463 b 417 675 611 631 549 675 b 203 672 339 675 275 672 b 39 675 139 672 86 672 l 39 636 b 150 574 125 636 150 628 z "},"":{"ha":772,"x_min":0,"x_max":0,"o":"m 708 461 b 725 642 708 497 711 574 b 471 692 661 671 544 692 b 61 329 238 692 61 564 b 442 -19 61 128 222 -19 b 714 50 571 -19 672 15 l 733 103 l 717 113 b 494 42 651 61 589 42 b 200 340 296 42 200 181 b 454 642 200 528 308 642 b 664 556 569 642 626 600 l 669 461 z "},"":{"ha":849,"x_min":0,"x_max":0,"o":"m 286 524 b 289 617 286 558 288 582 b 392 625 310 621 351 625 b 647 349 533 625 647 540 b 378 53 647 190 575 53 b 286 58 354 53 325 56 z m 161 157 b 94 25 161 65 143 44 l 94 -3 b 224 0 135 -1 179 0 b 400 -3 281 0 342 -3 b 786 375 697 -3 786 232 b 418 675 786 558 661 675 b 222 672 347 675 288 672 b 50 675 161 672 108 672 l 50 636 b 161 556 139 636 161 614 z "},"":{"ha":694,"x_min":0,"x_max":0,"o":"m 161 150 b 42 35 161 51 153 35 l 42 -4 b 221 0 110 -3 158 0 b 436 -4 288 0 356 -4 b 625 3 501 -4 569 -3 b 636 192 631 57 635 121 l 600 192 b 569 67 593 146 583 104 b 414 50 536 57 475 50 b 292 56 367 50 329 53 b 286 324 288 121 286 213 b 365 326 308 325 331 326 b 497 222 486 326 497 310 l 539 222 b 536 351 538 261 536 308 b 539 469 536 389 538 432 l 497 469 b 419 376 497 392 486 376 b 286 379 356 376 318 378 b 289 622 286 460 285 550 b 376 631 314 626 343 631 b 564 617 443 631 510 626 b 578 506 572 588 574 558 l 617 506 b 633 672 619 572 625 625 b 465 683 589 679 521 683 b 314 678 415 683 364 681 b 163 672 264 675 214 672 b 32 676 114 672 75 675 l 32 639 b 161 542 136 639 161 633 z "},"":{"ha":617,"x_min":0,"x_max":0,"o":"m 150 131 b 25 35 150 53 133 35 l 25 -4 b 206 0 96 -3 133 0 b 394 -4 258 0 356 -3 l 394 35 b 275 117 289 35 275 53 l 275 310 b 374 313 306 311 333 313 b 469 211 446 313 463 310 l 508 211 b 506 332 507 250 506 297 b 508 456 506 360 507 428 l 469 456 b 375 363 458 369 450 363 b 275 365 333 363 294 364 b 278 628 275 485 275 565 b 514 617 349 628 440 628 b 528 508 521 582 525 543 l 567 508 b 583 672 569 572 575 624 b 440 683 554 678 506 683 b 314 678 400 683 357 681 b 186 672 272 675 229 672 b 28 676 132 672 71 675 l 28 638 b 150 547 136 638 150 631 z "},"":{"ha":772,"x_min":0,"x_max":0,"o":"m 676 486 l 701 644 b 442 690 628 665 544 690 b 39 328 194 690 39 514 b 415 -19 39 142 199 -19 b 700 33 500 -19 596 -6 b 696 217 697 71 696 139 l 733 236 l 733 269 b 647 267 715 268 686 267 b 469 269 600 267 544 269 l 469 236 b 578 181 556 233 578 226 b 575 61 578 143 578 96 b 442 33 550 44 511 33 b 183 342 369 33 183 76 b 436 636 183 508 264 639 b 635 553 522 635 631 614 l 639 486 z "},"":{"ha":926,"x_min":0,"x_max":0,"o":"m 164 128 b 39 35 164 50 147 35 l 39 -4 b 214 0 97 -3 156 0 b 408 -4 279 0 346 -3 l 408 35 b 289 128 308 35 289 42 l 289 335 b 468 338 344 336 403 338 b 647 335 533 338 592 336 l 647 128 b 528 35 647 42 628 35 l 528 -4 b 722 0 590 -3 657 0 b 897 -4 781 0 839 -3 l 897 35 b 772 128 789 35 772 50 l 772 553 b 903 638 772 635 792 638 l 903 676 b 718 672 846 675 772 672 b 528 676 654 672 600 675 l 528 638 b 647 553 632 638 647 635 l 647 385 b 468 382 592 383 533 382 b 289 385 403 382 344 383 l 289 553 b 408 638 289 635 304 638 l 408 676 b 218 672 336 675 282 672 b 33 676 164 672 90 675 l 33 638 b 164 553 144 638 164 635 z "},"":{"ha":463,"x_min":0,"x_max":0,"o":"m 167 128 b 42 35 167 44 144 35 l 42 -4 b 232 0 106 -3 168 0 b 417 -4 294 0 356 -3 l 417 35 b 292 128 303 35 292 44 l 292 561 b 417 638 292 636 314 638 l 417 676 b 225 672 340 675 292 672 b 42 676 153 672 92 675 l 42 638 b 167 561 133 638 167 635 z "},"":{"ha":463,"x_min":0,"x_max":0,"o":"m 172 -33 b 103 -143 172 -108 151 -143 b 29 -108 81 -143 61 -142 l 17 -112 b 19 -158 18 -122 19 -139 b 17 -204 19 -178 18 -190 l 36 -204 b 297 93 178 -204 297 -118 l 297 508 b 417 638 297 632 308 638 l 417 676 b 228 672 354 675 286 672 b 44 676 167 672 74 675 l 44 638 b 172 543 153 638 172 629 z "},"":{"ha":772,"x_min":0,"x_max":0,"o":"m 406 676 b 217 672 339 675 289 672 b 39 676 161 672 115 675 l 39 638 b 161 544 142 638 161 633 l 161 128 b 39 35 161 42 139 35 l 39 -4 b 225 0 101 -3 164 0 b 408 -4 286 0 349 -3 l 408 35 b 286 114 303 35 286 42 l 286 328 l 300 333 l 600 -4 b 692 -3 631 -4 661 -3 b 767 -4 717 -3 742 -4 l 767 35 b 696 82 738 35 722 54 l 406 394 l 625 597 b 742 639 665 633 685 639 l 742 676 b 658 675 711 676 682 675 b 558 676 625 675 599 676 l 558 636 b 294 358 483 542 394 461 l 286 360 l 286 558 b 406 638 286 636 297 638 z "},"":{"ha":694,"x_min":0,"x_max":0,"o":"m 153 144 b 72 35 153 53 133 44 l 72 -4 b 217 0 121 -3 158 0 b 456 -4 282 0 322 -4 b 626 0 517 -4 581 -3 b 650 183 631 65 638 124 l 608 183 l 581 71 b 378 51 542 57 464 51 b 283 54 339 51 311 53 b 278 183 279 99 278 136 l 278 551 b 397 638 278 636 308 638 l 397 676 b 206 672 321 675 253 672 b 28 676 142 672 92 675 l 28 638 b 153 572 131 638 153 636 z "},"":{"ha":1081,"x_min":0,"x_max":0,"o":"m 519 -17 l 783 575 l 786 575 l 786 106 b 672 35 786 50 769 35 l 672 -4 b 853 0 738 -3 783 0 b 1025 -4 917 0 972 -3 l 1025 35 b 911 114 936 35 911 47 l 911 547 b 1025 638 911 633 942 638 l 1025 676 b 881 672 981 675 928 672 b 775 676 847 672 808 675 b 543 169 715 533 653 408 b 314 676 457 357 358 561 b 188 672 272 675 229 672 b 47 676 140 672 94 675 l 47 638 b 172 558 136 638 172 625 l 172 125 b 47 35 172 42 142 35 l 47 -4 b 192 0 96 -3 144 0 b 347 -4 243 0 296 -3 l 347 35 b 228 111 253 35 228 44 l 228 553 l 231 553 l 494 -17 z "},"":{"ha":926,"x_min":0,"x_max":0,"o":"m 161 119 b 33 35 161 50 140 35 l 33 -4 b 179 0 81 -3 131 0 b 336 -4 232 0 285 -3 l 336 35 b 217 111 231 35 217 42 l 217 533 l 219 533 l 664 -6 l 775 -19 b 767 128 772 26 767 72 l 767 531 b 894 638 767 628 789 638 l 894 676 b 739 672 842 675 792 672 b 583 676 694 672 640 675 l 583 638 b 711 567 671 638 711 631 l 711 133 l 708 133 b 269 676 565 315 411 492 b 153 672 232 675 189 672 b 39 676 108 672 75 675 l 39 638 b 161 579 132 636 161 624 z "},"":{"ha":849,"x_min":0,"x_max":0,"o":"m 435 692 b 56 328 233 692 56 567 b 414 -19 56 106 247 -19 b 792 360 650 -19 792 172 b 435 692 792 531 674 692 z m 408 644 b 653 328 581 644 653 500 b 447 36 653 194 611 36 b 194 369 253 36 194 217 b 408 644 194 544 289 644 z "},"":{"ha":694,"x_min":0,"x_max":0,"o":"m 158 119 b 33 35 158 56 133 35 l 33 -4 b 222 0 97 -3 160 0 b 406 -4 324 0 372 -3 l 406 35 b 283 119 300 40 283 56 l 283 619 b 369 636 307 626 333 636 b 519 500 453 636 519 583 b 381 356 519 414 478 356 b 336 367 364 356 347 360 l 344 325 b 406 314 357 319 381 314 b 650 517 572 314 650 424 b 415 683 650 611 603 683 b 308 678 379 683 343 681 b 204 672 274 675 240 672 b 33 676 147 672 72 675 l 33 638 b 158 556 147 638 158 628 z "},"":{"ha":849,"x_min":0,"x_max":0,"o":"m 300 -135 b 386 -108 333 -118 356 -108 b 514 -146 422 -108 471 -126 b 683 -192 574 -172 614 -183 b 778 -122 718 -165 739 -147 l 778 -92 b 717 -103 769 -101 739 -103 b 585 -67 657 -103 631 -85 b 456 -19 529 -44 481 -19 l 456 -17 b 792 360 667 3 792 183 b 435 692 792 531 674 692 b 56 328 233 692 56 567 b 414 -19 56 106 247 -19 b 433 -18 421 -19 426 -19 l 433 -22 b 300 -101 410 -25 360 -51 z m 408 644 b 653 328 581 644 653 500 b 447 36 653 194 611 36 b 194 369 253 36 194 217 b 408 644 194 544 289 644 z "},"":{"ha":772,"x_min":0,"x_max":0,"o":"m 33 -4 b 222 0 97 -3 160 0 b 406 -4 324 0 372 -3 l 406 35 b 283 103 300 35 283 38 l 283 617 b 372 631 308 628 342 631 b 519 500 472 631 519 590 b 372 356 519 417 456 356 b 322 358 353 356 338 357 l 317 336 l 594 0 l 767 0 l 767 35 b 685 79 724 35 713 46 l 472 339 b 658 526 539 364 658 397 b 443 676 658 642 567 676 b 217 672 369 676 289 672 b 33 676 150 672 93 676 l 33 638 b 158 556 147 638 158 628 l 158 119 b 33 35 158 38 133 35 z "},"":{"ha":617,"x_min":0,"x_max":0,"o":"m 503 506 b 514 644 503 558 504 594 b 326 692 483 661 431 692 b 61 468 178 692 61 608 b 439 186 61 175 439 399 b 267 31 439 75 353 31 b 111 178 157 31 111 74 l 72 178 b 64 19 72 100 71 68 b 251 -19 113 -4 161 -19 b 556 225 431 -19 556 89 b 172 513 556 510 172 294 b 321 642 172 589 232 642 b 436 608 375 642 404 632 b 464 506 454 594 463 572 z "},"":{"ha":694,"x_min":0,"x_max":0,"o":"m 161 -4 b 350 0 224 -3 288 0 b 522 -4 408 0 465 -3 l 522 35 b 406 111 425 35 406 50 l 406 619 l 475 619 b 611 550 596 619 608 603 l 614 494 l 653 494 l 658 676 b 342 672 592 672 492 672 b 25 676 192 672 92 672 l 31 494 l 69 494 l 72 550 b 208 619 75 603 88 619 l 281 619 l 281 111 b 161 35 281 44 258 35 z "},"":{"ha":849,"x_min":0,"x_max":0,"o":"m 269 582 b 375 640 269 622 286 638 l 375 676 b 206 672 294 675 250 672 b 28 676 147 672 88 675 l 28 638 b 144 568 108 638 144 631 l 144 243 b 428 -19 144 75 197 -19 b 701 256 661 -19 701 113 l 701 554 b 819 638 701 628 719 638 l 819 676 b 676 672 783 675 738 672 b 528 676 628 672 578 675 l 528 638 b 646 549 636 638 646 625 l 646 249 b 457 53 646 107 578 53 b 269 246 314 53 269 126 z "},"":{"ha":772,"x_min":0,"x_max":0,"o":"m 425 -11 l 643 535 b 753 638 675 617 683 638 l 753 676 b 638 672 706 675 669 672 b 494 676 583 672 542 675 l 494 638 b 594 596 563 638 594 629 b 579 538 594 576 588 558 l 428 146 l 283 508 b 247 604 267 549 247 589 b 353 638 247 636 272 638 l 353 676 b 167 672 283 675 217 672 b 17 676 128 672 86 675 l 17 638 b 121 575 81 638 100 629 l 356 -11 z "},"":{"ha":1081,"x_min":0,"x_max":0,"o":"m 539 678 l 360 157 l 357 157 l 249 556 b 239 601 244 569 239 588 b 344 638 239 636 265 638 l 344 676 b 176 672 279 675 219 672 b 17 676 107 672 56 675 l 17 638 b 133 522 86 638 107 615 l 283 -11 l 361 -11 l 533 488 l 536 488 l 717 -11 l 797 -11 l 965 556 b 1058 638 985 622 990 633 l 1058 676 b 936 672 1026 675 986 672 b 803 676 894 672 853 675 l 803 638 b 906 592 881 638 906 619 b 888 501 906 564 896 532 l 788 157 l 785 157 l 592 678 z "},"":{"ha":694,"x_min":0,"x_max":0,"o":"m 39 614 b 76 619 51 617 63 619 b 188 524 115 619 136 614 l 297 333 l 135 103 b 22 36 101 56 88 39 l 22 -3 b 93 0 44 -1 64 0 b 156 -3 114 0 136 -1 b 331 278 206 83 261 178 l 481 -3 b 582 0 519 -1 553 0 b 672 -3 603 0 632 -1 l 672 36 b 572 97 615 43 600 49 l 408 383 l 554 575 b 658 633 588 618 599 633 l 658 672 l 528 672 l 375 442 l 290 590 b 231 685 267 632 256 653 b 39 658 168 669 103 664 z "},"":{"ha":694,"x_min":0,"x_max":0,"o":"m 172 -4 b 356 0 233 -3 283 0 b 539 -4 406 0 478 -3 l 539 35 b 419 132 456 35 419 38 l 419 275 b 667 653 497 413 585 560 l 667 672 l 572 672 b 392 344 522 576 422 399 l 267 575 b 163 685 235 635 199 672 b 19 661 124 674 63 668 l 19 622 b 143 532 69 622 85 614 b 294 283 181 479 232 396 l 294 101 b 172 35 294 56 275 35 z "},"":{"ha":694,"x_min":0,"x_max":0,"o":"m 28 0 b 394 -4 85 -4 281 -4 b 650 0 492 -4 574 -4 b 663 183 654 60 654 122 l 619 183 b 522 53 613 82 610 57 b 292 47 428 49 364 47 b 193 50 253 47 218 49 l 658 636 l 658 676 b 436 672 615 675 553 672 b 81 676 294 672 129 675 b 83 593 83 650 83 621 b 81 506 83 561 82 533 l 119 511 l 122 542 b 319 622 128 624 140 622 b 486 619 379 622 443 621 l 28 33 z "},"":{"ha":463,"x_min":0,"x_max":0,"o":"m 421 924 b 343 854 404 882 390 860 b 260 882 317 851 283 871 b 154 917 228 897 192 917 b 3 778 69 917 17 858 l 43 778 b 117 840 56 811 79 840 b 185 819 139 840 167 828 b 314 778 235 797 257 778 b 425 835 365 778 401 804 b 461 924 450 867 461 903 z "},"":{"ha":386,"x_min":0,"x_max":0,"o":"m 160 -312 l 264 -260 b 254 -112 261 -211 258 -161 l 218 311 b 215 367 215 329 215 347 l 201 374 l 163 342 l 163 307 l 129 -79 b 113 -278 124 -146 113 -211 l 113 -312 z m 192 490 b 274 571 236 490 274 529 b 192 651 274 613 235 651 b 113 571 150 651 113 613 b 192 490 113 529 149 490 z "},"":{"ha":694,"x_min":0,"x_max":0,"o":"m 67 214 l 153 267 l 153 144 b 72 35 153 53 133 44 l 72 -4 b 217 0 121 -3 158 0 b 456 -4 282 0 322 -4 b 626 0 517 -4 581 -3 b 650 183 631 65 638 124 l 608 183 l 581 71 b 378 51 542 57 464 51 b 283 54 339 51 311 53 b 278 183 279 99 278 136 l 278 343 l 436 439 l 436 500 l 278 404 l 278 551 b 397 638 278 636 308 638 l 397 676 b 206 672 321 675 253 672 b 28 676 142 672 92 675 l 28 638 b 153 572 131 638 153 636 l 153 328 l 67 275 z "},"":{"ha":617,"x_min":0,"x_max":0,"o":"m 503 506 b 514 644 503 558 504 594 b 326 692 483 661 431 692 b 61 468 178 692 61 608 b 439 186 61 175 439 399 b 267 31 439 75 353 31 b 111 178 157 31 111 74 l 72 178 b 64 19 72 100 71 68 b 251 -19 113 -4 161 -19 b 556 225 431 -19 556 89 b 172 513 556 510 172 294 b 321 642 172 589 232 642 b 436 608 375 642 404 632 b 464 506 454 594 463 572 z m 310 838 l 142 981 l 93 981 l 267 749 l 353 749 l 526 981 l 479 981 z "},"":{"ha":694,"x_min":0,"x_max":0,"o":"m 28 0 b 394 -4 85 -4 281 -4 b 650 0 492 -4 574 -4 b 663 183 654 60 654 122 l 619 183 b 522 53 613 82 610 57 b 292 47 428 49 364 47 b 193 50 253 47 218 49 l 658 636 l 658 676 b 436 672 615 675 553 672 b 81 676 294 672 129 675 b 83 593 83 650 83 621 b 81 506 83 561 82 533 l 119 511 l 122 542 b 319 622 128 624 140 622 b 486 619 379 622 443 621 l 28 33 z m 349 838 l 181 981 l 132 981 l 306 749 l 392 749 l 565 981 l 518 981 z "},"":{"ha":463,"x_min":0,"x_max":0,"o":"m 93 919 b 24 850 51 919 24 892 b 93 781 24 808 51 781 b 163 850 135 781 163 808 b 93 919 163 892 135 919 z m 369 919 b 300 850 328 919 300 892 b 369 781 300 808 328 781 b 439 850 411 781 439 808 b 369 919 439 892 411 919 z "},"":{"ha":463,"x_min":0,"x_max":0,"o":"m 36 957 b 232 738 36 839 104 738 b 428 957 360 738 428 839 l 386 957 b 232 821 386 872 304 821 b 78 957 160 821 78 872 z "},"":{"ha":463,"x_min":0,"x_max":0,"o":"m 232 826 l 64 969 l 15 969 l 189 738 l 275 738 l 449 969 l 401 969 z "},"":{"ha":347,"x_min":0,"x_max":0,"o":"m 174 919 b 104 850 132 919 104 892 b 174 781 104 808 132 781 b 243 850 215 781 243 808 b 174 919 243 892 215 919 z "},"":{"ha":463,"x_min":0,"x_max":0,"o":"m 449 782 l 449 856 l 15 856 l 15 782 z "},"":{"ha":435,"x_min":0,"x_max":0,"o":"m 374 -161 b 254 -232 344 -196 296 -232 b 174 -151 183 -232 174 -196 b 253 -28 174 -104 224 -56 l 193 -28 b 69 -185 131 -53 69 -124 b 215 -312 69 -258 114 -312 b 400 -203 286 -312 346 -261 z "},"":{"ha":463,"x_min":0,"x_max":0,"o":"m 232 1001 b 93 863 156 1001 92 939 b 232 724 92 786 156 724 b 371 863 308 724 372 786 b 232 1001 372 939 308 1001 z m 232 951 b 318 863 283 951 318 917 b 232 774 318 808 283 774 b 146 863 181 774 146 808 b 232 951 146 917 181 951 z "},"":{"ha":463,"x_min":0,"x_max":0,"o":"m 196 -150 l 206 -158 b 263 -149 225 -153 242 -149 b 318 -199 289 -149 318 -167 b 238 -262 318 -251 285 -262 b 153 -247 211 -262 178 -254 l 133 -290 b 253 -312 183 -306 203 -312 b 422 -196 326 -312 422 -286 b 307 -99 422 -131 368 -99 b 267 -104 293 -99 279 -100 l 301 -14 l 254 -14 z "},"":{"ha":617,"x_min":0,"x_max":0,"o":"m 549 -115 l 508 -104 l 481 -171 b 354 -229 463 -214 414 -229 b 189 -76 258 -229 189 -162 b 296 113 189 -7 242 53 b 403 290 349 171 403 228 b 342 392 403 332 378 371 l 313 372 b 343 304 326 356 343 335 b 201 124 343 243 272 188 b 60 -104 131 60 60 -11 b 322 -321 60 -247 186 -321 b 496 -272 382 -321 444 -299 z m 335 490 b 417 571 379 490 417 529 b 335 651 417 613 378 651 b 256 571 293 651 256 613 b 335 490 256 529 292 490 z "},"":{"ha":849,"x_min":0,"x_max":0,"o":"m 403 692 l 172 185 b 25 35 110 43 88 35 l 25 -4 b 161 0 88 -3 119 0 b 306 -4 211 0 260 -3 l 306 35 b 203 85 235 35 203 46 b 250 211 203 136 238 182 b 390 214 297 213 344 214 b 533 211 439 214 486 213 b 589 72 551 172 589 103 b 486 35 589 46 568 35 l 486 -4 b 657 0 547 -3 599 0 b 822 -4 717 0 800 -3 l 822 35 b 697 143 769 35 740 40 l 456 692 z m 396 542 l 513 269 b 386 267 467 268 431 267 b 274 269 346 267 310 268 z m 458 765 l 514 765 l 322 957 b 249 1003 301 978 271 1003 b 203 954 219 1003 203 982 b 258 890 203 922 235 904 z "},"":{"ha":849,"x_min":0,"x_max":0,"o":"m 403 692 l 172 185 b 25 35 110 43 88 35 l 25 -4 b 161 0 88 -3 119 0 b 306 -4 211 0 260 -3 l 306 35 b 203 85 235 35 203 46 b 250 211 203 136 238 182 b 390 214 297 213 344 214 b 533 211 439 214 486 213 b 589 72 551 172 589 103 b 486 35 589 46 568 35 l 486 -4 b 657 0 547 -3 599 0 b 822 -4 717 0 800 -3 l 822 35 b 697 143 769 35 740 40 l 456 692 z m 396 542 l 513 269 b 386 267 467 268 431 267 b 274 269 346 267 310 268 z m 301 765 l 357 765 l 557 890 b 613 954 581 904 613 922 b 567 1003 613 982 596 1003 b 493 957 544 1003 514 978 z "},"":{"ha":849,"x_min":0,"x_max":0,"o":"m 403 692 l 172 185 b 25 35 110 43 88 35 l 25 -4 b 161 0 88 -3 119 0 b 306 -4 211 0 260 -3 l 306 35 b 203 85 235 35 203 46 b 250 211 203 136 238 182 b 390 214 297 213 344 214 b 533 211 439 214 486 213 b 589 72 551 172 589 103 b 486 35 589 46 568 35 l 486 -4 b 657 0 547 -3 599 0 b 822 -4 717 0 800 -3 l 822 35 b 697 143 769 35 740 40 l 456 692 z m 396 542 l 513 269 b 386 267 467 268 431 267 b 274 269 346 267 310 268 z m 365 997 l 192 765 l 240 765 l 408 908 l 576 765 l 625 765 l 451 997 z "},"":{"ha":849,"x_min":0,"x_max":0,"o":"m 403 692 l 172 185 b 25 35 110 43 88 35 l 25 -4 b 161 0 88 -3 119 0 b 306 -4 211 0 260 -3 l 306 35 b 203 85 235 35 203 46 b 250 211 203 136 238 182 b 390 214 297 213 344 214 b 533 211 439 214 486 213 b 589 72 551 172 589 103 b 486 35 589 46 568 35 l 486 -4 b 657 0 547 -3 599 0 b 822 -4 717 0 800 -3 l 822 35 b 697 143 769 35 740 40 l 456 692 z m 396 542 l 513 269 b 386 267 467 268 431 267 b 274 269 346 267 310 268 z m 597 940 b 519 871 581 899 567 876 b 436 899 493 868 460 888 b 331 933 404 914 368 933 b 179 794 246 933 193 875 l 219 794 b 293 857 232 828 256 857 b 361 836 315 857 343 844 b 490 794 411 814 433 794 b 601 851 542 794 578 821 b 638 940 626 883 638 919 z "},"":{"ha":849,"x_min":0,"x_max":0,"o":"m 403 692 l 172 185 b 25 35 110 43 88 35 l 25 -4 b 161 0 88 -3 119 0 b 306 -4 211 0 260 -3 l 306 35 b 203 85 235 35 203 46 b 250 211 203 136 238 182 b 390 214 297 213 344 214 b 533 211 439 214 486 213 b 589 72 551 172 589 103 b 486 35 589 46 568 35 l 486 -4 b 657 0 547 -3 599 0 b 822 -4 717 0 800 -3 l 822 35 b 697 143 769 35 740 40 l 456 692 z m 396 542 l 513 269 b 386 267 467 268 431 267 b 274 269 346 267 310 268 z m 269 947 b 200 878 228 947 200 919 b 269 808 200 836 228 808 b 339 878 311 808 339 836 b 269 947 339 919 311 947 z m 546 947 b 476 878 504 947 476 919 b 546 808 476 836 504 808 b 615 878 588 808 615 836 b 546 947 615 919 588 947 z "},"":{"ha":849,"x_min":0,"x_max":0,"o":"m 403 692 l 172 185 b 25 35 110 43 88 35 l 25 -4 b 161 0 88 -3 119 0 b 306 -4 211 0 260 -3 l 306 35 b 203 85 235 35 203 46 b 250 211 203 136 238 182 b 390 214 297 213 344 214 b 533 211 439 214 486 213 b 589 72 551 172 589 103 b 486 35 589 46 568 35 l 486 -4 b 657 0 547 -3 599 0 b 822 -4 717 0 800 -3 l 822 35 b 697 143 769 35 740 40 l 456 692 z m 396 542 l 513 269 b 386 267 467 268 431 267 b 274 269 346 267 310 268 z m 408 1029 b 269 890 332 1029 268 967 b 408 751 268 814 332 751 b 547 890 485 751 549 814 b 408 1029 549 967 485 1029 z m 408 979 b 494 890 460 979 494 944 b 408 801 494 836 460 801 b 322 890 357 801 322 836 b 408 979 322 944 357 979 z "},"":{"ha":1081,"x_min":0,"x_max":0,"o":"m 278 633 b 406 603 368 633 406 631 b 365 517 406 585 386 553 l 193 203 b 11 39 124 76 97 39 l 11 0 b 147 6 71 3 111 6 b 311 0 203 6 257 3 l 311 39 b 206 78 249 39 206 44 b 279 236 206 111 254 188 b 404 239 307 238 356 239 b 542 236 447 239 506 238 b 536 56 542 181 539 79 l 478 31 l 478 0 b 601 6 526 3 554 6 b 818 0 636 6 696 0 b 1006 6 889 0 947 1 l 1022 194 l 981 194 l 953 72 b 774 53 908 58 839 53 b 669 61 738 53 694 57 b 664 322 668 147 665 233 b 749 325 690 324 719 325 b 882 225 854 325 879 324 l 924 225 b 917 365 921 272 917 318 b 924 469 917 400 921 431 l 882 469 b 811 375 881 397 865 375 b 664 376 756 375 706 376 b 667 614 665 457 665 535 b 754 622 692 619 729 622 b 944 608 800 622 881 617 l 961 503 l 997 503 l 1010 667 b 832 678 975 672 917 678 b 674 672 774 678 724 675 b 514 667 622 669 572 667 b 278 672 438 667 357 671 z m 307 292 l 346 361 b 519 631 396 450 492 631 b 547 376 540 631 547 594 b 544 292 547 346 546 311 z "},"":{"ha":772,"x_min":0,"x_max":0,"o":"m 351 -150 l 361 -158 b 418 -149 381 -153 397 -149 b 474 -199 444 -149 474 -167 b 393 -262 474 -251 440 -262 b 308 -247 367 -262 333 -254 l 289 -290 b 408 -312 339 -306 358 -312 b 578 -196 482 -312 578 -286 b 463 -99 578 -131 524 -99 b 422 -104 449 -99 435 -100 l 457 -18 b 714 50 578 -17 674 17 l 733 103 l 717 113 b 494 42 651 61 589 42 b 200 340 296 42 200 181 b 454 642 200 528 308 642 b 664 556 569 642 626 600 l 669 461 l 708 461 b 725 642 708 497 711 574 b 471 692 661 671 544 692 b 61 329 238 692 61 564 b 410 -17 61 139 206 -4 z "},"":{"ha":694,"x_min":0,"x_max":0,"o":"m 161 150 b 42 35 161 51 153 35 l 42 -4 b 221 0 110 -3 158 0 b 436 -4 288 0 356 -4 b 625 3 501 -4 569 -3 b 636 192 631 57 635 121 l 600 192 b 569 67 593 146 583 104 b 414 50 536 57 475 50 b 292 56 367 50 329 53 b 286 324 288 121 286 213 b 365 326 308 325 331 326 b 497 222 486 326 497 310 l 539 222 b 536 351 538 261 536 308 b 539 469 536 389 538 432 l 497 469 b 419 376 497 392 486 376 b 286 379 356 376 318 378 b 289 622 286 460 285 550 b 376 631 314 626 343 631 b 564 617 443 631 510 626 b 578 506 572 588 574 558 l 617 506 b 633 672 619 572 625 625 b 465 683 589 679 521 683 b 314 678 415 683 364 681 b 163 672 264 675 214 672 b 32 676 114 672 75 675 l 32 639 b 161 542 136 639 161 633 z m 415 765 l 471 765 l 279 957 b 206 1003 258 978 228 1003 b 160 954 176 1003 160 982 b 215 890 160 922 192 904 z "},"":{"ha":694,"x_min":0,"x_max":0,"o":"m 161 150 b 42 35 161 51 153 35 l 42 -4 b 221 0 110 -3 158 0 b 436 -4 288 0 356 -4 b 625 3 501 -4 569 -3 b 636 192 631 57 635 121 l 600 192 b 569 67 593 146 583 104 b 414 50 536 57 475 50 b 292 56 367 50 329 53 b 286 324 288 121 286 213 b 365 326 308 325 331 326 b 497 222 486 326 497 310 l 539 222 b 536 351 538 261 536 308 b 539 469 536 389 538 432 l 497 469 b 419 376 497 392 486 376 b 286 379 356 376 318 378 b 289 622 286 460 285 550 b 376 631 314 626 343 631 b 564 617 443 631 510 626 b 578 506 572 588 574 558 l 617 506 b 633 672 619 572 625 625 b 465 683 589 679 521 683 b 314 678 415 683 364 681 b 163 672 264 675 214 672 b 32 676 114 672 75 675 l 32 639 b 161 542 136 639 161 633 z m 258 765 l 314 765 l 514 890 b 569 954 538 904 569 922 b 524 1003 569 982 553 1003 b 450 957 501 1003 471 978 z "},"":{"ha":694,"x_min":0,"x_max":0,"o":"m 161 150 b 42 35 161 51 153 35 l 42 -4 b 221 0 110 -3 158 0 b 436 -4 288 0 356 -4 b 625 3 501 -4 569 -3 b 636 192 631 57 635 121 l 600 192 b 569 67 593 146 583 104 b 414 50 536 57 475 50 b 292 56 367 50 329 53 b 286 324 288 121 286 213 b 365 326 308 325 331 326 b 497 222 486 326 497 310 l 539 222 b 536 351 538 261 536 308 b 539 469 536 389 538 432 l 497 469 b 419 376 497 392 486 376 b 286 379 356 376 318 378 b 289 622 286 460 285 550 b 376 631 314 626 343 631 b 564 617 443 631 510 626 b 578 506 572 588 574 558 l 617 506 b 633 672 619 572 625 625 b 465 683 589 679 521 683 b 314 678 415 683 364 681 b 163 672 264 675 214 672 b 32 676 114 672 75 675 l 32 639 b 161 542 136 639 161 633 z m 322 997 l 149 765 l 197 765 l 365 908 l 533 765 l 582 765 l 408 997 z "},"":{"ha":694,"x_min":0,"x_max":0,"o":"m 161 150 b 42 35 161 51 153 35 l 42 -4 b 221 0 110 -3 158 0 b 436 -4 288 0 356 -4 b 625 3 501 -4 569 -3 b 636 192 631 57 635 121 l 600 192 b 569 67 593 146 583 104 b 414 50 536 57 475 50 b 292 56 367 50 329 53 b 286 324 288 121 286 213 b 365 326 308 325 331 326 b 497 222 486 326 497 310 l 539 222 b 536 351 538 261 536 308 b 539 469 536 389 538 432 l 497 469 b 419 376 497 392 486 376 b 286 379 356 376 318 378 b 289 622 286 460 285 550 b 376 631 314 626 343 631 b 564 617 443 631 510 626 b 578 506 572 588 574 558 l 617 506 b 633 672 619 572 625 625 b 465 683 589 679 521 683 b 314 678 415 683 364 681 b 163 672 264 675 214 672 b 32 676 114 672 75 675 l 32 639 b 161 542 136 639 161 633 z m 210 947 b 140 878 168 947 140 919 b 210 808 140 836 168 808 b 279 878 251 808 279 836 b 210 947 279 919 251 947 z m 486 947 b 417 878 444 947 417 919 b 486 808 417 836 444 808 b 556 878 528 808 556 836 b 486 947 556 919 528 947 z "},"":{"ha":463,"x_min":0,"x_max":0,"o":"m 167 128 b 42 35 167 44 144 35 l 42 -4 b 232 0 106 -3 168 0 b 417 -4 294 0 356 -3 l 417 35 b 292 128 303 35 292 44 l 292 561 b 417 638 292 636 314 638 l 417 676 b 225 672 340 675 292 672 b 42 676 153 672 92 675 l 42 638 b 167 561 133 638 167 635 z m 315 765 l 371 765 l 179 957 b 106 1003 158 978 128 1003 b 60 954 76 1003 60 982 b 115 890 60 922 92 904 z "},"":{"ha":463,"x_min":0,"x_max":0,"o":"m 167 128 b 42 35 167 44 144 35 l 42 -4 b 232 0 106 -3 168 0 b 417 -4 294 0 356 -3 l 417 35 b 292 128 303 35 292 44 l 292 561 b 417 638 292 636 314 638 l 417 676 b 225 672 340 675 292 672 b 42 676 153 672 92 675 l 42 638 b 167 561 133 638 167 635 z m 125 765 l 181 765 l 381 890 b 436 954 404 904 436 922 b 390 1003 436 982 419 1003 b 317 957 368 1003 338 978 z "},"":{"ha":463,"x_min":0,"x_max":0,"o":"m 167 128 b 42 35 167 44 144 35 l 42 -4 b 232 0 106 -3 168 0 b 417 -4 294 0 356 -3 l 417 35 b 292 128 303 35 292 44 l 292 561 b 417 638 292 636 314 638 l 417 676 b 225 672 340 675 292 672 b 42 676 153 672 92 675 l 42 638 b 167 561 133 638 167 635 z m 206 997 l 32 765 l 81 765 l 249 908 l 417 765 l 465 765 l 292 997 z "},"":{"ha":463,"x_min":0,"x_max":0,"o":"m 167 128 b 42 35 167 44 144 35 l 42 -4 b 232 0 106 -3 168 0 b 417 -4 294 0 356 -3 l 417 35 b 292 128 303 35 292 44 l 292 561 b 417 638 292 636 314 638 l 417 676 b 225 672 340 675 292 672 b 42 676 153 672 92 675 l 42 638 b 167 561 133 638 167 635 z m 110 947 b 40 878 68 947 40 919 b 110 808 40 836 68 808 b 179 878 151 808 179 836 b 110 947 179 919 151 947 z m 386 947 b 317 878 344 947 317 919 b 386 808 317 836 344 808 b 456 878 428 808 456 836 b 386 947 456 919 428 947 z "},"":{"ha":849,"x_min":0,"x_max":0,"o":"m 286 328 l 467 328 l 467 383 l 286 383 l 286 524 b 289 617 286 558 288 582 b 392 625 310 621 351 625 b 647 349 533 625 647 540 b 378 53 647 190 575 53 b 286 58 354 53 325 56 z m 161 157 b 94 25 161 65 143 44 l 94 -3 b 224 0 135 -1 179 0 b 400 -3 281 0 342 -3 b 786 375 697 -3 786 232 b 418 675 786 558 661 675 b 222 672 347 675 288 672 b 50 675 161 672 108 672 l 50 636 b 161 556 139 636 161 614 l 161 383 l 50 383 l 50 328 l 161 328 z "},"":{"ha":926,"x_min":0,"x_max":0,"o":"m 161 119 b 33 35 161 50 140 35 l 33 -4 b 179 0 81 -3 131 0 b 336 -4 232 0 285 -3 l 336 35 b 217 111 231 35 217 42 l 217 533 l 219 533 l 664 -6 l 775 -19 b 767 128 772 26 767 72 l 767 531 b 894 638 767 628 789 638 l 894 676 b 739 672 842 675 792 672 b 583 676 694 672 640 675 l 583 638 b 711 567 671 638 711 631 l 711 133 l 708 133 b 269 676 565 315 411 492 b 153 672 232 675 189 672 b 39 676 108 672 75 675 l 39 638 b 161 579 132 636 161 624 z m 636 940 b 558 871 619 899 606 876 b 475 899 532 868 499 888 b 369 933 443 914 407 933 b 218 794 285 933 232 875 l 258 794 b 332 857 271 828 294 857 b 400 836 354 857 382 844 b 529 794 450 814 472 794 b 640 851 581 794 617 821 b 676 940 665 883 676 919 z "},"":{"ha":849,"x_min":0,"x_max":0,"o":"m 435 692 b 56 328 233 692 56 567 b 414 -19 56 106 247 -19 b 792 360 650 -19 792 172 b 435 692 792 531 674 692 z m 408 644 b 653 328 581 644 653 500 b 447 36 653 194 611 36 b 194 369 253 36 194 217 b 408 644 194 544 289 644 z m 475 765 l 531 765 l 339 957 b 265 1003 318 978 288 1003 b 219 954 236 1003 219 982 b 275 890 219 922 251 904 z "},"":{"ha":849,"x_min":0,"x_max":0,"o":"m 435 692 b 56 328 233 692 56 567 b 414 -19 56 106 247 -19 b 792 360 650 -19 792 172 b 435 692 792 531 674 692 z m 408 644 b 653 328 581 644 653 500 b 447 36 653 194 611 36 b 194 369 253 36 194 217 b 408 644 194 544 289 644 z m 301 765 l 357 765 l 557 890 b 613 954 581 904 613 922 b 567 1003 613 982 596 1003 b 493 957 544 1003 514 978 z "},"":{"ha":849,"x_min":0,"x_max":0,"o":"m 435 692 b 56 328 233 692 56 567 b 414 -19 56 106 247 -19 b 792 360 650 -19 792 172 b 435 692 792 531 674 692 z m 408 644 b 653 328 581 644 653 500 b 447 36 653 194 611 36 b 194 369 253 36 194 217 b 408 644 194 544 289 644 z m 382 997 l 208 765 l 257 765 l 425 908 l 593 765 l 642 765 l 468 997 z "},"":{"ha":849,"x_min":0,"x_max":0,"o":"m 435 692 b 56 328 233 692 56 567 b 414 -19 56 106 247 -19 b 792 360 650 -19 792 172 b 435 692 792 531 674 692 z m 408 644 b 653 328 581 644 653 500 b 447 36 653 194 611 36 b 194 369 253 36 194 217 b 408 644 194 544 289 644 z m 614 940 b 536 871 597 899 583 876 b 453 899 510 868 476 888 b 347 933 421 914 385 933 b 196 794 263 933 210 875 l 236 794 b 310 857 249 828 272 857 b 378 836 332 857 360 844 b 507 794 428 814 450 794 b 618 851 558 794 594 821 b 654 940 643 883 654 919 z "},"":{"ha":849,"x_min":0,"x_max":0,"o":"m 435 692 b 56 328 233 692 56 567 b 414 -19 56 106 247 -19 b 792 360 650 -19 792 172 b 435 692 792 531 674 692 z m 408 644 b 653 328 581 644 653 500 b 447 36 653 194 611 36 b 194 369 253 36 194 217 b 408 644 194 544 289 644 z m 286 947 b 217 878 244 947 217 919 b 286 808 217 836 244 808 b 356 878 328 808 356 836 b 286 947 356 919 328 947 z m 563 947 b 493 878 521 947 493 919 b 563 808 493 836 521 808 b 632 878 604 808 632 836 b 563 947 632 919 604 947 z "},"":{"ha":1157,"x_min":0,"x_max":0,"o":"m 614 251 b 606 61 614 164 611 113 b 483 36 588 51 547 36 b 197 349 267 36 197 207 b 451 642 197 556 328 642 b 608 597 510 642 556 624 b 614 494 611 563 614 533 z m 739 317 b 844 322 788 319 814 322 b 961 225 947 322 961 310 l 1003 225 b 997 347 1000 269 997 308 b 1003 464 997 389 1000 419 l 961 464 b 885 375 961 386 953 375 b 739 378 792 375 760 376 l 739 617 b 844 622 774 618 808 622 b 1025 608 893 622 981 617 b 1044 500 1036 569 1039 536 l 1078 500 l 1092 667 b 906 678 1047 671 986 678 b 686 667 821 678 753 667 b 564 679 646 667 606 674 b 440 692 524 686 482 692 b 58 353 185 692 58 531 b 428 -19 58 167 200 -19 b 556 -7 460 -19 494 -12 b 850 6 618 0 707 6 b 1089 0 942 6 1057 1 l 1103 192 l 1064 192 l 1033 69 b 856 53 983 60 931 53 b 739 58 803 53 775 56 z "},"":{"ha":849,"x_min":0,"x_max":0,"o":"m 228 188 b 194 369 204 244 194 310 b 408 644 194 544 289 644 b 596 549 494 644 556 608 z m 622 500 b 653 328 643 451 653 392 b 447 36 653 194 611 36 b 254 138 353 36 292 78 z m 792 667 l 753 703 l 668 619 b 435 692 613 664 535 692 b 56 328 233 692 56 567 b 140 103 56 235 89 160 l 44 8 l 83 -31 l 181 65 b 414 -19 249 10 333 -19 b 792 360 650 -19 792 172 b 708 585 792 443 764 524 z "},"":{"ha":849,"x_min":0,"x_max":0,"o":"m 269 582 b 375 640 269 622 286 638 l 375 676 b 206 672 294 675 250 672 b 28 676 147 672 88 675 l 28 638 b 144 568 108 638 144 631 l 144 243 b 428 -19 144 75 197 -19 b 701 256 661 -19 701 113 l 701 554 b 819 638 701 628 719 638 l 819 676 b 676 672 783 675 738 672 b 528 676 628 672 578 675 l 528 638 b 646 549 636 638 646 625 l 646 249 b 457 53 646 107 578 53 b 269 246 314 53 269 126 z m 458 765 l 514 765 l 322 957 b 249 1003 301 978 271 1003 b 203 954 219 1003 203 982 b 258 890 203 922 235 904 z "},"":{"ha":849,"x_min":0,"x_max":0,"o":"m 269 582 b 375 640 269 622 286 638 l 375 676 b 206 672 294 675 250 672 b 28 676 147 672 88 675 l 28 638 b 144 568 108 638 144 631 l 144 243 b 428 -19 144 75 197 -19 b 701 256 661 -19 701 113 l 701 554 b 819 638 701 628 719 638 l 819 676 b 676 672 783 675 738 672 b 528 676 628 672 578 675 l 528 638 b 646 549 636 638 646 625 l 646 249 b 457 53 646 107 578 53 b 269 246 314 53 269 126 z m 335 765 l 390 765 l 590 890 b 646 954 614 904 646 922 b 600 1003 646 982 629 1003 b 526 957 578 1003 547 978 z "},"":{"ha":849,"x_min":0,"x_max":0,"o":"m 269 582 b 375 640 269 622 286 638 l 375 676 b 206 672 294 675 250 672 b 28 676 147 672 88 675 l 28 638 b 144 568 108 638 144 631 l 144 243 b 428 -19 144 75 197 -19 b 701 256 661 -19 701 113 l 701 554 b 819 638 701 628 719 638 l 819 676 b 676 672 783 675 738 672 b 528 676 628 672 578 675 l 528 638 b 646 549 636 638 646 625 l 646 249 b 457 53 646 107 578 53 b 269 246 314 53 269 126 z m 382 997 l 208 765 l 257 765 l 425 908 l 593 765 l 642 765 l 468 997 z "},"":{"ha":849,"x_min":0,"x_max":0,"o":"m 269 582 b 375 640 269 622 286 638 l 375 676 b 206 672 294 675 250 672 b 28 676 147 672 88 675 l 28 638 b 144 568 108 638 144 631 l 144 243 b 428 -19 144 75 197 -19 b 701 256 661 -19 701 113 l 701 554 b 819 638 701 628 719 638 l 819 676 b 676 672 783 675 738 672 b 528 676 628 672 578 675 l 528 638 b 646 549 636 638 646 625 l 646 249 b 457 53 646 107 578 53 b 269 246 314 53 269 126 z m 286 947 b 217 878 244 947 217 919 b 286 808 217 836 244 808 b 356 878 328 808 356 836 b 286 947 356 919 328 947 z m 563 947 b 493 878 521 947 493 919 b 563 808 493 836 521 808 b 632 878 604 808 632 836 b 563 947 632 919 604 947 z "},"":{"ha":694,"x_min":0,"x_max":0,"o":"m 172 -4 b 356 0 233 -3 283 0 b 539 -4 406 0 478 -3 l 539 35 b 419 132 456 35 419 38 l 419 275 b 667 653 497 413 585 560 l 667 672 l 572 672 b 392 344 522 576 422 399 l 267 575 b 163 685 235 635 199 672 b 19 661 124 674 63 668 l 19 622 b 143 532 69 622 85 614 b 294 283 181 479 232 396 l 294 101 b 172 35 294 56 275 35 z m 269 765 l 325 765 l 525 890 b 581 954 549 904 581 922 b 535 1003 581 982 564 1003 b 461 957 513 1003 482 978 z "},"":{"ha":694,"x_min":0,"x_max":0,"o":"m 158 128 b 33 35 158 44 136 35 l 33 -4 b 224 0 97 -3 160 0 b 408 -4 286 0 347 -3 l 408 35 b 283 128 294 35 283 44 l 283 450 b 367 467 308 458 333 467 b 519 331 461 467 519 417 b 381 186 519 244 475 186 b 336 197 364 186 347 190 l 344 156 b 400 144 354 150 369 144 b 650 347 575 144 650 254 b 415 514 650 453 603 514 b 283 500 358 514 322 508 l 283 561 b 408 638 283 636 306 638 l 408 676 b 217 672 332 675 283 672 b 33 676 144 672 83 674 l 33 638 b 158 561 125 638 158 636 z "},"":{"ha":694,"x_min":0,"x_max":0,"o":"m 172 -4 b 356 0 233 -3 283 0 b 539 -4 406 0 478 -3 l 539 35 b 419 132 456 35 419 38 l 419 275 b 667 653 497 413 585 560 l 667 672 l 572 672 b 392 344 522 576 422 399 l 267 575 b 163 685 235 635 199 672 b 19 661 124 674 63 668 l 19 622 b 143 532 69 622 85 614 b 294 283 181 479 232 396 l 294 101 b 172 35 294 56 275 35 z m 210 947 b 140 878 168 947 140 919 b 210 808 140 836 168 808 b 279 878 251 808 279 836 b 210 947 279 919 251 947 z m 486 947 b 417 878 444 947 417 919 b 486 808 417 836 444 808 b 556 878 528 808 556 836 b 486 947 556 919 528 947 z "},"∆":{"ha":799,"x_min":0,"x_max":0,"o":"m 753 0 l 753 31 l 417 963 l 371 949 l 44 31 l 44 0 z m 625 60 l 111 60 l 365 792 z "},"Ω":{"ha":910,"x_min":0,"x_max":0,"o":"m 865 185 l 832 188 b 738 83 806 94 790 83 l 600 83 b 817 539 689 182 817 338 b 456 963 817 804 664 963 b 89 529 251 963 89 796 b 303 83 89 306 225 160 l 169 83 b 74 188 121 83 100 97 l 42 185 l 71 0 l 361 0 l 371 24 b 208 519 303 154 208 326 b 453 924 208 817 319 924 b 700 526 576 924 699 815 b 535 24 701 328 590 142 l 542 0 l 835 0 z "},"μ":{"ha":797,"x_min":0,"x_max":0,"o":"m 781 35 l 781 74 b 728 71 756 72 739 71 b 676 93 699 71 682 78 b 669 258 671 111 669 167 l 669 364 b 674 644 669 417 671 511 l 657 653 b 449 594 592 624 519 604 l 449 556 l 464 556 b 553 467 547 556 553 543 l 553 229 b 389 65 553 140 478 65 b 250 242 296 65 250 119 l 250 411 l 254 644 l 240 653 b 26 594 176 622 99 604 l 26 556 l 42 556 b 133 453 126 556 133 546 l 133 243 b 83 -203 133 101 119 -62 b 71 -257 81 -214 71 -247 l 71 -260 b 121 -300 71 -271 74 -300 b 188 -217 168 -300 188 -261 b 182 74 188 -172 183 -54 b 332 -19 199 18 257 -19 b 468 31 388 -19 425 -7 l 553 104 l 551 -17 l 568 -21 b 781 35 640 6 711 24 z "},"π":{"ha":717,"x_min":0,"x_max":0,"o":"m 649 642 b 572 599 628 606 613 599 b 236 603 446 599 329 603 b 18 488 104 604 54 529 l 38 460 b 204 521 83 496 115 522 b 82 6 204 378 179 131 l 90 -17 b 165 7 110 -14 144 -3 b 251 492 185 31 251 176 l 251 519 b 454 517 306 519 379 518 b 440 158 447 404 440 285 b 551 -17 440 19 486 -17 b 681 74 597 -17 649 11 l 664 99 b 599 57 640 71 625 57 b 540 183 556 57 540 103 b 546 514 540 279 539 429 b 635 519 583 514 614 514 b 681 631 651 543 669 581 z "},"€":{"ha":694,"x_min":0,"x_max":0,"o":"m 669 106 l 657 126 b 485 43 615 78 543 43 b 226 336 354 43 260 154 l 524 336 l 535 390 l 219 390 b 214 490 215 422 214 456 l 214 525 l 560 525 l 571 579 l 218 579 b 443 907 236 767 311 907 b 604 790 525 907 604 864 l 604 701 l 646 701 b 672 908 646 771 658 844 b 461 964 629 932 546 964 b 206 838 361 964 272 922 b 104 579 154 772 119 685 l 39 579 l 28 525 l 99 525 b 97 468 97 506 97 488 b 101 390 97 440 99 415 l 39 390 l 28 336 l 107 336 b 453 -28 143 107 275 -28 b 643 40 507 -28 593 -8 z "},"ℓ":{"ha":521,"x_min":0,"x_max":0,"o":"m 472 139 b 333 44 438 85 393 44 b 218 276 261 44 218 94 l 218 414 b 406 821 321 525 406 654 b 293 999 406 919 368 999 b 186 936 253 999 218 978 b 119 568 131 869 119 796 l 119 393 l 28 317 l 44 286 l 119 346 l 119 225 b 163 28 119 114 133 67 b 290 -25 188 -4 231 -25 b 497 118 381 -25 450 25 z m 218 649 b 283 960 218 878 236 960 b 344 819 324 960 344 903 b 218 474 344 701 292 567 z "},"℮":{"ha":1186,"x_min":0,"x_max":0,"o":"m 1139 450 l 1139 463 b 592 954 1139 735 894 954 b 46 463 290 954 46 735 b 592 -26 46 193 290 -26 b 1024 164 767 -26 926 49 l 944 164 b 593 0 858 65 733 0 b 258 146 463 0 344 57 b 247 176 251 154 247 165 l 247 444 b 254 450 247 449 250 450 z m 938 485 b 932 476 938 482 936 476 l 254 476 b 247 485 250 476 247 482 l 247 749 b 260 782 247 761 251 774 b 593 926 346 869 464 926 b 925 786 722 926 839 871 b 938 754 933 778 938 765 z "},"∂":{"ha":668,"x_min":0,"x_max":0,"o":"m 333 574 b 131 472 253 574 175 529 b 56 247 90 419 56 342 b 285 -25 56 75 149 -25 b 540 185 404 -25 489 61 b 600 531 585 288 600 429 b 538 849 600 613 589 743 b 279 1042 481 969 399 1042 b 104 988 208 1042 147 1017 b 140 910 93 958 119 907 b 310 981 185 949 244 981 b 482 844 393 981 457 910 b 517 628 508 772 518 696 b 506 481 515 575 510 525 b 335 574 463 546 393 574 z m 358 524 b 496 424 426 524 479 463 b 433 160 482 315 468 242 b 283 14 403 89 354 14 b 158 190 204 14 158 97 b 217 443 158 282 178 378 b 357 524 256 500 303 524 z "},"∏":{"ha":863,"x_min":0,"x_max":0,"o":"m 825 949 l 35 949 l 35 915 b 150 825 143 907 150 899 l 150 17 b 39 -87 150 -71 140 -79 l 39 -119 l 350 -119 l 350 -87 b 253 17 251 -78 253 -67 l 253 868 b 296 907 253 903 260 907 l 563 907 b 608 864 601 907 608 901 l 608 17 b 503 -87 608 -74 601 -79 l 503 -119 l 822 -119 l 822 -87 b 710 17 719 -79 710 -68 l 710 825 b 825 915 710 899 715 907 z "},"∑":{"ha":699,"x_min":0,"x_max":0,"o":"m 668 117 l 633 126 b 456 -31 582 -22 565 -31 l 129 -31 l 418 458 l 174 907 l 421 907 b 556 864 518 907 539 897 b 596 733 572 835 585 794 l 629 740 b 614 949 624 825 615 924 l 43 949 l 43 919 l 326 388 l 38 -93 l 38 -124 l 613 -124 z "},"∙":{"ha":347,"x_min":0,"x_max":0,"o":"m 172 282 b 254 363 217 282 254 321 b 172 443 254 404 215 443 b 93 363 131 443 93 404 b 172 282 93 321 129 282 z "},"√":{"ha":704,"x_min":0,"x_max":0,"o":"m 679 1218 l 631 1231 l 453 11 l 450 11 l 235 615 l 40 525 l 54 485 l 165 536 l 443 -214 l 468 -201 z "},"∞":{"ha":979,"x_min":0,"x_max":0,"o":"m 915 394 b 729 593 915 513 838 593 b 494 444 621 593 557 514 b 263 593 428 525 357 593 b 61 389 146 593 61 507 b 253 188 61 274 150 188 b 490 336 356 188 424 260 b 721 188 578 232 642 188 b 915 393 821 188 915 267 z m 261 254 b 132 388 185 254 132 313 b 256 528 132 464 176 528 b 453 386 343 528 397 456 b 264 254 401 329 342 254 z m 721 528 b 846 389 794 528 846 475 b 724 254 846 325 801 254 b 529 392 657 254 611 299 b 719 528 572 438 638 528 z "},"∫":{"ha":482,"x_min":0,"x_max":0,"o":"m 210 22 b 154 -203 217 -114 194 -203 b 89 -142 125 -203 125 -142 b 26 -200 54 -142 25 -167 b 103 -261 26 -233 57 -261 b 299 342 217 -261 321 -154 l 275 868 b 333 1096 267 1053 304 1096 b 400 1039 364 1096 358 1039 b 456 1093 429 1039 456 1057 b 379 1151 454 1133 413 1151 b 183 590 271 1151 163 1060 z "},"≈":{"ha":686,"x_min":0,"x_max":0,"o":"m 588 578 b 474 483 554 518 522 483 b 361 528 433 483 404 503 b 225 578 329 546 285 578 b 51 453 151 578 88 528 l 99 417 b 217 510 128 467 161 510 b 329 467 257 510 292 490 b 471 415 386 433 421 415 b 632 540 546 415 600 472 z m 588 360 b 474 265 553 300 522 265 b 361 310 432 265 401 286 b 225 360 329 328 286 360 b 51 235 151 360 88 310 l 99 197 b 218 293 126 246 160 293 b 329 249 257 293 290 272 b 471 197 386 215 421 197 b 632 322 547 197 599 254 z "},"≠":{"ha":686,"x_min":0,"x_max":0,"o":"m 492 664 l 438 688 l 374 544 l 63 544 l 63 475 l 347 475 l 268 294 l 63 294 l 63 225 l 240 225 l 186 104 l 242 82 l 306 225 l 622 225 l 622 294 l 332 294 l 413 475 l 622 475 l 622 544 l 439 544 z "},"≤":{"ha":686,"x_min":0,"x_max":0,"o":"m 619 143 l 619 226 l 142 467 l 142 469 l 619 708 l 619 792 l 69 504 l 69 431 z m 624 19 l 624 90 l 64 90 l 64 19 z "},"≥":{"ha":686,"x_min":0,"x_max":0,"o":"m 71 792 l 71 708 l 549 469 l 549 465 l 71 226 l 71 143 l 621 431 l 621 504 z m 624 19 l 624 90 l 64 90 l 64 19 z "},"◊":{"ha":711,"x_min":0,"x_max":0,"o":"m 647 460 l 397 1013 l 315 1013 l 64 460 l 314 -89 l 397 -89 z m 569 460 l 358 -14 l 354 -14 l 142 461 l 354 935 l 358 935 z "}," ":{"ha":347,"x_min":0,"x_max":0,"o":""},"­":{"ha":463,"x_min":0,"x_max":0,"o":"m 392 299 l 433 392 l 426 399 l 61 399 l 24 306 l 31 299 z "},"ˉ":{"ha":463,"x_min":0,"x_max":0,"o":"m 449 747 l 449 821 l 15 821 l 15 747 z "},"":{"ha":694,"x_min":0,"x_max":0,"o":"m 31 289 b 332 -28 31 140 121 -28 b 664 344 507 -28 664 113 b 364 664 664 496 586 664 b 31 289 167 664 31 508 z m 350 19 b 147 342 200 19 147 144 b 347 617 147 528 228 617 b 547 326 492 617 547 517 b 350 19 547 161 500 19 z "},"":{"ha":694,"x_min":0,"x_max":0,"o":"m 597 35 l 504 39 b 428 146 435 43 428 56 l 428 533 b 501 628 428 610 447 618 l 501 672 b 100 571 369 631 185 583 l 103 513 l 125 507 b 296 563 175 515 276 563 b 311 518 308 563 311 550 l 311 138 b 236 42 311 53 297 46 l 133 35 l 133 -4 b 369 0 213 -3 292 0 b 597 -4 446 0 522 -3 z "},"":{"ha":694,"x_min":0,"x_max":0,"o":"m 211 106 l 211 108 b 578 478 394 229 578 314 b 336 664 578 588 485 664 b 164 617 268 664 206 643 l 78 501 l 106 479 b 303 574 165 536 225 574 b 461 443 372 574 461 546 b 78 92 461 303 225 171 b 32 13 63 56 46 29 l 44 -4 b 343 0 144 -1 211 0 b 510 -4 399 0 456 -1 b 650 -12 564 -6 613 -8 b 647 53 649 10 647 31 b 650 121 647 75 649 97 b 490 106 604 113 547 106 z "},"":{"ha":694,"x_min":0,"x_max":0,"o":"m 208 197 b 325 225 243 211 279 225 b 492 49 444 225 492 157 b 169 -253 492 -100 361 -253 b 28 -219 117 -253 69 -235 l 19 -242 b 104 -328 54 -267 68 -281 b 608 103 383 -328 608 -75 b 408 300 608 208 542 300 l 408 303 b 544 494 467 347 544 411 b 324 664 544 603 447 664 b 167 617 264 664 196 636 l 86 506 l 103 481 b 288 575 172 539 213 575 b 428 439 369 575 428 519 b 208 247 428 322 325 264 z "},"":{"ha":694,"x_min":0,"x_max":0,"o":"m 650 92 b 497 83 594 86 550 83 l 497 358 b 506 653 497 444 501 521 l 489 664 l 428 625 b 6 22 281 447 125 222 l 19 0 b 106 3 43 1 69 3 l 317 3 b 386 0 344 3 369 1 l 386 -150 b 375 -325 386 -231 378 -271 l 394 -328 b 503 -292 425 -317 482 -296 b 497 -164 503 -256 497 -217 l 497 0 l 582 0 b 617 -1 594 0 606 0 b 650 -6 628 -3 639 -3 z m 386 83 b 256 81 343 82 306 81 b 108 86 200 81 157 83 b 383 500 213 267 292 375 l 386 500 z "},"":{"ha":694,"x_min":0,"x_max":0,"o":"m 592 544 b 617 650 599 588 606 615 l 600 656 b 453 647 558 650 503 647 l 317 647 b 233 649 288 647 261 649 b 150 653 207 650 179 651 l 139 642 b 150 376 147 558 150 503 b 147 231 150 331 149 279 l 164 222 b 297 253 211 236 239 253 b 475 60 389 253 475 197 b 143 -247 475 -103 336 -247 b 28 -231 86 -247 61 -240 l 19 -253 b 100 -328 53 -278 81 -303 b 592 118 347 -328 592 -64 b 344 342 592 243 511 342 b 200 311 271 342 232 324 b 211 544 200 372 203 492 z "},"":{"ha":694,"x_min":0,"x_max":0,"o":"m 539 972 b 44 336 421 940 40 806 b 339 -19 46 150 147 -19 b 650 314 544 -19 650 153 b 410 581 650 454 575 581 b 183 469 339 581 261 550 l 181 472 b 586 942 213 769 394 878 l 586 950 z m 346 494 b 528 275 456 494 531 417 b 350 28 525 142 481 28 b 169 324 239 28 169 133 b 190 413 169 375 178 394 b 346 494 215 453 281 494 z "},"":{"ha":694,"x_min":0,"x_max":0,"o":"m 686 653 b 314 644 564 649 450 644 b 69 653 225 644 151 649 l 61 644 b 64 522 63 608 64 561 b 58 372 64 450 61 406 l 97 372 l 113 474 b 351 536 121 533 136 536 b 567 518 506 536 567 536 b 497 390 567 511 539 458 b 64 -319 350 150 217 -89 l 75 -328 b 214 -325 150 -324 169 -325 b 686 619 300 -86 508 308 z "},"":{"ha":694,"x_min":0,"x_max":0,"o":"m 644 288 b 433 533 644 428 564 467 b 608 758 500 576 608 647 b 365 964 608 885 500 964 b 69 710 165 964 69 831 b 233 483 69 614 119 547 b 42 221 131 433 42 364 b 317 -19 42 83 150 -19 b 644 288 521 -19 644 146 z m 533 228 b 331 28 533 125 458 28 b 139 231 219 28 139 97 b 283 464 139 358 242 440 b 533 228 504 376 533 315 z m 511 746 b 386 556 511 633 432 583 b 181 763 243 619 181 669 b 353 917 181 858 253 917 b 511 746 433 917 511 876 z "},"":{"ha":694,"x_min":0,"x_max":0,"o":"m 144 -331 b 647 275 222 -331 647 -183 b 342 664 647 553 503 664 b 42 336 203 664 42 558 b 293 53 42 158 144 53 b 517 172 392 53 436 101 b 94 -297 490 -92 336 -240 l 94 -308 z m 342 139 b 158 367 200 139 158 269 b 342 617 158 519 239 617 b 522 346 447 617 522 525 b 342 139 522 225 467 139 z "},"":{"ha":694,"x_min":0,"x_max":0,"o":"m 310 25 b 107 114 236 29 132 64 b 103 150 103 122 103 138 l 103 239 l 58 239 b 42 33 56 172 53 97 b 310 -25 142 -8 247 -25 b 304 -161 308 -76 307 -128 l 367 -161 b 361 -22 365 -121 363 -69 b 654 289 511 0 654 101 b 361 518 654 476 515 503 l 361 879 b 525 803 415 876 513 853 b 529 753 529 786 529 769 l 529 694 l 574 694 b 592 869 574 758 578 819 b 361 929 521 913 439 924 b 367 1015 363 963 364 988 l 304 1015 b 310 925 306 989 308 961 b 42 636 150 904 42 800 b 310 413 42 458 158 429 z m 361 406 b 544 238 468 392 544 358 b 361 25 544 125 458 36 z m 310 526 b 146 685 208 536 146 576 b 310 875 146 789 200 867 z "},"":{"ha":694,"x_min":0,"x_max":0,"o":"m 482 571 b 551 528 508 561 533 549 l 564 436 l 603 436 b 618 617 601 497 607 553 b 507 653 588 636 543 653 l 544 781 l 489 781 l 451 653 b 338 633 425 653 375 651 l 226 578 b 85 296 121 525 85 429 b 256 4 85 172 139 58 l 211 -140 l 268 -140 l 307 -12 b 403 -19 339 -18 371 -19 b 594 28 467 -19 539 -1 l 622 74 l 610 89 b 451 50 558 67 508 50 b 335 81 419 50 375 57 z m 289 117 b 208 351 229 169 208 264 b 429 582 208 542 304 611 z "},"":{"ha":1233,"x_min":0,"x_max":0,"o":"m 503 506 b 514 644 503 558 504 594 b 326 692 483 661 431 692 b 61 468 178 692 61 608 b 439 186 61 175 439 399 b 267 31 439 75 353 31 b 111 178 157 31 111 74 l 72 178 b 64 19 72 100 71 68 b 251 -19 113 -4 161 -19 b 556 225 431 -19 556 89 b 172 513 556 510 172 294 b 321 642 172 589 232 642 b 436 608 375 642 404 632 b 464 506 454 594 463 572 z m 1119 506 b 1131 644 1119 558 1121 594 b 943 692 1100 661 1047 692 b 678 468 794 692 678 608 b 1056 186 678 175 1056 399 b 883 31 1056 75 969 31 b 728 178 774 31 728 74 l 689 178 b 681 19 689 100 688 68 b 868 -19 729 -4 778 -19 b 1172 225 1047 -19 1172 89 b 789 513 1172 510 789 294 b 938 642 789 589 849 642 b 1053 608 992 642 1021 632 b 1081 506 1071 594 1079 572 z "},"∕":{"ha":232,"x_min":0,"x_max":0,"o":"m -158 0 l 468 957 l 396 957 l -231 0 z "},"":{"ha":849,"x_min":0,"x_max":0,"o":"m 403 692 l 172 185 b 25 35 110 43 88 35 l 25 -4 b 161 0 88 -3 119 0 b 306 -4 211 0 260 -3 l 306 35 b 203 85 235 35 203 46 b 250 211 203 136 238 182 b 390 214 297 213 344 214 b 533 211 439 214 486 213 b 589 72 551 172 589 103 b 486 35 589 46 568 35 l 486 -4 b 657 0 547 -3 599 0 b 822 -4 717 0 800 -3 l 822 35 b 697 143 769 35 740 40 l 456 692 z m 396 542 l 513 269 b 386 267 467 268 431 267 b 274 269 346 267 310 268 z "},"":{"ha":694,"x_min":0,"x_max":0,"o":"m 275 347 b 325 353 290 350 307 353 b 508 206 449 353 508 300 b 338 47 508 138 469 47 b 275 53 308 47 294 50 z m 275 625 b 340 631 299 628 317 631 b 481 515 428 631 481 600 b 275 397 481 396 361 397 z m 150 149 b 81 25 150 64 142 47 l 81 -3 b 197 0 117 0 164 0 b 375 -3 253 0 317 -3 b 647 226 528 -3 647 72 b 447 383 647 311 569 382 l 447 386 b 611 540 550 394 611 463 b 417 675 611 631 549 675 b 203 672 339 675 275 672 b 39 675 139 672 86 672 l 39 636 b 150 574 125 636 150 628 z "},"":{"ha":772,"x_min":0,"x_max":0,"o":"m 708 461 b 725 642 708 497 711 574 b 471 692 661 671 544 692 b 61 329 238 692 61 564 b 442 -19 61 128 222 -19 b 714 50 571 -19 672 15 l 733 103 l 717 113 b 494 42 651 61 589 42 b 200 340 296 42 200 181 b 454 642 200 528 308 642 b 664 556 569 642 626 600 l 669 461 z "},"":{"ha":849,"x_min":0,"x_max":0,"o":"m 286 524 b 289 617 286 558 288 582 b 392 625 310 621 351 625 b 647 349 533 625 647 540 b 378 53 647 190 575 53 b 286 58 354 53 325 56 z m 161 157 b 94 25 161 65 143 44 l 94 -3 b 224 0 135 -1 179 0 b 400 -3 281 0 342 -3 b 786 375 697 -3 786 232 b 418 675 786 558 661 675 b 222 672 347 675 288 672 b 50 675 161 672 108 672 l 50 636 b 161 556 139 636 161 614 z "},"":{"ha":694,"x_min":0,"x_max":0,"o":"m 161 150 b 42 35 161 51 153 35 l 42 -4 b 221 0 110 -3 158 0 b 436 -4 288 0 356 -4 b 625 3 501 -4 569 -3 b 636 192 631 57 635 121 l 600 192 b 569 67 593 146 583 104 b 414 50 536 57 475 50 b 292 56 367 50 329 53 b 286 324 288 121 286 213 b 365 326 308 325 331 326 b 497 222 486 326 497 310 l 539 222 b 536 351 538 261 536 308 b 539 469 536 389 538 432 l 497 469 b 419 376 497 392 486 376 b 286 379 356 376 318 378 b 289 622 286 460 285 550 b 376 631 314 626 343 631 b 564 617 443 631 510 626 b 578 506 572 588 574 558 l 617 506 b 633 672 619 572 625 625 b 465 683 589 679 521 683 b 314 678 415 683 364 681 b 163 672 264 675 214 672 b 32 676 114 672 75 675 l 32 639 b 161 542 136 639 161 633 z "},"":{"ha":617,"x_min":0,"x_max":0,"o":"m 150 131 b 25 35 150 53 133 35 l 25 -4 b 206 0 96 -3 133 0 b 394 -4 258 0 356 -3 l 394 35 b 275 117 289 35 275 53 l 275 310 b 374 313 306 311 333 313 b 469 211 446 313 463 310 l 508 211 b 506 332 507 250 506 297 b 508 456 506 360 507 428 l 469 456 b 375 363 458 369 450 363 b 275 365 333 363 294 364 b 278 628 275 485 275 565 b 514 617 349 628 440 628 b 528 508 521 582 525 543 l 567 508 b 583 672 569 572 575 624 b 440 683 554 678 506 683 b 314 678 400 683 357 681 b 186 672 272 675 229 672 b 28 676 132 672 71 675 l 28 638 b 150 547 136 638 150 631 z "},"":{"ha":772,"x_min":0,"x_max":0,"o":"m 676 486 l 701 644 b 442 690 628 665 544 690 b 39 328 194 690 39 514 b 415 -19 39 142 199 -19 b 700 33 500 -19 596 -6 b 696 217 697 71 696 139 l 733 236 l 733 269 b 647 267 715 268 686 267 b 469 269 600 267 544 269 l 469 236 b 578 181 556 233 578 226 b 575 61 578 143 578 96 b 442 33 550 44 511 33 b 183 342 369 33 183 76 b 436 636 183 508 264 639 b 635 553 522 635 631 614 l 639 486 z "},"":{"ha":926,"x_min":0,"x_max":0,"o":"m 164 128 b 39 35 164 50 147 35 l 39 -4 b 214 0 97 -3 156 0 b 408 -4 279 0 346 -3 l 408 35 b 289 128 308 35 289 42 l 289 335 b 468 338 344 336 403 338 b 647 335 533 338 592 336 l 647 128 b 528 35 647 42 628 35 l 528 -4 b 722 0 590 -3 657 0 b 897 -4 781 0 839 -3 l 897 35 b 772 128 789 35 772 50 l 772 553 b 903 638 772 635 792 638 l 903 676 b 718 672 846 675 772 672 b 528 676 654 672 600 675 l 528 638 b 647 553 632 638 647 635 l 647 385 b 468 382 592 383 533 382 b 289 385 403 382 344 383 l 289 553 b 408 638 289 635 304 638 l 408 676 b 218 672 336 675 282 672 b 33 676 164 672 90 675 l 33 638 b 164 553 144 638 164 635 z "},"":{"ha":463,"x_min":0,"x_max":0,"o":"m 167 128 b 42 35 167 44 144 35 l 42 -4 b 232 0 106 -3 168 0 b 417 -4 294 0 356 -3 l 417 35 b 292 128 303 35 292 44 l 292 561 b 417 638 292 636 314 638 l 417 676 b 225 672 340 675 292 672 b 42 676 153 672 92 675 l 42 638 b 167 561 133 638 167 635 z "},"":{"ha":463,"x_min":0,"x_max":0,"o":"m 172 -33 b 103 -143 172 -108 151 -143 b 29 -108 81 -143 61 -142 l 17 -112 b 19 -158 18 -122 19 -139 b 17 -204 19 -178 18 -190 l 36 -204 b 297 93 178 -204 297 -118 l 297 508 b 417 638 297 632 308 638 l 417 676 b 228 672 354 675 286 672 b 44 676 167 672 74 675 l 44 638 b 172 543 153 638 172 629 z "},"":{"ha":772,"x_min":0,"x_max":0,"o":"m 406 676 b 217 672 339 675 289 672 b 39 676 161 672 115 675 l 39 638 b 161 544 142 638 161 633 l 161 128 b 39 35 161 42 139 35 l 39 -4 b 225 0 101 -3 164 0 b 408 -4 286 0 349 -3 l 408 35 b 286 114 303 35 286 42 l 286 328 l 300 333 l 600 -4 b 692 -3 631 -4 661 -3 b 767 -4 717 -3 742 -4 l 767 35 b 696 82 738 35 722 54 l 406 394 l 625 597 b 742 639 665 633 685 639 l 742 676 b 658 675 711 676 682 675 b 558 676 625 675 599 676 l 558 636 b 294 358 483 542 394 461 l 286 360 l 286 558 b 406 638 286 636 297 638 z "},"":{"ha":694,"x_min":0,"x_max":0,"o":"m 153 144 b 72 35 153 53 133 44 l 72 -4 b 217 0 121 -3 158 0 b 456 -4 282 0 322 -4 b 626 0 517 -4 581 -3 b 650 183 631 65 638 124 l 608 183 l 581 71 b 378 51 542 57 464 51 b 283 54 339 51 311 53 b 278 183 279 99 278 136 l 278 551 b 397 638 278 636 308 638 l 397 676 b 206 672 321 675 253 672 b 28 676 142 672 92 675 l 28 638 b 153 572 131 638 153 636 z "},"":{"ha":1081,"x_min":0,"x_max":0,"o":"m 519 -17 l 783 575 l 786 575 l 786 106 b 672 35 786 50 769 35 l 672 -4 b 853 0 738 -3 783 0 b 1025 -4 917 0 972 -3 l 1025 35 b 911 114 936 35 911 47 l 911 547 b 1025 638 911 633 942 638 l 1025 676 b 881 672 981 675 928 672 b 775 676 847 672 808 675 b 543 169 715 533 653 408 b 314 676 457 357 358 561 b 188 672 272 675 229 672 b 47 676 140 672 94 675 l 47 638 b 172 558 136 638 172 625 l 172 125 b 47 35 172 42 142 35 l 47 -4 b 192 0 96 -3 144 0 b 347 -4 243 0 296 -3 l 347 35 b 228 111 253 35 228 44 l 228 553 l 231 553 l 494 -17 z "},"":{"ha":926,"x_min":0,"x_max":0,"o":"m 161 119 b 33 35 161 50 140 35 l 33 -4 b 179 0 81 -3 131 0 b 336 -4 232 0 285 -3 l 336 35 b 217 111 231 35 217 42 l 217 533 l 219 533 l 664 -6 l 775 -19 b 767 128 772 26 767 72 l 767 531 b 894 638 767 628 789 638 l 894 676 b 739 672 842 675 792 672 b 583 676 694 672 640 675 l 583 638 b 711 567 671 638 711 631 l 711 133 l 708 133 b 269 676 565 315 411 492 b 153 672 232 675 189 672 b 39 676 108 672 75 675 l 39 638 b 161 579 132 636 161 624 z "},"":{"ha":849,"x_min":0,"x_max":0,"o":"m 435 692 b 56 328 233 692 56 567 b 414 -19 56 106 247 -19 b 792 360 650 -19 792 172 b 435 692 792 531 674 692 z m 408 644 b 653 328 581 644 653 500 b 447 36 653 194 611 36 b 194 369 253 36 194 217 b 408 644 194 544 289 644 z "},"":{"ha":694,"x_min":0,"x_max":0,"o":"m 158 119 b 33 35 158 56 133 35 l 33 -4 b 222 0 97 -3 160 0 b 406 -4 324 0 372 -3 l 406 35 b 283 119 300 40 283 56 l 283 619 b 369 636 307 626 333 636 b 519 500 453 636 519 583 b 381 356 519 414 478 356 b 336 367 364 356 347 360 l 344 325 b 406 314 357 319 381 314 b 650 517 572 314 650 424 b 415 683 650 611 603 683 b 308 678 379 683 343 681 b 204 672 274 675 240 672 b 33 676 147 672 72 675 l 33 638 b 158 556 147 638 158 628 z "},"":{"ha":849,"x_min":0,"x_max":0,"o":"m 300 -135 b 386 -108 333 -118 356 -108 b 514 -146 422 -108 471 -126 b 683 -192 574 -172 614 -183 b 778 -122 718 -165 739 -147 l 778 -92 b 717 -103 769 -101 739 -103 b 585 -67 657 -103 631 -85 b 456 -19 529 -44 481 -19 l 456 -17 b 792 360 667 3 792 183 b 435 692 792 531 674 692 b 56 328 233 692 56 567 b 414 -19 56 106 247 -19 b 433 -18 421 -19 426 -19 l 433 -22 b 300 -101 410 -25 360 -51 z m 408 644 b 653 328 581 644 653 500 b 447 36 653 194 611 36 b 194 369 253 36 194 217 b 408 644 194 544 289 644 z "},"":{"ha":772,"x_min":0,"x_max":0,"o":"m 33 -4 b 222 0 97 -3 160 0 b 406 -4 324 0 372 -3 l 406 35 b 283 103 300 35 283 38 l 283 617 b 372 631 308 628 342 631 b 519 500 472 631 519 590 b 372 356 519 417 456 356 b 322 358 353 356 338 357 l 317 336 l 594 0 l 767 0 l 767 35 b 685 79 724 35 713 46 l 472 339 b 658 526 539 364 658 397 b 443 676 658 642 567 676 b 217 672 369 676 289 672 b 33 676 150 672 93 676 l 33 638 b 158 556 147 638 158 628 l 158 119 b 33 35 158 38 133 35 z "},"":{"ha":617,"x_min":0,"x_max":0,"o":"m 503 506 b 514 644 503 558 504 594 b 326 692 483 661 431 692 b 61 468 178 692 61 608 b 439 186 61 175 439 399 b 267 31 439 75 353 31 b 111 178 157 31 111 74 l 72 178 b 64 19 72 100 71 68 b 251 -19 113 -4 161 -19 b 556 225 431 -19 556 89 b 172 513 556 510 172 294 b 321 642 172 589 232 642 b 436 608 375 642 404 632 b 464 506 454 594 463 572 z "},"":{"ha":694,"x_min":0,"x_max":0,"o":"m 161 -4 b 350 0 224 -3 288 0 b 522 -4 408 0 465 -3 l 522 35 b 406 111 425 35 406 50 l 406 619 l 475 619 b 611 550 596 619 608 603 l 614 494 l 653 494 l 658 676 b 342 672 592 672 492 672 b 25 676 192 672 92 672 l 31 494 l 69 494 l 72 550 b 208 619 75 603 88 619 l 281 619 l 281 111 b 161 35 281 44 258 35 z "},"":{"ha":849,"x_min":0,"x_max":0,"o":"m 269 582 b 375 640 269 622 286 638 l 375 676 b 206 672 294 675 250 672 b 28 676 147 672 88 675 l 28 638 b 144 568 108 638 144 631 l 144 243 b 428 -19 144 75 197 -19 b 701 256 661 -19 701 113 l 701 554 b 819 638 701 628 719 638 l 819 676 b 676 672 783 675 738 672 b 528 676 628 672 578 675 l 528 638 b 646 549 636 638 646 625 l 646 249 b 457 53 646 107 578 53 b 269 246 314 53 269 126 z "},"":{"ha":772,"x_min":0,"x_max":0,"o":"m 425 -11 l 643 535 b 753 638 675 617 683 638 l 753 676 b 638 672 706 675 669 672 b 494 676 583 672 542 675 l 494 638 b 594 596 563 638 594 629 b 579 538 594 576 588 558 l 428 146 l 283 508 b 247 604 267 549 247 589 b 353 638 247 636 272 638 l 353 676 b 167 672 283 675 217 672 b 17 676 128 672 86 675 l 17 638 b 121 575 81 638 100 629 l 356 -11 z "},"":{"ha":1081,"x_min":0,"x_max":0,"o":"m 539 678 l 360 157 l 357 157 l 249 556 b 239 601 244 569 239 588 b 344 638 239 636 265 638 l 344 676 b 176 672 279 675 219 672 b 17 676 107 672 56 675 l 17 638 b 133 522 86 638 107 615 l 283 -11 l 361 -11 l 533 488 l 536 488 l 717 -11 l 797 -11 l 965 556 b 1058 638 985 622 990 633 l 1058 676 b 936 672 1026 675 986 672 b 803 676 894 672 853 675 l 803 638 b 906 592 881 638 906 619 b 888 501 906 564 896 532 l 788 157 l 785 157 l 592 678 z "},"":{"ha":694,"x_min":0,"x_max":0,"o":"m 39 614 b 76 619 51 617 63 619 b 188 524 115 619 136 614 l 297 333 l 135 103 b 22 36 101 56 88 39 l 22 -3 b 93 0 44 -1 64 0 b 156 -3 114 0 136 -1 b 331 278 206 83 261 178 l 481 -3 b 582 0 519 -1 553 0 b 672 -3 603 0 632 -1 l 672 36 b 572 97 615 43 600 49 l 408 383 l 554 575 b 658 633 588 618 599 633 l 658 672 l 528 672 l 375 442 l 290 590 b 231 685 267 632 256 653 b 39 658 168 669 103 664 z "},"":{"ha":694,"x_min":0,"x_max":0,"o":"m 172 -4 b 356 0 233 -3 283 0 b 539 -4 406 0 478 -3 l 539 35 b 419 132 456 35 419 38 l 419 275 b 667 653 497 413 585 560 l 667 672 l 572 672 b 392 344 522 576 422 399 l 267 575 b 163 685 235 635 199 672 b 19 661 124 674 63 668 l 19 622 b 143 532 69 622 85 614 b 294 283 181 479 232 396 l 294 101 b 172 35 294 56 275 35 z "},"":{"ha":694,"x_min":0,"x_max":0,"o":"m 28 0 b 394 -4 85 -4 281 -4 b 650 0 492 -4 574 -4 b 663 183 654 60 654 122 l 619 183 b 522 53 613 82 610 57 b 292 47 428 49 364 47 b 193 50 253 47 218 49 l 658 636 l 658 676 b 436 672 615 675 553 672 b 81 676 294 672 129 675 b 83 593 83 650 83 621 b 81 506 83 561 82 533 l 119 511 l 122 542 b 319 622 128 624 140 622 b 486 619 379 622 443 621 l 28 33 z "},"":{"ha":694,"x_min":0,"x_max":0,"o":"m 67 214 l 153 267 l 153 144 b 72 35 153 53 133 44 l 72 -4 b 217 0 121 -3 158 0 b 456 -4 282 0 322 -4 b 626 0 517 -4 581 -3 b 650 183 631 65 638 124 l 608 183 l 581 71 b 378 51 542 57 464 51 b 283 54 339 51 311 53 b 278 183 279 99 278 136 l 278 343 l 436 439 l 436 500 l 278 404 l 278 551 b 397 638 278 636 308 638 l 397 676 b 206 672 321 675 253 672 b 28 676 142 672 92 675 l 28 638 b 153 572 131 638 153 636 l 153 328 l 67 275 z "},"":{"ha":617,"x_min":0,"x_max":0,"o":"m 503 506 b 514 644 503 558 504 594 b 326 692 483 661 431 692 b 61 468 178 692 61 608 b 439 186 61 175 439 399 b 267 31 439 75 353 31 b 111 178 157 31 111 74 l 72 178 b 64 19 72 100 71 68 b 251 -19 113 -4 161 -19 b 556 225 431 -19 556 89 b 172 513 556 510 172 294 b 321 642 172 589 232 642 b 436 608 375 642 404 632 b 464 506 454 594 463 572 z m 310 838 l 142 981 l 93 981 l 267 749 l 353 749 l 526 981 l 479 981 z "},"":{"ha":694,"x_min":0,"x_max":0,"o":"m 28 0 b 394 -4 85 -4 281 -4 b 650 0 492 -4 574 -4 b 663 183 654 60 654 122 l 619 183 b 522 53 613 82 610 57 b 292 47 428 49 364 47 b 193 50 253 47 218 49 l 658 636 l 658 676 b 436 672 615 675 553 672 b 81 676 294 672 129 675 b 83 593 83 650 83 621 b 81 506 83 561 82 533 l 119 511 l 122 542 b 319 622 128 624 140 622 b 486 619 379 622 443 621 l 28 33 z m 349 838 l 181 981 l 132 981 l 306 749 l 392 749 l 565 981 l 518 981 z "},"":{"ha":849,"x_min":0,"x_max":0,"o":"m 403 692 l 172 185 b 25 35 110 43 88 35 l 25 -4 b 161 0 88 -3 119 0 b 306 -4 211 0 260 -3 l 306 35 b 203 85 235 35 203 46 b 250 211 203 136 238 182 b 390 214 297 213 344 214 b 533 211 439 214 486 213 b 589 72 551 172 589 103 b 486 35 589 46 568 35 l 486 -4 b 657 0 547 -3 599 0 b 822 -4 717 0 800 -3 l 822 35 b 697 143 769 35 740 40 l 456 692 z m 396 542 l 513 269 b 386 267 467 268 431 267 b 274 269 346 267 310 268 z m 458 765 l 514 765 l 322 957 b 249 1003 301 978 271 1003 b 203 954 219 1003 203 982 b 258 890 203 922 235 904 z "},"":{"ha":849,"x_min":0,"x_max":0,"o":"m 403 692 l 172 185 b 25 35 110 43 88 35 l 25 -4 b 161 0 88 -3 119 0 b 306 -4 211 0 260 -3 l 306 35 b 203 85 235 35 203 46 b 250 211 203 136 238 182 b 390 214 297 213 344 214 b 533 211 439 214 486 213 b 589 72 551 172 589 103 b 486 35 589 46 568 35 l 486 -4 b 657 0 547 -3 599 0 b 822 -4 717 0 800 -3 l 822 35 b 697 143 769 35 740 40 l 456 692 z m 396 542 l 513 269 b 386 267 467 268 431 267 b 274 269 346 267 310 268 z m 301 765 l 357 765 l 557 890 b 613 954 581 904 613 922 b 567 1003 613 982 596 1003 b 493 957 544 1003 514 978 z "},"":{"ha":849,"x_min":0,"x_max":0,"o":"m 403 692 l 172 185 b 25 35 110 43 88 35 l 25 -4 b 161 0 88 -3 119 0 b 306 -4 211 0 260 -3 l 306 35 b 203 85 235 35 203 46 b 250 211 203 136 238 182 b 390 214 297 213 344 214 b 533 211 439 214 486 213 b 589 72 551 172 589 103 b 486 35 589 46 568 35 l 486 -4 b 657 0 547 -3 599 0 b 822 -4 717 0 800 -3 l 822 35 b 697 143 769 35 740 40 l 456 692 z m 396 542 l 513 269 b 386 267 467 268 431 267 b 274 269 346 267 310 268 z m 365 997 l 192 765 l 240 765 l 408 908 l 576 765 l 625 765 l 451 997 z "},"":{"ha":849,"x_min":0,"x_max":0,"o":"m 403 692 l 172 185 b 25 35 110 43 88 35 l 25 -4 b 161 0 88 -3 119 0 b 306 -4 211 0 260 -3 l 306 35 b 203 85 235 35 203 46 b 250 211 203 136 238 182 b 390 214 297 213 344 214 b 533 211 439 214 486 213 b 589 72 551 172 589 103 b 486 35 589 46 568 35 l 486 -4 b 657 0 547 -3 599 0 b 822 -4 717 0 800 -3 l 822 35 b 697 143 769 35 740 40 l 456 692 z m 396 542 l 513 269 b 386 267 467 268 431 267 b 274 269 346 267 310 268 z m 597 940 b 519 871 581 899 567 876 b 436 899 493 868 460 888 b 331 933 404 914 368 933 b 179 794 246 933 193 875 l 219 794 b 293 857 232 828 256 857 b 361 836 315 857 343 844 b 490 794 411 814 433 794 b 601 851 542 794 578 821 b 638 940 626 883 638 919 z "},"":{"ha":849,"x_min":0,"x_max":0,"o":"m 403 692 l 172 185 b 25 35 110 43 88 35 l 25 -4 b 161 0 88 -3 119 0 b 306 -4 211 0 260 -3 l 306 35 b 203 85 235 35 203 46 b 250 211 203 136 238 182 b 390 214 297 213 344 214 b 533 211 439 214 486 213 b 589 72 551 172 589 103 b 486 35 589 46 568 35 l 486 -4 b 657 0 547 -3 599 0 b 822 -4 717 0 800 -3 l 822 35 b 697 143 769 35 740 40 l 456 692 z m 396 542 l 513 269 b 386 267 467 268 431 267 b 274 269 346 267 310 268 z m 269 947 b 200 878 228 947 200 919 b 269 808 200 836 228 808 b 339 878 311 808 339 836 b 269 947 339 919 311 947 z m 546 947 b 476 878 504 947 476 919 b 546 808 476 836 504 808 b 615 878 588 808 615 836 b 546 947 615 919 588 947 z "},"":{"ha":849,"x_min":0,"x_max":0,"o":"m 403 692 l 172 185 b 25 35 110 43 88 35 l 25 -4 b 161 0 88 -3 119 0 b 306 -4 211 0 260 -3 l 306 35 b 203 85 235 35 203 46 b 250 211 203 136 238 182 b 390 214 297 213 344 214 b 533 211 439 214 486 213 b 589 72 551 172 589 103 b 486 35 589 46 568 35 l 486 -4 b 657 0 547 -3 599 0 b 822 -4 717 0 800 -3 l 822 35 b 697 143 769 35 740 40 l 456 692 z m 396 542 l 513 269 b 386 267 467 268 431 267 b 274 269 346 267 310 268 z m 408 1029 b 269 890 332 1029 268 967 b 408 751 268 814 332 751 b 547 890 485 751 549 814 b 408 1029 549 967 485 1029 z m 408 979 b 494 890 460 979 494 944 b 408 801 494 836 460 801 b 322 890 357 801 322 836 b 408 979 322 944 357 979 z "},"":{"ha":1081,"x_min":0,"x_max":0,"o":"m 278 633 b 406 603 368 633 406 631 b 365 517 406 585 386 553 l 193 203 b 11 39 124 76 97 39 l 11 0 b 147 6 71 3 111 6 b 311 0 203 6 257 3 l 311 39 b 206 78 249 39 206 44 b 279 236 206 111 254 188 b 404 239 307 238 356 239 b 542 236 447 239 506 238 b 536 56 542 181 539 79 l 478 31 l 478 0 b 601 6 526 3 554 6 b 818 0 636 6 696 0 b 1006 6 889 0 947 1 l 1022 194 l 981 194 l 953 72 b 774 53 908 58 839 53 b 669 61 738 53 694 57 b 664 322 668 147 665 233 b 749 325 690 324 719 325 b 882 225 854 325 879 324 l 924 225 b 917 365 921 272 917 318 b 924 469 917 400 921 431 l 882 469 b 811 375 881 397 865 375 b 664 376 756 375 706 376 b 667 614 665 457 665 535 b 754 622 692 619 729 622 b 944 608 800 622 881 617 l 961 503 l 997 503 l 1010 667 b 832 678 975 672 917 678 b 674 672 774 678 724 675 b 514 667 622 669 572 667 b 278 672 438 667 357 671 z m 307 292 l 346 361 b 519 631 396 450 492 631 b 547 376 540 631 547 594 b 544 292 547 346 546 311 z "},"":{"ha":772,"x_min":0,"x_max":0,"o":"m 351 -150 l 361 -158 b 418 -149 381 -153 397 -149 b 474 -199 444 -149 474 -167 b 393 -262 474 -251 440 -262 b 308 -247 367 -262 333 -254 l 289 -290 b 408 -312 339 -306 358 -312 b 578 -196 482 -312 578 -286 b 463 -99 578 -131 524 -99 b 422 -104 449 -99 435 -100 l 457 -18 b 714 50 578 -17 674 17 l 733 103 l 717 113 b 494 42 651 61 589 42 b 200 340 296 42 200 181 b 454 642 200 528 308 642 b 664 556 569 642 626 600 l 669 461 l 708 461 b 725 642 708 497 711 574 b 471 692 661 671 544 692 b 61 329 238 692 61 564 b 410 -17 61 139 206 -4 z "},"":{"ha":694,"x_min":0,"x_max":0,"o":"m 161 150 b 42 35 161 51 153 35 l 42 -4 b 221 0 110 -3 158 0 b 436 -4 288 0 356 -4 b 625 3 501 -4 569 -3 b 636 192 631 57 635 121 l 600 192 b 569 67 593 146 583 104 b 414 50 536 57 475 50 b 292 56 367 50 329 53 b 286 324 288 121 286 213 b 365 326 308 325 331 326 b 497 222 486 326 497 310 l 539 222 b 536 351 538 261 536 308 b 539 469 536 389 538 432 l 497 469 b 419 376 497 392 486 376 b 286 379 356 376 318 378 b 289 622 286 460 285 550 b 376 631 314 626 343 631 b 564 617 443 631 510 626 b 578 506 572 588 574 558 l 617 506 b 633 672 619 572 625 625 b 465 683 589 679 521 683 b 314 678 415 683 364 681 b 163 672 264 675 214 672 b 32 676 114 672 75 675 l 32 639 b 161 542 136 639 161 633 z m 415 765 l 471 765 l 279 957 b 206 1003 258 978 228 1003 b 160 954 176 1003 160 982 b 215 890 160 922 192 904 z "},"":{"ha":694,"x_min":0,"x_max":0,"o":"m 161 150 b 42 35 161 51 153 35 l 42 -4 b 221 0 110 -3 158 0 b 436 -4 288 0 356 -4 b 625 3 501 -4 569 -3 b 636 192 631 57 635 121 l 600 192 b 569 67 593 146 583 104 b 414 50 536 57 475 50 b 292 56 367 50 329 53 b 286 324 288 121 286 213 b 365 326 308 325 331 326 b 497 222 486 326 497 310 l 539 222 b 536 351 538 261 536 308 b 539 469 536 389 538 432 l 497 469 b 419 376 497 392 486 376 b 286 379 356 376 318 378 b 289 622 286 460 285 550 b 376 631 314 626 343 631 b 564 617 443 631 510 626 b 578 506 572 588 574 558 l 617 506 b 633 672 619 572 625 625 b 465 683 589 679 521 683 b 314 678 415 683 364 681 b 163 672 264 675 214 672 b 32 676 114 672 75 675 l 32 639 b 161 542 136 639 161 633 z m 258 765 l 314 765 l 514 890 b 569 954 538 904 569 922 b 524 1003 569 982 553 1003 b 450 957 501 1003 471 978 z "},"":{"ha":694,"x_min":0,"x_max":0,"o":"m 161 150 b 42 35 161 51 153 35 l 42 -4 b 221 0 110 -3 158 0 b 436 -4 288 0 356 -4 b 625 3 501 -4 569 -3 b 636 192 631 57 635 121 l 600 192 b 569 67 593 146 583 104 b 414 50 536 57 475 50 b 292 56 367 50 329 53 b 286 324 288 121 286 213 b 365 326 308 325 331 326 b 497 222 486 326 497 310 l 539 222 b 536 351 538 261 536 308 b 539 469 536 389 538 432 l 497 469 b 419 376 497 392 486 376 b 286 379 356 376 318 378 b 289 622 286 460 285 550 b 376 631 314 626 343 631 b 564 617 443 631 510 626 b 578 506 572 588 574 558 l 617 506 b 633 672 619 572 625 625 b 465 683 589 679 521 683 b 314 678 415 683 364 681 b 163 672 264 675 214 672 b 32 676 114 672 75 675 l 32 639 b 161 542 136 639 161 633 z m 322 997 l 149 765 l 197 765 l 365 908 l 533 765 l 582 765 l 408 997 z "},"":{"ha":694,"x_min":0,"x_max":0,"o":"m 161 150 b 42 35 161 51 153 35 l 42 -4 b 221 0 110 -3 158 0 b 436 -4 288 0 356 -4 b 625 3 501 -4 569 -3 b 636 192 631 57 635 121 l 600 192 b 569 67 593 146 583 104 b 414 50 536 57 475 50 b 292 56 367 50 329 53 b 286 324 288 121 286 213 b 365 326 308 325 331 326 b 497 222 486 326 497 310 l 539 222 b 536 351 538 261 536 308 b 539 469 536 389 538 432 l 497 469 b 419 376 497 392 486 376 b 286 379 356 376 318 378 b 289 622 286 460 285 550 b 376 631 314 626 343 631 b 564 617 443 631 510 626 b 578 506 572 588 574 558 l 617 506 b 633 672 619 572 625 625 b 465 683 589 679 521 683 b 314 678 415 683 364 681 b 163 672 264 675 214 672 b 32 676 114 672 75 675 l 32 639 b 161 542 136 639 161 633 z m 210 947 b 140 878 168 947 140 919 b 210 808 140 836 168 808 b 279 878 251 808 279 836 b 210 947 279 919 251 947 z m 486 947 b 417 878 444 947 417 919 b 486 808 417 836 444 808 b 556 878 528 808 556 836 b 486 947 556 919 528 947 z "},"":{"ha":463,"x_min":0,"x_max":0,"o":"m 167 128 b 42 35 167 44 144 35 l 42 -4 b 232 0 106 -3 168 0 b 417 -4 294 0 356 -3 l 417 35 b 292 128 303 35 292 44 l 292 561 b 417 638 292 636 314 638 l 417 676 b 225 672 340 675 292 672 b 42 676 153 672 92 675 l 42 638 b 167 561 133 638 167 635 z m 315 765 l 371 765 l 179 957 b 106 1003 158 978 128 1003 b 60 954 76 1003 60 982 b 115 890 60 922 92 904 z "},"":{"ha":463,"x_min":0,"x_max":0,"o":"m 167 128 b 42 35 167 44 144 35 l 42 -4 b 232 0 106 -3 168 0 b 417 -4 294 0 356 -3 l 417 35 b 292 128 303 35 292 44 l 292 561 b 417 638 292 636 314 638 l 417 676 b 225 672 340 675 292 672 b 42 676 153 672 92 675 l 42 638 b 167 561 133 638 167 635 z m 125 765 l 181 765 l 381 890 b 436 954 404 904 436 922 b 390 1003 436 982 419 1003 b 317 957 368 1003 338 978 z "},"":{"ha":463,"x_min":0,"x_max":0,"o":"m 167 128 b 42 35 167 44 144 35 l 42 -4 b 232 0 106 -3 168 0 b 417 -4 294 0 356 -3 l 417 35 b 292 128 303 35 292 44 l 292 561 b 417 638 292 636 314 638 l 417 676 b 225 672 340 675 292 672 b 42 676 153 672 92 675 l 42 638 b 167 561 133 638 167 635 z m 206 997 l 32 765 l 81 765 l 249 908 l 417 765 l 465 765 l 292 997 z "},"":{"ha":463,"x_min":0,"x_max":0,"o":"m 167 128 b 42 35 167 44 144 35 l 42 -4 b 232 0 106 -3 168 0 b 417 -4 294 0 356 -3 l 417 35 b 292 128 303 35 292 44 l 292 561 b 417 638 292 636 314 638 l 417 676 b 225 672 340 675 292 672 b 42 676 153 672 92 675 l 42 638 b 167 561 133 638 167 635 z m 110 947 b 40 878 68 947 40 919 b 110 808 40 836 68 808 b 179 878 151 808 179 836 b 110 947 179 919 151 947 z m 386 947 b 317 878 344 947 317 919 b 386 808 317 836 344 808 b 456 878 428 808 456 836 b 386 947 456 919 428 947 z "},"":{"ha":849,"x_min":0,"x_max":0,"o":"m 286 328 l 467 328 l 467 383 l 286 383 l 286 524 b 289 617 286 558 288 582 b 392 625 310 621 351 625 b 647 349 533 625 647 540 b 378 53 647 190 575 53 b 286 58 354 53 325 56 z m 161 157 b 94 25 161 65 143 44 l 94 -3 b 224 0 135 -1 179 0 b 400 -3 281 0 342 -3 b 786 375 697 -3 786 232 b 418 675 786 558 661 675 b 222 672 347 675 288 672 b 50 675 161 672 108 672 l 50 636 b 161 556 139 636 161 614 l 161 383 l 50 383 l 50 328 l 161 328 z "},"":{"ha":926,"x_min":0,"x_max":0,"o":"m 161 119 b 33 35 161 50 140 35 l 33 -4 b 179 0 81 -3 131 0 b 336 -4 232 0 285 -3 l 336 35 b 217 111 231 35 217 42 l 217 533 l 219 533 l 664 -6 l 775 -19 b 767 128 772 26 767 72 l 767 531 b 894 638 767 628 789 638 l 894 676 b 739 672 842 675 792 672 b 583 676 694 672 640 675 l 583 638 b 711 567 671 638 711 631 l 711 133 l 708 133 b 269 676 565 315 411 492 b 153 672 232 675 189 672 b 39 676 108 672 75 675 l 39 638 b 161 579 132 636 161 624 z m 636 940 b 558 871 619 899 606 876 b 475 899 532 868 499 888 b 369 933 443 914 407 933 b 218 794 285 933 232 875 l 258 794 b 332 857 271 828 294 857 b 400 836 354 857 382 844 b 529 794 450 814 472 794 b 640 851 581 794 617 821 b 676 940 665 883 676 919 z "},"":{"ha":849,"x_min":0,"x_max":0,"o":"m 435 692 b 56 328 233 692 56 567 b 414 -19 56 106 247 -19 b 792 360 650 -19 792 172 b 435 692 792 531 674 692 z m 408 644 b 653 328 581 644 653 500 b 447 36 653 194 611 36 b 194 369 253 36 194 217 b 408 644 194 544 289 644 z m 475 765 l 531 765 l 339 957 b 265 1003 318 978 288 1003 b 219 954 236 1003 219 982 b 275 890 219 922 251 904 z "},"":{"ha":849,"x_min":0,"x_max":0,"o":"m 435 692 b 56 328 233 692 56 567 b 414 -19 56 106 247 -19 b 792 360 650 -19 792 172 b 435 692 792 531 674 692 z m 408 644 b 653 328 581 644 653 500 b 447 36 653 194 611 36 b 194 369 253 36 194 217 b 408 644 194 544 289 644 z m 301 765 l 357 765 l 557 890 b 613 954 581 904 613 922 b 567 1003 613 982 596 1003 b 493 957 544 1003 514 978 z "},"":{"ha":849,"x_min":0,"x_max":0,"o":"m 435 692 b 56 328 233 692 56 567 b 414 -19 56 106 247 -19 b 792 360 650 -19 792 172 b 435 692 792 531 674 692 z m 408 644 b 653 328 581 644 653 500 b 447 36 653 194 611 36 b 194 369 253 36 194 217 b 408 644 194 544 289 644 z m 382 997 l 208 765 l 257 765 l 425 908 l 593 765 l 642 765 l 468 997 z "},"":{"ha":849,"x_min":0,"x_max":0,"o":"m 435 692 b 56 328 233 692 56 567 b 414 -19 56 106 247 -19 b 792 360 650 -19 792 172 b 435 692 792 531 674 692 z m 408 644 b 653 328 581 644 653 500 b 447 36 653 194 611 36 b 194 369 253 36 194 217 b 408 644 194 544 289 644 z m 614 940 b 536 871 597 899 583 876 b 453 899 510 868 476 888 b 347 933 421 914 385 933 b 196 794 263 933 210 875 l 236 794 b 310 857 249 828 272 857 b 378 836 332 857 360 844 b 507 794 428 814 450 794 b 618 851 558 794 594 821 b 654 940 643 883 654 919 z "},"":{"ha":849,"x_min":0,"x_max":0,"o":"m 435 692 b 56 328 233 692 56 567 b 414 -19 56 106 247 -19 b 792 360 650 -19 792 172 b 435 692 792 531 674 692 z m 408 644 b 653 328 581 644 653 500 b 447 36 653 194 611 36 b 194 369 253 36 194 217 b 408 644 194 544 289 644 z m 286 947 b 217 878 244 947 217 919 b 286 808 217 836 244 808 b 356 878 328 808 356 836 b 286 947 356 919 328 947 z m 563 947 b 493 878 521 947 493 919 b 563 808 493 836 521 808 b 632 878 604 808 632 836 b 563 947 632 919 604 947 z "},"":{"ha":1157,"x_min":0,"x_max":0,"o":"m 614 251 b 606 61 614 164 611 113 b 483 36 588 51 547 36 b 197 349 267 36 197 207 b 451 642 197 556 328 642 b 608 597 510 642 556 624 b 614 494 611 563 614 533 z m 739 317 b 844 322 788 319 814 322 b 961 225 947 322 961 310 l 1003 225 b 997 347 1000 269 997 308 b 1003 464 997 389 1000 419 l 961 464 b 885 375 961 386 953 375 b 739 378 792 375 760 376 l 739 617 b 844 622 774 618 808 622 b 1025 608 893 622 981 617 b 1044 500 1036 569 1039 536 l 1078 500 l 1092 667 b 906 678 1047 671 986 678 b 686 667 821 678 753 667 b 564 679 646 667 606 674 b 440 692 524 686 482 692 b 58 353 185 692 58 531 b 428 -19 58 167 200 -19 b 556 -7 460 -19 494 -12 b 850 6 618 0 707 6 b 1089 0 942 6 1057 1 l 1103 192 l 1064 192 l 1033 69 b 856 53 983 60 931 53 b 739 58 803 53 775 56 z "},"":{"ha":849,"x_min":0,"x_max":0,"o":"m 228 188 b 194 369 204 244 194 310 b 408 644 194 544 289 644 b 596 549 494 644 556 608 z m 622 500 b 653 328 643 451 653 392 b 447 36 653 194 611 36 b 254 138 353 36 292 78 z m 792 667 l 753 703 l 668 619 b 435 692 613 664 535 692 b 56 328 233 692 56 567 b 140 103 56 235 89 160 l 44 8 l 83 -31 l 181 65 b 414 -19 249 10 333 -19 b 792 360 650 -19 792 172 b 708 585 792 443 764 524 z "},"":{"ha":849,"x_min":0,"x_max":0,"o":"m 269 582 b 375 640 269 622 286 638 l 375 676 b 206 672 294 675 250 672 b 28 676 147 672 88 675 l 28 638 b 144 568 108 638 144 631 l 144 243 b 428 -19 144 75 197 -19 b 701 256 661 -19 701 113 l 701 554 b 819 638 701 628 719 638 l 819 676 b 676 672 783 675 738 672 b 528 676 628 672 578 675 l 528 638 b 646 549 636 638 646 625 l 646 249 b 457 53 646 107 578 53 b 269 246 314 53 269 126 z m 458 765 l 514 765 l 322 957 b 249 1003 301 978 271 1003 b 203 954 219 1003 203 982 b 258 890 203 922 235 904 z "},"":{"ha":849,"x_min":0,"x_max":0,"o":"m 269 582 b 375 640 269 622 286 638 l 375 676 b 206 672 294 675 250 672 b 28 676 147 672 88 675 l 28 638 b 144 568 108 638 144 631 l 144 243 b 428 -19 144 75 197 -19 b 701 256 661 -19 701 113 l 701 554 b 819 638 701 628 719 638 l 819 676 b 676 672 783 675 738 672 b 528 676 628 672 578 675 l 528 638 b 646 549 636 638 646 625 l 646 249 b 457 53 646 107 578 53 b 269 246 314 53 269 126 z m 335 765 l 390 765 l 590 890 b 646 954 614 904 646 922 b 600 1003 646 982 629 1003 b 526 957 578 1003 547 978 z "},"":{"ha":849,"x_min":0,"x_max":0,"o":"m 269 582 b 375 640 269 622 286 638 l 375 676 b 206 672 294 675 250 672 b 28 676 147 672 88 675 l 28 638 b 144 568 108 638 144 631 l 144 243 b 428 -19 144 75 197 -19 b 701 256 661 -19 701 113 l 701 554 b 819 638 701 628 719 638 l 819 676 b 676 672 783 675 738 672 b 528 676 628 672 578 675 l 528 638 b 646 549 636 638 646 625 l 646 249 b 457 53 646 107 578 53 b 269 246 314 53 269 126 z m 382 997 l 208 765 l 257 765 l 425 908 l 593 765 l 642 765 l 468 997 z "},"":{"ha":849,"x_min":0,"x_max":0,"o":"m 269 582 b 375 640 269 622 286 638 l 375 676 b 206 672 294 675 250 672 b 28 676 147 672 88 675 l 28 638 b 144 568 108 638 144 631 l 144 243 b 428 -19 144 75 197 -19 b 701 256 661 -19 701 113 l 701 554 b 819 638 701 628 719 638 l 819 676 b 676 672 783 675 738 672 b 528 676 628 672 578 675 l 528 638 b 646 549 636 638 646 625 l 646 249 b 457 53 646 107 578 53 b 269 246 314 53 269 126 z m 286 947 b 217 878 244 947 217 919 b 286 808 217 836 244 808 b 356 878 328 808 356 836 b 286 947 356 919 328 947 z m 563 947 b 493 878 521 947 493 919 b 563 808 493 836 521 808 b 632 878 604 808 632 836 b 563 947 632 919 604 947 z "},"":{"ha":694,"x_min":0,"x_max":0,"o":"m 172 -4 b 356 0 233 -3 283 0 b 539 -4 406 0 478 -3 l 539 35 b 419 132 456 35 419 38 l 419 275 b 667 653 497 413 585 560 l 667 672 l 572 672 b 392 344 522 576 422 399 l 267 575 b 163 685 235 635 199 672 b 19 661 124 674 63 668 l 19 622 b 143 532 69 622 85 614 b 294 283 181 479 232 396 l 294 101 b 172 35 294 56 275 35 z m 269 765 l 325 765 l 525 890 b 581 954 549 904 581 922 b 535 1003 581 982 564 1003 b 461 957 513 1003 482 978 z "},"":{"ha":694,"x_min":0,"x_max":0,"o":"m 158 128 b 33 35 158 44 136 35 l 33 -4 b 224 0 97 -3 160 0 b 408 -4 286 0 347 -3 l 408 35 b 283 128 294 35 283 44 l 283 450 b 367 467 308 458 333 467 b 519 331 461 467 519 417 b 381 186 519 244 475 186 b 336 197 364 186 347 190 l 344 156 b 400 144 354 150 369 144 b 650 347 575 144 650 254 b 415 514 650 453 603 514 b 283 500 358 514 322 508 l 283 561 b 408 638 283 636 306 638 l 408 676 b 217 672 332 675 283 672 b 33 676 144 672 83 674 l 33 638 b 158 561 125 638 158 636 z "},"":{"ha":694,"x_min":0,"x_max":0,"o":"m 172 -4 b 356 0 233 -3 283 0 b 539 -4 406 0 478 -3 l 539 35 b 419 132 456 35 419 38 l 419 275 b 667 653 497 413 585 560 l 667 672 l 572 672 b 392 344 522 576 422 399 l 267 575 b 163 685 235 635 199 672 b 19 661 124 674 63 668 l 19 622 b 143 532 69 622 85 614 b 294 283 181 479 232 396 l 294 101 b 172 35 294 56 275 35 z m 210 947 b 140 878 168 947 140 919 b 210 808 140 836 168 808 b 279 878 251 808 279 836 b 210 947 279 919 251 947 z m 486 947 b 417 878 444 947 417 919 b 486 808 417 836 444 808 b 556 878 528 808 556 836 b 486 947 556 919 528 947 z "},"Ω":{"ha":910,"x_min":0,"x_max":0,"o":"m 865 185 l 832 188 b 738 83 806 94 790 83 l 600 83 b 817 539 689 182 817 338 b 456 963 817 804 664 963 b 89 529 251 963 89 796 b 303 83 89 306 225 160 l 169 83 b 74 188 121 83 100 97 l 42 185 l 71 0 l 361 0 l 371 24 b 208 519 303 154 208 326 b 453 924 208 817 319 924 b 700 526 576 924 699 815 b 535 24 701 328 590 142 l 542 0 l 835 0 z "},"ﬁ":{"ha":840,"x_min":0,"x_max":0,"o":"m 474 996 b 411 1011 454 1004 432 1011 b 286 953 372 1011 322 994 l 206 861 b 147 661 165 815 147 753 l 147 603 l 51 560 l 51 529 l 147 535 l 147 142 b 140 61 147 104 146 76 b 96 42 135 49 119 43 l 32 38 l 32 -4 b 206 0 82 -3 138 0 b 388 -4 274 0 329 -3 l 388 38 l 315 42 b 271 61 292 43 276 49 b 264 142 265 76 264 104 l 264 535 l 422 535 l 432 608 l 264 603 l 264 721 b 365 919 264 879 279 919 b 457 881 400 919 432 904 l 474 889 z m 700 642 l 688 651 b 471 592 636 625 553 600 l 471 553 l 522 553 b 574 538 551 553 565 549 b 583 451 581 526 583 496 l 583 142 b 576 61 583 104 582 76 b 532 42 571 49 556 43 l 468 38 l 468 -4 b 642 0 518 -3 574 0 b 815 -4 710 0 765 -3 l 815 38 l 751 42 b 707 61 728 43 713 49 b 700 142 701 76 700 104 z m 647 954 b 571 876 607 954 571 917 b 647 800 571 836 607 800 b 725 876 688 800 725 836 b 647 954 725 917 688 954 z "},"ﬂ":{"ha":844,"x_min":0,"x_max":0,"o":"m 588 142 b 581 61 588 104 586 76 b 536 42 575 49 560 43 l 472 38 l 472 -4 b 646 0 522 -3 578 0 b 819 -4 714 0 769 -3 l 819 38 l 756 42 b 711 61 732 43 717 49 b 704 142 706 76 704 104 l 704 994 l 692 1008 b 494 957 622 983 549 968 l 494 996 b 411 1011 454 1004 432 1011 b 286 953 372 1011 322 994 l 206 861 b 147 661 165 815 147 753 l 147 603 l 51 560 l 51 529 l 147 535 l 147 142 b 140 61 147 104 146 76 b 96 42 135 49 119 43 l 32 38 l 32 -4 b 206 0 82 -3 138 0 b 388 -4 274 0 329 -3 l 388 38 l 315 42 b 271 61 292 43 276 49 b 264 142 265 76 264 104 l 264 535 l 436 535 l 446 608 l 264 603 l 264 721 b 365 919 264 879 279 919 b 464 881 400 919 432 904 l 494 889 l 494 918 l 553 918 b 588 842 583 918 588 872 z "},"¹":{"ha":417,"x_min":0,"x_max":0,"o":"m 181 526 b 121 415 181 432 171 415 l 71 415 l 71 379 b 218 383 142 381 181 383 b 374 379 256 383 294 381 l 374 415 l 328 415 b 269 526 278 415 269 432 l 269 674 b 281 957 269 797 278 918 l 267 961 b 43 881 186 933 111 904 l 49 836 l 58 836 l 171 883 l 174 883 b 181 857 181 883 181 869 z "},"³":{"ha":417,"x_min":0,"x_max":0,"o":"m 38 803 l 72 803 b 193 893 82 854 128 893 b 293 806 250 893 293 853 b 182 700 293 756 247 700 b 138 701 168 700 156 701 l 124 642 l 138 636 b 211 654 157 650 181 654 b 324 542 283 654 324 614 b 199 414 324 469 272 414 b 44 533 122 414 71 443 l 1 522 b 38 392 18 468 35 426 b 160 369 79 379 129 369 b 415 568 294 369 415 453 b 276 696 415 646 365 685 b 376 831 331 732 376 779 b 210 957 376 908 311 957 b 64 901 151 957 103 942 z "},"²":{"ha":417,"x_min":0,"x_max":0,"o":"m 278 608 b 383 801 347 675 383 732 b 190 957 383 883 322 957 b 38 899 132 957 76 940 b 21 775 32 861 28 822 l 54 775 l 72 824 b 174 889 90 872 122 889 b 289 775 249 889 289 843 b 150 551 289 719 271 668 l 0 407 l 0 379 b 203 383 68 381 135 383 b 418 379 272 383 339 381 b 417 418 417 392 417 404 b 418 464 417 432 417 447 b 288 457 383 460 333 457 l 118 457 z "},"‐":{"ha":463,"x_min":0,"x_max":0,"o":"m 392 299 l 433 392 l 426 399 l 61 399 l 24 306 l 31 299 z "}}}
